%TF.GenerationSoftware,KiCad,Pcbnew,(6.0.0-0)*%
%TF.CreationDate,2022-01-14T18:13:57-08:00*%
%TF.ProjectId,ArduinoNanoBoard,41726475-696e-46f4-9e61-6e6f426f6172,RedSkull*%
%TF.SameCoordinates,Original*%
%TF.FileFunction,Copper,L2,Bot*%
%TF.FilePolarity,Positive*%
%FSLAX46Y46*%
G04 Gerber Fmt 4.6, Leading zero omitted, Abs format (unit mm)*
G04 Created by KiCad (PCBNEW (6.0.0-0)) date 2022-01-14 18:13:57*
%MOMM*%
%LPD*%
G01*
G04 APERTURE LIST*
%TA.AperFunction,ComponentPad*%
%ADD10R,1.700000X1.700000*%
%TD*%
%TA.AperFunction,ComponentPad*%
%ADD11O,1.700000X1.700000*%
%TD*%
%TA.AperFunction,ComponentPad*%
%ADD12R,1.600000X1.600000*%
%TD*%
%TA.AperFunction,ComponentPad*%
%ADD13O,1.600000X1.600000*%
%TD*%
%TA.AperFunction,ViaPad*%
%ADD14C,0.800000*%
%TD*%
%TA.AperFunction,Conductor*%
%ADD15C,0.900000*%
%TD*%
G04 APERTURE END LIST*
D10*
%TO.P,J5,1,Pin_1*%
%TO.N,Net-(A1-Pad27)*%
X175260000Y-93980000D03*
D11*
%TO.P,J5,2,Pin_2*%
%TO.N,GND*%
X177800000Y-93980000D03*
%TO.P,J5,3,Pin_3*%
%TO.N,Net-(A1-Pad5)*%
X180340000Y-93980000D03*
%TO.P,J5,4,Pin_4*%
%TO.N,Net-(A1-Pad6)*%
X182880000Y-93980000D03*
%TD*%
D10*
%TO.P,J4,1,Pin_1*%
%TO.N,Net-(A1-Pad17)*%
X177800000Y-129540000D03*
D11*
%TO.P,J4,2,Pin_2*%
%TO.N,Net-(A1-Pad12)*%
X177800000Y-127000000D03*
%TO.P,J4,3,Pin_3*%
%TO.N,GND*%
X177800000Y-124460000D03*
%TO.P,J4,4,Pin_4*%
%TO.N,unconnected-(J4-Pad4)*%
X177800000Y-121920000D03*
%TO.P,J4,5,Pin_5*%
%TO.N,Net-(A1-Pad15)*%
X177800000Y-119380000D03*
%TO.P,J4,6,Pin_6*%
%TO.N,Net-(A1-Pad14)*%
X177800000Y-116840000D03*
%TO.P,J4,7,Pin_7*%
%TO.N,Net-(A1-Pad16)*%
X177800000Y-114300000D03*
%TO.P,J4,8,Pin_8*%
%TO.N,Net-(A1-Pad13)*%
X177800000Y-111760000D03*
%TD*%
D12*
%TO.P,A1,1,D1/TX*%
%TO.N,Net-(A1-Pad1)*%
X132080000Y-78740000D03*
D13*
%TO.P,A1,2,D0/RX*%
%TO.N,Net-(A1-Pad2)*%
X132080000Y-81280000D03*
%TO.P,A1,3,~{RESET}*%
%TO.N,unconnected-(A1-Pad3)*%
X132080000Y-83820000D03*
%TO.P,A1,4,GND*%
%TO.N,GND*%
X132080000Y-86360000D03*
%TO.P,A1,5,D2*%
%TO.N,Net-(A1-Pad5)*%
X132080000Y-88900000D03*
%TO.P,A1,6,D3*%
%TO.N,Net-(A1-Pad6)*%
X132080000Y-91440000D03*
%TO.P,A1,7,D4*%
%TO.N,Net-(A1-Pad7)*%
X132080000Y-93980000D03*
%TO.P,A1,8,D5*%
%TO.N,Net-(A1-Pad8)*%
X132080000Y-96520000D03*
%TO.P,A1,9,D6*%
%TO.N,Net-(A1-Pad9)*%
X132080000Y-99060000D03*
%TO.P,A1,10,D7*%
%TO.N,Net-(A1-Pad10)*%
X132080000Y-101600000D03*
%TO.P,A1,11,D8*%
%TO.N,Net-(A1-Pad11)*%
X132080000Y-104140000D03*
%TO.P,A1,12,D9*%
%TO.N,Net-(A1-Pad12)*%
X132080000Y-106680000D03*
%TO.P,A1,13,D10*%
%TO.N,Net-(A1-Pad13)*%
X132080000Y-109220000D03*
%TO.P,A1,14,D11*%
%TO.N,Net-(A1-Pad14)*%
X132080000Y-111760000D03*
%TO.P,A1,15,D12*%
%TO.N,Net-(A1-Pad15)*%
X132080000Y-114300000D03*
%TO.P,A1,16,D13*%
%TO.N,Net-(A1-Pad16)*%
X147320000Y-114300000D03*
%TO.P,A1,17,3V3*%
%TO.N,Net-(A1-Pad17)*%
X147320000Y-111760000D03*
%TO.P,A1,18,AREF*%
%TO.N,Net-(A1-Pad18)*%
X147320000Y-109220000D03*
%TO.P,A1,19,A0*%
%TO.N,Net-(A1-Pad19)*%
X147320000Y-106680000D03*
%TO.P,A1,20,A1*%
%TO.N,Net-(A1-Pad20)*%
X147320000Y-104140000D03*
%TO.P,A1,21,A2*%
%TO.N,Net-(A1-Pad21)*%
X147320000Y-101600000D03*
%TO.P,A1,22,A3*%
%TO.N,Net-(A1-Pad22)*%
X147320000Y-99060000D03*
%TO.P,A1,23,A4*%
%TO.N,Net-(A1-Pad23)*%
X147320000Y-96520000D03*
%TO.P,A1,24,A5*%
%TO.N,Net-(A1-Pad24)*%
X147320000Y-93980000D03*
%TO.P,A1,25,A6*%
%TO.N,Net-(A1-Pad25)*%
X147320000Y-91440000D03*
%TO.P,A1,26,A7*%
%TO.N,Net-(A1-Pad26)*%
X147320000Y-88900000D03*
%TO.P,A1,27,+5V*%
%TO.N,Net-(A1-Pad27)*%
X147320000Y-86360000D03*
%TO.P,A1,28,~{RESET}*%
%TO.N,unconnected-(A1-Pad28)*%
X147320000Y-83820000D03*
%TO.P,A1,29,GND*%
%TO.N,GND*%
X147320000Y-81280000D03*
%TO.P,A1,30,VIN*%
%TO.N,Net-(A1-Pad30)*%
X147320000Y-78740000D03*
%TD*%
D10*
%TO.P,J1,1,Pin_1*%
%TO.N,GND*%
X106680000Y-81285000D03*
D11*
%TO.P,J1,2,Pin_2*%
%TO.N,Net-(A1-Pad2)*%
X106680000Y-83825000D03*
%TO.P,J1,3,Pin_3*%
%TO.N,Net-(A1-Pad1)*%
X106680000Y-86365000D03*
%TO.P,J1,4,Pin_4*%
%TO.N,Net-(A1-Pad5)*%
X106680000Y-88905000D03*
%TO.P,J1,5,Pin_5*%
%TO.N,Net-(A1-Pad6)*%
X106680000Y-91445000D03*
%TO.P,J1,6,Pin_6*%
%TO.N,Net-(A1-Pad7)*%
X106680000Y-93985000D03*
%TO.P,J1,7,Pin_7*%
%TO.N,Net-(A1-Pad8)*%
X106680000Y-96525000D03*
%TO.P,J1,8,Pin_8*%
%TO.N,Net-(A1-Pad9)*%
X106680000Y-99065000D03*
%TO.P,J1,9,Pin_9*%
%TO.N,Net-(A1-Pad10)*%
X106680000Y-101605000D03*
%TO.P,J1,10,Pin_10*%
%TO.N,Net-(A1-Pad11)*%
X106680000Y-104145000D03*
%TO.P,J1,11,Pin_11*%
%TO.N,Net-(A1-Pad12)*%
X106680000Y-106685000D03*
%TO.P,J1,12,Pin_12*%
%TO.N,Net-(A1-Pad13)*%
X106680000Y-109225000D03*
%TO.P,J1,13,Pin_13*%
%TO.N,Net-(A1-Pad14)*%
X106680000Y-111765000D03*
%TO.P,J1,14,Pin_14*%
%TO.N,Net-(A1-Pad15)*%
X106680000Y-114305000D03*
%TO.P,J1,15,Pin_15*%
%TO.N,Net-(A1-Pad16)*%
X106680000Y-116845000D03*
%TD*%
D10*
%TO.P,J3,1,Pin_1*%
%TO.N,GND*%
X162560000Y-87635000D03*
D11*
%TO.P,J3,2,Pin_2*%
%TO.N,Net-(A1-Pad26)*%
X162560000Y-90175000D03*
%TO.P,J3,3,Pin_3*%
%TO.N,Net-(A1-Pad25)*%
X162560000Y-92715000D03*
%TO.P,J3,4,Pin_4*%
%TO.N,Net-(A1-Pad24)*%
X162560000Y-95255000D03*
%TO.P,J3,5,Pin_5*%
%TO.N,Net-(A1-Pad23)*%
X162560000Y-97795000D03*
%TO.P,J3,6,Pin_6*%
%TO.N,Net-(A1-Pad22)*%
X162560000Y-100335000D03*
%TO.P,J3,7,Pin_7*%
%TO.N,Net-(A1-Pad21)*%
X162560000Y-102875000D03*
%TO.P,J3,8,Pin_8*%
%TO.N,Net-(A1-Pad20)*%
X162560000Y-105415000D03*
%TO.P,J3,9,Pin_9*%
%TO.N,Net-(A1-Pad19)*%
X162560000Y-107955000D03*
%TO.P,J3,10,Pin_10*%
%TO.N,Net-(A1-Pad18)*%
X162560000Y-110495000D03*
%TD*%
D10*
%TO.P,J2,1,Pin_1*%
%TO.N,GND*%
X135900000Y-66040000D03*
D11*
%TO.P,J2,2,Pin_2*%
%TO.N,Net-(A1-Pad27)*%
X138440000Y-66040000D03*
%TO.P,J2,3,Pin_3*%
%TO.N,Net-(A1-Pad17)*%
X140980000Y-66040000D03*
%TO.P,J2,4,Pin_4*%
%TO.N,Net-(A1-Pad30)*%
X143520000Y-66040000D03*
%TD*%
D14*
%TO.N,GND*%
X139700000Y-81280000D03*
X157480000Y-81280000D03*
X119380000Y-81280000D03*
X119380000Y-81280000D03*
X139700000Y-81280000D03*
X119380000Y-81280000D03*
X157480000Y-81280000D03*
X119380000Y-86360000D03*
X119380000Y-81280000D03*
X152400000Y-78740000D03*
%TO.N,Net-(A1-Pad5)*%
X163659520Y-83820000D03*
X163659520Y-83820000D03*
X163659520Y-83820000D03*
%TO.N,Net-(A1-Pad6)*%
X182880000Y-91440000D03*
X182880000Y-91440000D03*
%TO.N,Net-(A1-Pad12)*%
X156039520Y-116840000D03*
%TO.N,Net-(A1-Pad13)*%
X165100000Y-111760000D03*
X165100000Y-111760000D03*
%TO.N,Net-(A1-Pad14)*%
X157480000Y-114300000D03*
%TO.N,Net-(A1-Pad15)*%
X162560000Y-119380000D03*
%TO.N,Net-(A1-Pad16)*%
X154940000Y-111760000D03*
X154940000Y-111760000D03*
%TD*%
D15*
%TO.N,GND*%
X139700000Y-81280000D02*
X147320000Y-81280000D01*
X119380000Y-86360000D02*
X119380000Y-81280000D01*
X157480000Y-81280000D02*
X154940000Y-81280000D01*
X154940000Y-81280000D02*
X152400000Y-78740000D01*
%TO.N,Net-(A1-Pad5)*%
X163659520Y-83820000D02*
X156039520Y-76200000D01*
X134620000Y-88900000D02*
X132080000Y-88900000D01*
X134620000Y-76200000D02*
X134620000Y-88900000D01*
X156039520Y-76200000D02*
X134620000Y-76200000D01*
%TO.N,Net-(A1-Pad6)*%
X182880000Y-91440000D02*
X177575489Y-86135489D01*
X160020000Y-73660000D02*
X127000000Y-73660000D01*
X172495489Y-86135489D02*
X160020000Y-73660000D01*
X177575489Y-86135489D02*
X172495489Y-86135489D01*
X127000000Y-73660000D02*
X127000000Y-86360000D01*
X127000000Y-86360000D02*
X132080000Y-91440000D01*
%TO.N,Net-(A1-Pad12)*%
X156039520Y-116840000D02*
X142240000Y-116840000D01*
X142240000Y-116840000D02*
X132080000Y-106680000D01*
%TO.N,Net-(A1-Pad13)*%
X165100000Y-111760000D02*
X165100000Y-132080000D01*
X165100000Y-132080000D02*
X124460000Y-132080000D01*
X119380000Y-127000000D02*
X119380000Y-109220000D01*
X119380000Y-109220000D02*
X132080000Y-109220000D01*
X124460000Y-132080000D02*
X119380000Y-127000000D01*
%TO.N,Net-(A1-Pad14)*%
X157480000Y-116954476D02*
X156494956Y-117939520D01*
X134620000Y-111760000D02*
X132080000Y-111760000D01*
X157480000Y-114300000D02*
X157480000Y-116954476D01*
X156494956Y-117939520D02*
X140799520Y-117939520D01*
X140799520Y-117939520D02*
X134620000Y-111760000D01*
%TO.N,Net-(A1-Pad15)*%
X132080000Y-119380000D02*
X132080000Y-114300000D01*
X162560000Y-119380000D02*
X132080000Y-119380000D01*
%TO.N,Net-(A1-Pad16)*%
X149860000Y-111760000D02*
X147320000Y-114300000D01*
X154940000Y-111760000D02*
X149860000Y-111760000D01*
%TD*%
M02*
