%TF.GenerationSoftware,KiCad,Pcbnew,(6.0.0-0)*%
%TF.CreationDate,2022-01-14T18:13:57-08:00*%
%TF.ProjectId,ArduinoNanoBoard,41726475-696e-46f4-9e61-6e6f426f6172,RedSkull*%
%TF.SameCoordinates,Original*%
%TF.FileFunction,Copper,L1,Top*%
%TF.FilePolarity,Positive*%
%FSLAX46Y46*%
G04 Gerber Fmt 4.6, Leading zero omitted, Abs format (unit mm)*
G04 Created by KiCad (PCBNEW (6.0.0-0)) date 2022-01-14 18:13:57*
%MOMM*%
%LPD*%
G01*
G04 APERTURE LIST*
%TA.AperFunction,ComponentPad*%
%ADD10R,1.700000X1.700000*%
%TD*%
%TA.AperFunction,ComponentPad*%
%ADD11O,1.700000X1.700000*%
%TD*%
%TA.AperFunction,ComponentPad*%
%ADD12R,1.600000X1.600000*%
%TD*%
%TA.AperFunction,ComponentPad*%
%ADD13O,1.600000X1.600000*%
%TD*%
%TA.AperFunction,ViaPad*%
%ADD14C,0.800000*%
%TD*%
%TA.AperFunction,Conductor*%
%ADD15C,0.900000*%
%TD*%
G04 APERTURE END LIST*
D10*
%TO.P,J5,1,Pin_1*%
%TO.N,Net-(A1-Pad27)*%
X175260000Y-93980000D03*
D11*
%TO.P,J5,2,Pin_2*%
%TO.N,GND*%
X177800000Y-93980000D03*
%TO.P,J5,3,Pin_3*%
%TO.N,Net-(A1-Pad5)*%
X180340000Y-93980000D03*
%TO.P,J5,4,Pin_4*%
%TO.N,Net-(A1-Pad6)*%
X182880000Y-93980000D03*
%TD*%
D10*
%TO.P,J4,1,Pin_1*%
%TO.N,Net-(A1-Pad17)*%
X177800000Y-129540000D03*
D11*
%TO.P,J4,2,Pin_2*%
%TO.N,Net-(A1-Pad12)*%
X177800000Y-127000000D03*
%TO.P,J4,3,Pin_3*%
%TO.N,GND*%
X177800000Y-124460000D03*
%TO.P,J4,4,Pin_4*%
%TO.N,unconnected-(J4-Pad4)*%
X177800000Y-121920000D03*
%TO.P,J4,5,Pin_5*%
%TO.N,Net-(A1-Pad15)*%
X177800000Y-119380000D03*
%TO.P,J4,6,Pin_6*%
%TO.N,Net-(A1-Pad14)*%
X177800000Y-116840000D03*
%TO.P,J4,7,Pin_7*%
%TO.N,Net-(A1-Pad16)*%
X177800000Y-114300000D03*
%TO.P,J4,8,Pin_8*%
%TO.N,Net-(A1-Pad13)*%
X177800000Y-111760000D03*
%TD*%
D12*
%TO.P,A1,1,D1/TX*%
%TO.N,Net-(A1-Pad1)*%
X132080000Y-78740000D03*
D13*
%TO.P,A1,2,D0/RX*%
%TO.N,Net-(A1-Pad2)*%
X132080000Y-81280000D03*
%TO.P,A1,3,~{RESET}*%
%TO.N,unconnected-(A1-Pad3)*%
X132080000Y-83820000D03*
%TO.P,A1,4,GND*%
%TO.N,GND*%
X132080000Y-86360000D03*
%TO.P,A1,5,D2*%
%TO.N,Net-(A1-Pad5)*%
X132080000Y-88900000D03*
%TO.P,A1,6,D3*%
%TO.N,Net-(A1-Pad6)*%
X132080000Y-91440000D03*
%TO.P,A1,7,D4*%
%TO.N,Net-(A1-Pad7)*%
X132080000Y-93980000D03*
%TO.P,A1,8,D5*%
%TO.N,Net-(A1-Pad8)*%
X132080000Y-96520000D03*
%TO.P,A1,9,D6*%
%TO.N,Net-(A1-Pad9)*%
X132080000Y-99060000D03*
%TO.P,A1,10,D7*%
%TO.N,Net-(A1-Pad10)*%
X132080000Y-101600000D03*
%TO.P,A1,11,D8*%
%TO.N,Net-(A1-Pad11)*%
X132080000Y-104140000D03*
%TO.P,A1,12,D9*%
%TO.N,Net-(A1-Pad12)*%
X132080000Y-106680000D03*
%TO.P,A1,13,D10*%
%TO.N,Net-(A1-Pad13)*%
X132080000Y-109220000D03*
%TO.P,A1,14,D11*%
%TO.N,Net-(A1-Pad14)*%
X132080000Y-111760000D03*
%TO.P,A1,15,D12*%
%TO.N,Net-(A1-Pad15)*%
X132080000Y-114300000D03*
%TO.P,A1,16,D13*%
%TO.N,Net-(A1-Pad16)*%
X147320000Y-114300000D03*
%TO.P,A1,17,3V3*%
%TO.N,Net-(A1-Pad17)*%
X147320000Y-111760000D03*
%TO.P,A1,18,AREF*%
%TO.N,Net-(A1-Pad18)*%
X147320000Y-109220000D03*
%TO.P,A1,19,A0*%
%TO.N,Net-(A1-Pad19)*%
X147320000Y-106680000D03*
%TO.P,A1,20,A1*%
%TO.N,Net-(A1-Pad20)*%
X147320000Y-104140000D03*
%TO.P,A1,21,A2*%
%TO.N,Net-(A1-Pad21)*%
X147320000Y-101600000D03*
%TO.P,A1,22,A3*%
%TO.N,Net-(A1-Pad22)*%
X147320000Y-99060000D03*
%TO.P,A1,23,A4*%
%TO.N,Net-(A1-Pad23)*%
X147320000Y-96520000D03*
%TO.P,A1,24,A5*%
%TO.N,Net-(A1-Pad24)*%
X147320000Y-93980000D03*
%TO.P,A1,25,A6*%
%TO.N,Net-(A1-Pad25)*%
X147320000Y-91440000D03*
%TO.P,A1,26,A7*%
%TO.N,Net-(A1-Pad26)*%
X147320000Y-88900000D03*
%TO.P,A1,27,+5V*%
%TO.N,Net-(A1-Pad27)*%
X147320000Y-86360000D03*
%TO.P,A1,28,~{RESET}*%
%TO.N,unconnected-(A1-Pad28)*%
X147320000Y-83820000D03*
%TO.P,A1,29,GND*%
%TO.N,GND*%
X147320000Y-81280000D03*
%TO.P,A1,30,VIN*%
%TO.N,Net-(A1-Pad30)*%
X147320000Y-78740000D03*
%TD*%
D10*
%TO.P,J1,1,Pin_1*%
%TO.N,GND*%
X106680000Y-81285000D03*
D11*
%TO.P,J1,2,Pin_2*%
%TO.N,Net-(A1-Pad2)*%
X106680000Y-83825000D03*
%TO.P,J1,3,Pin_3*%
%TO.N,Net-(A1-Pad1)*%
X106680000Y-86365000D03*
%TO.P,J1,4,Pin_4*%
%TO.N,Net-(A1-Pad5)*%
X106680000Y-88905000D03*
%TO.P,J1,5,Pin_5*%
%TO.N,Net-(A1-Pad6)*%
X106680000Y-91445000D03*
%TO.P,J1,6,Pin_6*%
%TO.N,Net-(A1-Pad7)*%
X106680000Y-93985000D03*
%TO.P,J1,7,Pin_7*%
%TO.N,Net-(A1-Pad8)*%
X106680000Y-96525000D03*
%TO.P,J1,8,Pin_8*%
%TO.N,Net-(A1-Pad9)*%
X106680000Y-99065000D03*
%TO.P,J1,9,Pin_9*%
%TO.N,Net-(A1-Pad10)*%
X106680000Y-101605000D03*
%TO.P,J1,10,Pin_10*%
%TO.N,Net-(A1-Pad11)*%
X106680000Y-104145000D03*
%TO.P,J1,11,Pin_11*%
%TO.N,Net-(A1-Pad12)*%
X106680000Y-106685000D03*
%TO.P,J1,12,Pin_12*%
%TO.N,Net-(A1-Pad13)*%
X106680000Y-109225000D03*
%TO.P,J1,13,Pin_13*%
%TO.N,Net-(A1-Pad14)*%
X106680000Y-111765000D03*
%TO.P,J1,14,Pin_14*%
%TO.N,Net-(A1-Pad15)*%
X106680000Y-114305000D03*
%TO.P,J1,15,Pin_15*%
%TO.N,Net-(A1-Pad16)*%
X106680000Y-116845000D03*
%TD*%
D10*
%TO.P,J3,1,Pin_1*%
%TO.N,GND*%
X162560000Y-87635000D03*
D11*
%TO.P,J3,2,Pin_2*%
%TO.N,Net-(A1-Pad26)*%
X162560000Y-90175000D03*
%TO.P,J3,3,Pin_3*%
%TO.N,Net-(A1-Pad25)*%
X162560000Y-92715000D03*
%TO.P,J3,4,Pin_4*%
%TO.N,Net-(A1-Pad24)*%
X162560000Y-95255000D03*
%TO.P,J3,5,Pin_5*%
%TO.N,Net-(A1-Pad23)*%
X162560000Y-97795000D03*
%TO.P,J3,6,Pin_6*%
%TO.N,Net-(A1-Pad22)*%
X162560000Y-100335000D03*
%TO.P,J3,7,Pin_7*%
%TO.N,Net-(A1-Pad21)*%
X162560000Y-102875000D03*
%TO.P,J3,8,Pin_8*%
%TO.N,Net-(A1-Pad20)*%
X162560000Y-105415000D03*
%TO.P,J3,9,Pin_9*%
%TO.N,Net-(A1-Pad19)*%
X162560000Y-107955000D03*
%TO.P,J3,10,Pin_10*%
%TO.N,Net-(A1-Pad18)*%
X162560000Y-110495000D03*
%TD*%
D10*
%TO.P,J2,1,Pin_1*%
%TO.N,GND*%
X135900000Y-66040000D03*
D11*
%TO.P,J2,2,Pin_2*%
%TO.N,Net-(A1-Pad27)*%
X138440000Y-66040000D03*
%TO.P,J2,3,Pin_3*%
%TO.N,Net-(A1-Pad17)*%
X140980000Y-66040000D03*
%TO.P,J2,4,Pin_4*%
%TO.N,Net-(A1-Pad30)*%
X143520000Y-66040000D03*
%TD*%
D14*
%TO.N,GND*%
X139700000Y-81280000D03*
X157480000Y-81280000D03*
X119380000Y-81280000D03*
X119380000Y-81280000D03*
X139700000Y-81280000D03*
X119380000Y-81280000D03*
X157480000Y-81280000D03*
X119380000Y-86360000D03*
X119380000Y-81280000D03*
X152400000Y-78740000D03*
%TO.N,Net-(A1-Pad5)*%
X163659520Y-83820000D03*
X163659520Y-83820000D03*
X163659520Y-83820000D03*
%TO.N,Net-(A1-Pad6)*%
X182880000Y-91440000D03*
X182880000Y-91440000D03*
%TO.N,Net-(A1-Pad12)*%
X156039520Y-116840000D03*
%TO.N,Net-(A1-Pad13)*%
X165100000Y-111760000D03*
X165100000Y-111760000D03*
%TO.N,Net-(A1-Pad14)*%
X157480000Y-114300000D03*
%TO.N,Net-(A1-Pad15)*%
X162560000Y-119380000D03*
%TO.N,Net-(A1-Pad16)*%
X154940000Y-111760000D03*
X154940000Y-111760000D03*
%TD*%
D15*
%TO.N,Net-(A1-Pad1)*%
X99060000Y-83820000D02*
X101600000Y-86360000D01*
X101600000Y-86360000D02*
X104140000Y-86360000D01*
X111760000Y-76200000D02*
X101600000Y-76200000D01*
X104140000Y-86360000D02*
X104145000Y-86365000D01*
X101600000Y-76200000D02*
X99060000Y-78740000D01*
X104145000Y-86365000D02*
X106680000Y-86365000D01*
X132080000Y-78740000D02*
X114300000Y-78740000D01*
X114300000Y-78740000D02*
X111760000Y-76200000D01*
X99060000Y-78740000D02*
X99060000Y-83820000D01*
%TO.N,Net-(A1-Pad17)*%
X154940000Y-114300000D02*
X152400000Y-111760000D01*
X144780000Y-111760000D02*
X147320000Y-111760000D01*
X154940000Y-117825044D02*
X154940000Y-114300000D01*
X177800000Y-129540000D02*
X165100000Y-129540000D01*
X157480000Y-121920000D02*
X157480000Y-120365044D01*
X165100000Y-129540000D02*
X157480000Y-121920000D01*
X140980000Y-107960000D02*
X144780000Y-111760000D01*
X157480000Y-120365044D02*
X154940000Y-117825044D01*
X140980000Y-66040000D02*
X140980000Y-107960000D01*
X152400000Y-111760000D02*
X147320000Y-111760000D01*
%TO.N,Net-(A1-Pad2)*%
X106680000Y-83825000D02*
X126995000Y-83825000D01*
X126995000Y-83825000D02*
X129540000Y-81280000D01*
X129540000Y-81280000D02*
X132080000Y-81280000D01*
%TO.N,Net-(A1-Pad18)*%
X148595000Y-110495000D02*
X147320000Y-109220000D01*
X162560000Y-110495000D02*
X148595000Y-110495000D01*
%TO.N,Net-(A1-Pad19)*%
X148595000Y-107955000D02*
X147320000Y-106680000D01*
X162560000Y-107955000D02*
X148595000Y-107955000D01*
%TO.N,GND*%
X152400000Y-78740000D02*
X149860000Y-81280000D01*
X176462081Y-91440000D02*
X165100000Y-91440000D01*
X162560000Y-87635000D02*
X162560000Y-81280000D01*
X165100000Y-109220000D02*
X165100000Y-88900000D01*
X119380000Y-81280000D02*
X119375000Y-81285000D01*
X163835000Y-87635000D02*
X162560000Y-87635000D01*
X162560000Y-81280000D02*
X157480000Y-81280000D01*
X135900000Y-69860000D02*
X137160000Y-71120000D01*
X135900000Y-66040000D02*
X135900000Y-69860000D01*
X177800000Y-92777919D02*
X176462081Y-91440000D01*
X182880000Y-109220000D02*
X165100000Y-109220000D01*
X165100000Y-88900000D02*
X163835000Y-87635000D01*
X132080000Y-86360000D02*
X137160000Y-81280000D01*
X119375000Y-81285000D02*
X106680000Y-81285000D01*
X177800000Y-93980000D02*
X177800000Y-92777919D01*
X137160000Y-81280000D02*
X139700000Y-81280000D01*
X177800000Y-124460000D02*
X182880000Y-124460000D01*
X149860000Y-81280000D02*
X147320000Y-81280000D01*
X182880000Y-124460000D02*
X182880000Y-109220000D01*
X132080000Y-86360000D02*
X119380000Y-86360000D01*
X137160000Y-71120000D02*
X137160000Y-81280000D01*
%TO.N,Net-(A1-Pad20)*%
X162560000Y-105415000D02*
X148595000Y-105415000D01*
X148595000Y-105415000D02*
X147320000Y-104140000D01*
%TO.N,Net-(A1-Pad5)*%
X165100000Y-86360000D02*
X165100000Y-83820000D01*
X167640000Y-90340480D02*
X167640000Y-88900000D01*
X180340000Y-89999520D02*
X179999040Y-90340480D01*
X165100000Y-83820000D02*
X163659520Y-83820000D01*
X106680000Y-88905000D02*
X132075000Y-88905000D01*
X179999040Y-90340480D02*
X167640000Y-90340480D01*
X180340000Y-93980000D02*
X180340000Y-89999520D01*
X132075000Y-88905000D02*
X132080000Y-88900000D01*
X167640000Y-88900000D02*
X165100000Y-86360000D01*
%TO.N,Net-(A1-Pad21)*%
X162560000Y-102875000D02*
X148595000Y-102875000D01*
X148595000Y-102875000D02*
X147320000Y-101600000D01*
%TO.N,Net-(A1-Pad6)*%
X182880000Y-93980000D02*
X182880000Y-91440000D01*
X106680000Y-91445000D02*
X132075000Y-91445000D01*
X132075000Y-91445000D02*
X132080000Y-91440000D01*
%TO.N,Net-(A1-Pad22)*%
X148595000Y-100335000D02*
X147320000Y-99060000D01*
X162560000Y-100335000D02*
X148595000Y-100335000D01*
%TO.N,Net-(A1-Pad7)*%
X106680000Y-93985000D02*
X132075000Y-93985000D01*
X132075000Y-93985000D02*
X132080000Y-93980000D01*
%TO.N,Net-(A1-Pad23)*%
X148595000Y-97795000D02*
X147320000Y-96520000D01*
X162560000Y-97795000D02*
X148595000Y-97795000D01*
%TO.N,Net-(A1-Pad8)*%
X132075000Y-96525000D02*
X132080000Y-96520000D01*
X106680000Y-96525000D02*
X132075000Y-96525000D01*
%TO.N,Net-(A1-Pad24)*%
X148595000Y-95255000D02*
X147320000Y-93980000D01*
X162560000Y-95255000D02*
X148595000Y-95255000D01*
%TO.N,Net-(A1-Pad9)*%
X106680000Y-99065000D02*
X132075000Y-99065000D01*
X132075000Y-99065000D02*
X132080000Y-99060000D01*
%TO.N,Net-(A1-Pad25)*%
X162560000Y-92715000D02*
X148595000Y-92715000D01*
X148595000Y-92715000D02*
X147320000Y-91440000D01*
%TO.N,Net-(A1-Pad10)*%
X106680000Y-101605000D02*
X132075000Y-101605000D01*
X132075000Y-101605000D02*
X132080000Y-101600000D01*
%TO.N,Net-(A1-Pad26)*%
X148595000Y-90175000D02*
X147320000Y-88900000D01*
X162560000Y-90175000D02*
X148595000Y-90175000D01*
%TO.N,Net-(A1-Pad11)*%
X132075000Y-104145000D02*
X132080000Y-104140000D01*
X106680000Y-104145000D02*
X132075000Y-104145000D01*
%TO.N,Net-(A1-Pad27)*%
X175260000Y-96520000D02*
X185420000Y-96520000D01*
X175260000Y-93980000D02*
X175260000Y-96520000D01*
X185420000Y-88900000D02*
X172720000Y-88900000D01*
X139700000Y-60960000D02*
X152400000Y-60960000D01*
X138440000Y-66040000D02*
X138440000Y-62220000D01*
X185420000Y-96520000D02*
X185420000Y-88900000D01*
X157480000Y-76200000D02*
X147320000Y-86360000D01*
X157480000Y-66040000D02*
X157480000Y-76200000D01*
X152400000Y-60960000D02*
X157480000Y-66040000D01*
X172720000Y-88900000D02*
X160020000Y-76200000D01*
X160020000Y-76200000D02*
X157480000Y-76200000D01*
X138440000Y-62220000D02*
X139700000Y-60960000D01*
%TO.N,Net-(A1-Pad12)*%
X106680000Y-106685000D02*
X132075000Y-106685000D01*
X157480000Y-116840000D02*
X156039520Y-116840000D01*
X160020000Y-119380000D02*
X157480000Y-116840000D01*
X132075000Y-106685000D02*
X132080000Y-106680000D01*
X165100000Y-127000000D02*
X160020000Y-121920000D01*
X177800000Y-127000000D02*
X165100000Y-127000000D01*
X160020000Y-121920000D02*
X160020000Y-119380000D01*
%TO.N,Net-(A1-Pad13)*%
X106680000Y-109225000D02*
X132075000Y-109225000D01*
X132075000Y-109225000D02*
X132080000Y-109220000D01*
X177800000Y-111760000D02*
X165100000Y-111760000D01*
%TO.N,Net-(A1-Pad14)*%
X177800000Y-116840000D02*
X160020000Y-116840000D01*
X106680000Y-111765000D02*
X132075000Y-111765000D01*
X132075000Y-111765000D02*
X132080000Y-111760000D01*
X160020000Y-116840000D02*
X157480000Y-114300000D01*
%TO.N,Net-(A1-Pad30)*%
X152400000Y-73660000D02*
X147320000Y-78740000D01*
X144780000Y-66040000D02*
X152400000Y-73660000D01*
X143520000Y-66040000D02*
X144780000Y-66040000D01*
%TO.N,Net-(A1-Pad15)*%
X106680000Y-114305000D02*
X132075000Y-114305000D01*
X132075000Y-114305000D02*
X132080000Y-114300000D01*
X177800000Y-119380000D02*
X162560000Y-119380000D01*
%TO.N,Net-(A1-Pad16)*%
X152400000Y-116840000D02*
X149860000Y-114300000D01*
X152400000Y-121920000D02*
X152400000Y-116840000D01*
X176700480Y-113200480D02*
X156380480Y-113200480D01*
X177800000Y-114300000D02*
X176700480Y-113200480D01*
X156380480Y-113200480D02*
X154940000Y-111760000D01*
X114295000Y-124460000D02*
X149860000Y-124460000D01*
X149860000Y-114300000D02*
X147320000Y-114300000D01*
X106680000Y-116845000D02*
X114295000Y-124460000D01*
X149860000Y-124460000D02*
X152400000Y-121920000D01*
%TD*%
%TA.AperFunction,Conductor*%
%TO.N,GND*%
G36*
X185225511Y-56408002D02*
G01*
X185246485Y-56424905D01*
X202655095Y-73833515D01*
X202689121Y-73895827D01*
X202692000Y-73922610D01*
X202692000Y-136526000D01*
X202671998Y-136594121D01*
X202618342Y-136640614D01*
X202566000Y-136652000D01*
X86622610Y-136652000D01*
X86554489Y-136631998D01*
X86533515Y-136615095D01*
X81824905Y-131906485D01*
X81790879Y-131844173D01*
X81788000Y-131817390D01*
X81788000Y-78763539D01*
X98096845Y-78763539D01*
X98097645Y-78769871D01*
X98100506Y-78792519D01*
X98101500Y-78808311D01*
X98101500Y-83804451D01*
X98101451Y-83807969D01*
X98099979Y-83860683D01*
X98099144Y-83890561D01*
X98100253Y-83896850D01*
X98109146Y-83947287D01*
X98110415Y-83956432D01*
X98116235Y-84013727D01*
X98124380Y-84039717D01*
X98128230Y-84055512D01*
X98132958Y-84082327D01*
X98135308Y-84088262D01*
X98135309Y-84088266D01*
X98154159Y-84135875D01*
X98157236Y-84144562D01*
X98174465Y-84199541D01*
X98177558Y-84205120D01*
X98187670Y-84223363D01*
X98194620Y-84238066D01*
X98202289Y-84257437D01*
X98202291Y-84257442D01*
X98204641Y-84263376D01*
X98208140Y-84268723D01*
X98236174Y-84311563D01*
X98240942Y-84319467D01*
X98268870Y-84369850D01*
X98273021Y-84374693D01*
X98286591Y-84390526D01*
X98296352Y-84403527D01*
X98306606Y-84419195D01*
X98311264Y-84426314D01*
X98315547Y-84431071D01*
X98352682Y-84468206D01*
X98359255Y-84475304D01*
X98395591Y-84517698D01*
X98400628Y-84521605D01*
X98400630Y-84521607D01*
X98418679Y-84535607D01*
X98430547Y-84546071D01*
X100911207Y-87026730D01*
X100913661Y-87029252D01*
X100970466Y-87089322D01*
X100975692Y-87092981D01*
X101017660Y-87122368D01*
X101025024Y-87127938D01*
X101069643Y-87164328D01*
X101075300Y-87167285D01*
X101075301Y-87167286D01*
X101093770Y-87176941D01*
X101107668Y-87185391D01*
X101129975Y-87201011D01*
X101145837Y-87207875D01*
X101182828Y-87223883D01*
X101191162Y-87227858D01*
X101242208Y-87254544D01*
X101268394Y-87262052D01*
X101283688Y-87267528D01*
X101308684Y-87278345D01*
X101314929Y-87279650D01*
X101314930Y-87279650D01*
X101365065Y-87290124D01*
X101374015Y-87292339D01*
X101429389Y-87308216D01*
X101456544Y-87310305D01*
X101472633Y-87312595D01*
X101499293Y-87318165D01*
X101505685Y-87318500D01*
X101558197Y-87318500D01*
X101567864Y-87318871D01*
X101617179Y-87322666D01*
X101617183Y-87322666D01*
X101623539Y-87323155D01*
X101652520Y-87319494D01*
X101668311Y-87318500D01*
X104008943Y-87318500D01*
X104034710Y-87321163D01*
X104044293Y-87323165D01*
X104050685Y-87323500D01*
X104103197Y-87323500D01*
X104112864Y-87323871D01*
X104162179Y-87327666D01*
X104162183Y-87327666D01*
X104168539Y-87328155D01*
X104197520Y-87324494D01*
X104213311Y-87323500D01*
X105662168Y-87323500D01*
X105730289Y-87343502D01*
X105742653Y-87352556D01*
X105898126Y-87481632D01*
X105929301Y-87499849D01*
X105971445Y-87524476D01*
X106020169Y-87576114D01*
X106033240Y-87645897D01*
X106006509Y-87711669D01*
X105966055Y-87745027D01*
X105953607Y-87751507D01*
X105949474Y-87754610D01*
X105949471Y-87754612D01*
X105925247Y-87772800D01*
X105774965Y-87885635D01*
X105620629Y-88047138D01*
X105494743Y-88231680D01*
X105489372Y-88243251D01*
X105416368Y-88400526D01*
X105400688Y-88434305D01*
X105340989Y-88649570D01*
X105317251Y-88871695D01*
X105317548Y-88876848D01*
X105317548Y-88876851D01*
X105319576Y-88912016D01*
X105330110Y-89094715D01*
X105331247Y-89099761D01*
X105331248Y-89099767D01*
X105342810Y-89151070D01*
X105379222Y-89312639D01*
X105463266Y-89519616D01*
X105579987Y-89710088D01*
X105726250Y-89878938D01*
X105898126Y-90021632D01*
X105956606Y-90055805D01*
X105971445Y-90064476D01*
X106020169Y-90116114D01*
X106033240Y-90185897D01*
X106006509Y-90251669D01*
X105966055Y-90285027D01*
X105953607Y-90291507D01*
X105949474Y-90294610D01*
X105949471Y-90294612D01*
X105779100Y-90422530D01*
X105774965Y-90425635D01*
X105620629Y-90587138D01*
X105494743Y-90771680D01*
X105489372Y-90783251D01*
X105434766Y-90900891D01*
X105400688Y-90974305D01*
X105340989Y-91189570D01*
X105317251Y-91411695D01*
X105317548Y-91416848D01*
X105317548Y-91416851D01*
X105319941Y-91458357D01*
X105330110Y-91634715D01*
X105331247Y-91639761D01*
X105331248Y-91639767D01*
X105353048Y-91736498D01*
X105379222Y-91852639D01*
X105463266Y-92059616D01*
X105579987Y-92250088D01*
X105726250Y-92418938D01*
X105898126Y-92561632D01*
X105929301Y-92579849D01*
X105971445Y-92604476D01*
X106020169Y-92656114D01*
X106033240Y-92725897D01*
X106006509Y-92791669D01*
X105966055Y-92825027D01*
X105953607Y-92831507D01*
X105949474Y-92834610D01*
X105949471Y-92834612D01*
X105873433Y-92891703D01*
X105774965Y-92965635D01*
X105620629Y-93127138D01*
X105617715Y-93131410D01*
X105617714Y-93131411D01*
X105562838Y-93211857D01*
X105494743Y-93311680D01*
X105400688Y-93514305D01*
X105340989Y-93729570D01*
X105317251Y-93951695D01*
X105317548Y-93956848D01*
X105317548Y-93956851D01*
X105323592Y-94061669D01*
X105330110Y-94174715D01*
X105331247Y-94179761D01*
X105331248Y-94179767D01*
X105353048Y-94276498D01*
X105379222Y-94392639D01*
X105463266Y-94599616D01*
X105510955Y-94677438D01*
X105574227Y-94780688D01*
X105579987Y-94790088D01*
X105726250Y-94958938D01*
X105801213Y-95021173D01*
X105888123Y-95093327D01*
X105898126Y-95101632D01*
X105929301Y-95119849D01*
X105971445Y-95144476D01*
X106020169Y-95196114D01*
X106033240Y-95265897D01*
X106006509Y-95331669D01*
X105966055Y-95365027D01*
X105953607Y-95371507D01*
X105949474Y-95374610D01*
X105949471Y-95374612D01*
X105798663Y-95487842D01*
X105774965Y-95505635D01*
X105620629Y-95667138D01*
X105494743Y-95851680D01*
X105400688Y-96054305D01*
X105340989Y-96269570D01*
X105317251Y-96491695D01*
X105317548Y-96496848D01*
X105317548Y-96496851D01*
X105326788Y-96657104D01*
X105330110Y-96714715D01*
X105331247Y-96719761D01*
X105331248Y-96719767D01*
X105351880Y-96811316D01*
X105379222Y-96932639D01*
X105416654Y-97024823D01*
X105443719Y-97091476D01*
X105463266Y-97139616D01*
X105514942Y-97223944D01*
X105568370Y-97311130D01*
X105579987Y-97330088D01*
X105726250Y-97498938D01*
X105898126Y-97641632D01*
X105929301Y-97659849D01*
X105971445Y-97684476D01*
X106020169Y-97736114D01*
X106033240Y-97805897D01*
X106006509Y-97871669D01*
X105966055Y-97905027D01*
X105953607Y-97911507D01*
X105949474Y-97914610D01*
X105949471Y-97914612D01*
X105925247Y-97932800D01*
X105774965Y-98045635D01*
X105620629Y-98207138D01*
X105494743Y-98391680D01*
X105400688Y-98594305D01*
X105340989Y-98809570D01*
X105317251Y-99031695D01*
X105317548Y-99036848D01*
X105317548Y-99036851D01*
X105319941Y-99078357D01*
X105330110Y-99254715D01*
X105331247Y-99259761D01*
X105331248Y-99259767D01*
X105353048Y-99356498D01*
X105379222Y-99472639D01*
X105463266Y-99679616D01*
X105579987Y-99870088D01*
X105726250Y-100038938D01*
X105898126Y-100181632D01*
X105929301Y-100199849D01*
X105971445Y-100224476D01*
X106020169Y-100276114D01*
X106033240Y-100345897D01*
X106006509Y-100411669D01*
X105966055Y-100445027D01*
X105953607Y-100451507D01*
X105949474Y-100454610D01*
X105949471Y-100454612D01*
X105925247Y-100472800D01*
X105774965Y-100585635D01*
X105620629Y-100747138D01*
X105494743Y-100931680D01*
X105400688Y-101134305D01*
X105340989Y-101349570D01*
X105317251Y-101571695D01*
X105317548Y-101576848D01*
X105317548Y-101576851D01*
X105319941Y-101618357D01*
X105330110Y-101794715D01*
X105331247Y-101799761D01*
X105331248Y-101799767D01*
X105353048Y-101896498D01*
X105379222Y-102012639D01*
X105463266Y-102219616D01*
X105579987Y-102410088D01*
X105726250Y-102578938D01*
X105898126Y-102721632D01*
X105929301Y-102739849D01*
X105971445Y-102764476D01*
X106020169Y-102816114D01*
X106033240Y-102885897D01*
X106006509Y-102951669D01*
X105966055Y-102985027D01*
X105953607Y-102991507D01*
X105949474Y-102994610D01*
X105949471Y-102994612D01*
X105925247Y-103012800D01*
X105774965Y-103125635D01*
X105620629Y-103287138D01*
X105494743Y-103471680D01*
X105400688Y-103674305D01*
X105340989Y-103889570D01*
X105317251Y-104111695D01*
X105317548Y-104116848D01*
X105317548Y-104116851D01*
X105319941Y-104158357D01*
X105330110Y-104334715D01*
X105331247Y-104339761D01*
X105331248Y-104339767D01*
X105353048Y-104436498D01*
X105379222Y-104552639D01*
X105463266Y-104759616D01*
X105579987Y-104950088D01*
X105726250Y-105118938D01*
X105898126Y-105261632D01*
X105929301Y-105279849D01*
X105971445Y-105304476D01*
X106020169Y-105356114D01*
X106033240Y-105425897D01*
X106006509Y-105491669D01*
X105966055Y-105525027D01*
X105953607Y-105531507D01*
X105949474Y-105534610D01*
X105949471Y-105534612D01*
X105925247Y-105552800D01*
X105774965Y-105665635D01*
X105620629Y-105827138D01*
X105494743Y-106011680D01*
X105400688Y-106214305D01*
X105340989Y-106429570D01*
X105317251Y-106651695D01*
X105317548Y-106656848D01*
X105317548Y-106656851D01*
X105319941Y-106698357D01*
X105330110Y-106874715D01*
X105331247Y-106879761D01*
X105331248Y-106879767D01*
X105353048Y-106976498D01*
X105379222Y-107092639D01*
X105463266Y-107299616D01*
X105579987Y-107490088D01*
X105726250Y-107658938D01*
X105898126Y-107801632D01*
X105929301Y-107819849D01*
X105971445Y-107844476D01*
X106020169Y-107896114D01*
X106033240Y-107965897D01*
X106006509Y-108031669D01*
X105966055Y-108065027D01*
X105953607Y-108071507D01*
X105949474Y-108074610D01*
X105949471Y-108074612D01*
X105779100Y-108202530D01*
X105774965Y-108205635D01*
X105620629Y-108367138D01*
X105494743Y-108551680D01*
X105400688Y-108754305D01*
X105340989Y-108969570D01*
X105317251Y-109191695D01*
X105317548Y-109196848D01*
X105317548Y-109196851D01*
X105319941Y-109238357D01*
X105330110Y-109414715D01*
X105331247Y-109419761D01*
X105331248Y-109419767D01*
X105353048Y-109516498D01*
X105379222Y-109632639D01*
X105463266Y-109839616D01*
X105579987Y-110030088D01*
X105726250Y-110198938D01*
X105898126Y-110341632D01*
X105929301Y-110359849D01*
X105971445Y-110384476D01*
X106020169Y-110436114D01*
X106033240Y-110505897D01*
X106006509Y-110571669D01*
X105966055Y-110605027D01*
X105953607Y-110611507D01*
X105949474Y-110614610D01*
X105949471Y-110614612D01*
X105781624Y-110740635D01*
X105774965Y-110745635D01*
X105620629Y-110907138D01*
X105494743Y-111091680D01*
X105447973Y-111192438D01*
X105418850Y-111255179D01*
X105400688Y-111294305D01*
X105340989Y-111509570D01*
X105317251Y-111731695D01*
X105317548Y-111736848D01*
X105317548Y-111736851D01*
X105324424Y-111856097D01*
X105330110Y-111954715D01*
X105331247Y-111959761D01*
X105331248Y-111959767D01*
X105352265Y-112053023D01*
X105379222Y-112172639D01*
X105463266Y-112379616D01*
X105492927Y-112428019D01*
X105550738Y-112522357D01*
X105579987Y-112570088D01*
X105726250Y-112738938D01*
X105898126Y-112881632D01*
X105929301Y-112899849D01*
X105971445Y-112924476D01*
X106020169Y-112976114D01*
X106033240Y-113045897D01*
X106006509Y-113111669D01*
X105966055Y-113145027D01*
X105953607Y-113151507D01*
X105949474Y-113154610D01*
X105949471Y-113154612D01*
X105925247Y-113172800D01*
X105774965Y-113285635D01*
X105735915Y-113326498D01*
X105634960Y-113432142D01*
X105620629Y-113447138D01*
X105617715Y-113451410D01*
X105617714Y-113451411D01*
X105598701Y-113479283D01*
X105494743Y-113631680D01*
X105400688Y-113834305D01*
X105340989Y-114049570D01*
X105317251Y-114271695D01*
X105317548Y-114276848D01*
X105317548Y-114276851D01*
X105322914Y-114369908D01*
X105330110Y-114494715D01*
X105331247Y-114499761D01*
X105331248Y-114499767D01*
X105352265Y-114593023D01*
X105379222Y-114712639D01*
X105413419Y-114796857D01*
X105457865Y-114906314D01*
X105463266Y-114919616D01*
X105579987Y-115110088D01*
X105726250Y-115278938D01*
X105801213Y-115341173D01*
X105888123Y-115413327D01*
X105898126Y-115421632D01*
X105929301Y-115439849D01*
X105971445Y-115464476D01*
X106020169Y-115516114D01*
X106033240Y-115585897D01*
X106006509Y-115651669D01*
X105966055Y-115685027D01*
X105953607Y-115691507D01*
X105949474Y-115694610D01*
X105949471Y-115694612D01*
X105781624Y-115820635D01*
X105774965Y-115825635D01*
X105620629Y-115987138D01*
X105494743Y-116171680D01*
X105479003Y-116205590D01*
X105416368Y-116340526D01*
X105400688Y-116374305D01*
X105340989Y-116589570D01*
X105317251Y-116811695D01*
X105317548Y-116816848D01*
X105317548Y-116816851D01*
X105322914Y-116909908D01*
X105330110Y-117034715D01*
X105331247Y-117039761D01*
X105331248Y-117039767D01*
X105352265Y-117133023D01*
X105379222Y-117252639D01*
X105463266Y-117459616D01*
X105579987Y-117650088D01*
X105726250Y-117818938D01*
X105801213Y-117881173D01*
X105892399Y-117956877D01*
X105898126Y-117961632D01*
X106091000Y-118074338D01*
X106095825Y-118076180D01*
X106095826Y-118076181D01*
X106163232Y-118101921D01*
X106299692Y-118154030D01*
X106304760Y-118155061D01*
X106304763Y-118155062D01*
X106412379Y-118176957D01*
X106518597Y-118198567D01*
X106523770Y-118198757D01*
X106523773Y-118198757D01*
X106634640Y-118202822D01*
X106701982Y-118225306D01*
X106719118Y-118239642D01*
X113606224Y-125126748D01*
X113608678Y-125129270D01*
X113665466Y-125189322D01*
X113712672Y-125222376D01*
X113719998Y-125227916D01*
X113764643Y-125264328D01*
X113770300Y-125267285D01*
X113770301Y-125267286D01*
X113788770Y-125276941D01*
X113802668Y-125285391D01*
X113824975Y-125301011D01*
X113830831Y-125303545D01*
X113877828Y-125323883D01*
X113886162Y-125327858D01*
X113907408Y-125338965D01*
X113937208Y-125354544D01*
X113963394Y-125362052D01*
X113978688Y-125367528D01*
X114003684Y-125378345D01*
X114009929Y-125379650D01*
X114009930Y-125379650D01*
X114060065Y-125390124D01*
X114069015Y-125392339D01*
X114124389Y-125408216D01*
X114151544Y-125410305D01*
X114167633Y-125412595D01*
X114194293Y-125418165D01*
X114200685Y-125418500D01*
X114253197Y-125418500D01*
X114262864Y-125418871D01*
X114312179Y-125422666D01*
X114312183Y-125422666D01*
X114318539Y-125423155D01*
X114347520Y-125419494D01*
X114363311Y-125418500D01*
X149844451Y-125418500D01*
X149847969Y-125418549D01*
X149924179Y-125420678D01*
X149924182Y-125420678D01*
X149930561Y-125420856D01*
X149945822Y-125418165D01*
X149987287Y-125410854D01*
X149996432Y-125409585D01*
X150009908Y-125408216D01*
X150053727Y-125403765D01*
X150079717Y-125395620D01*
X150095512Y-125391770D01*
X150116040Y-125388151D01*
X150116044Y-125388150D01*
X150122327Y-125387042D01*
X150128262Y-125384692D01*
X150128266Y-125384691D01*
X150175875Y-125365841D01*
X150184562Y-125362764D01*
X150239541Y-125345535D01*
X150263364Y-125332330D01*
X150278066Y-125325380D01*
X150297437Y-125317711D01*
X150297442Y-125317709D01*
X150303376Y-125315359D01*
X150351566Y-125283824D01*
X150359470Y-125279056D01*
X150404270Y-125254223D01*
X150409850Y-125251130D01*
X150414983Y-125246730D01*
X150430526Y-125233409D01*
X150443527Y-125223648D01*
X150462261Y-125211388D01*
X150466314Y-125208736D01*
X150471071Y-125204453D01*
X150508206Y-125167318D01*
X150515304Y-125160745D01*
X150519460Y-125157183D01*
X150557698Y-125124409D01*
X150575607Y-125101321D01*
X150586071Y-125089453D01*
X153066730Y-122608793D01*
X153069252Y-122606339D01*
X153124688Y-122553916D01*
X153129322Y-122549534D01*
X153162368Y-122502340D01*
X153167938Y-122494976D01*
X153192981Y-122464270D01*
X153204328Y-122450357D01*
X153216941Y-122426230D01*
X153225391Y-122412332D01*
X153237350Y-122395253D01*
X153241011Y-122390025D01*
X153263883Y-122337172D01*
X153267858Y-122328838D01*
X153283174Y-122299541D01*
X153294544Y-122277792D01*
X153302052Y-122251606D01*
X153307528Y-122236312D01*
X153318345Y-122211316D01*
X153330124Y-122154935D01*
X153332341Y-122145975D01*
X153339843Y-122119811D01*
X153348216Y-122090611D01*
X153350305Y-122063456D01*
X153352595Y-122047367D01*
X153358165Y-122020707D01*
X153358500Y-122014315D01*
X153358500Y-121961803D01*
X153358871Y-121952136D01*
X153362666Y-121902821D01*
X153362666Y-121902817D01*
X153363155Y-121896461D01*
X153359494Y-121867480D01*
X153358500Y-121851689D01*
X153358500Y-116855527D01*
X153358549Y-116852008D01*
X153360678Y-116775821D01*
X153360678Y-116775818D01*
X153360856Y-116769439D01*
X153350854Y-116712713D01*
X153349585Y-116703568D01*
X153348387Y-116691780D01*
X153343765Y-116646273D01*
X153335620Y-116620283D01*
X153331770Y-116604488D01*
X153328151Y-116583960D01*
X153328150Y-116583956D01*
X153327042Y-116577673D01*
X153305839Y-116524120D01*
X153302758Y-116515418D01*
X153287444Y-116466549D01*
X153287442Y-116466545D01*
X153285535Y-116460459D01*
X153282444Y-116454883D01*
X153282442Y-116454878D01*
X153272329Y-116436634D01*
X153265381Y-116421935D01*
X153258961Y-116405720D01*
X153255359Y-116396623D01*
X153251862Y-116391280D01*
X153251860Y-116391275D01*
X153223824Y-116348433D01*
X153219054Y-116340526D01*
X153194223Y-116295730D01*
X153191130Y-116290150D01*
X153186983Y-116285311D01*
X153186979Y-116285306D01*
X153173410Y-116269476D01*
X153163644Y-116256469D01*
X153151385Y-116237734D01*
X153151382Y-116237730D01*
X153148735Y-116233685D01*
X153144452Y-116228929D01*
X153107324Y-116191801D01*
X153100751Y-116184703D01*
X153068568Y-116147154D01*
X153068566Y-116147152D01*
X153064409Y-116142302D01*
X153041314Y-116124387D01*
X153029452Y-116113929D01*
X150548776Y-113633252D01*
X150546322Y-113630730D01*
X150493916Y-113575312D01*
X150489534Y-113570678D01*
X150442328Y-113537624D01*
X150435002Y-113532084D01*
X150390357Y-113495672D01*
X150366230Y-113483059D01*
X150352332Y-113474609D01*
X150335253Y-113462650D01*
X150330025Y-113458989D01*
X150294004Y-113443401D01*
X150277172Y-113436117D01*
X150268838Y-113432142D01*
X150223444Y-113408411D01*
X150217792Y-113405456D01*
X150191606Y-113397948D01*
X150176312Y-113392472D01*
X150151316Y-113381655D01*
X150145071Y-113380350D01*
X150145070Y-113380350D01*
X150094935Y-113369876D01*
X150085985Y-113367661D01*
X150030611Y-113351784D01*
X150003456Y-113349695D01*
X149987367Y-113347405D01*
X149960707Y-113341835D01*
X149954315Y-113341500D01*
X149901803Y-113341500D01*
X149892136Y-113341129D01*
X149842821Y-113337334D01*
X149842817Y-113337334D01*
X149836461Y-113336845D01*
X149807481Y-113340506D01*
X149791689Y-113341500D01*
X148264188Y-113341500D01*
X148196067Y-113321498D01*
X148175093Y-113304595D01*
X148164300Y-113293802D01*
X148159792Y-113290645D01*
X148159789Y-113290643D01*
X148081611Y-113235902D01*
X147976749Y-113162477D01*
X147971767Y-113160154D01*
X147971762Y-113160151D01*
X147937543Y-113144195D01*
X147884258Y-113097278D01*
X147864797Y-113029001D01*
X147885339Y-112961041D01*
X147937543Y-112915805D01*
X147971762Y-112899849D01*
X147971767Y-112899846D01*
X147976749Y-112897523D01*
X148081611Y-112824098D01*
X148159789Y-112769357D01*
X148159792Y-112769355D01*
X148164300Y-112766198D01*
X148175093Y-112755405D01*
X148237405Y-112721379D01*
X148264188Y-112718500D01*
X151950786Y-112718500D01*
X152018907Y-112738502D01*
X152039881Y-112755405D01*
X153944595Y-114660118D01*
X153978620Y-114722430D01*
X153981500Y-114749213D01*
X153981500Y-117809495D01*
X153981451Y-117813013D01*
X153980826Y-117835405D01*
X153979144Y-117895605D01*
X153980253Y-117901894D01*
X153989146Y-117952331D01*
X153990415Y-117961476D01*
X153996235Y-118018771D01*
X154004380Y-118044761D01*
X154008230Y-118060556D01*
X154012958Y-118087371D01*
X154015308Y-118093306D01*
X154015309Y-118093310D01*
X154034159Y-118140919D01*
X154037236Y-118149606D01*
X154054465Y-118204585D01*
X154065951Y-118225306D01*
X154067670Y-118228407D01*
X154074620Y-118243110D01*
X154082289Y-118262481D01*
X154082291Y-118262486D01*
X154084641Y-118268420D01*
X154088140Y-118273767D01*
X154116174Y-118316607D01*
X154120942Y-118324511D01*
X154148870Y-118374894D01*
X154153021Y-118379737D01*
X154166591Y-118395570D01*
X154176352Y-118408571D01*
X154186606Y-118424239D01*
X154191264Y-118431358D01*
X154195547Y-118436115D01*
X154232682Y-118473250D01*
X154239255Y-118480348D01*
X154275591Y-118522742D01*
X154280628Y-118526649D01*
X154280630Y-118526651D01*
X154298679Y-118540651D01*
X154310547Y-118551115D01*
X155408870Y-119649437D01*
X156484595Y-120725162D01*
X156518620Y-120787474D01*
X156521500Y-120814257D01*
X156521500Y-121904451D01*
X156521451Y-121907969D01*
X156520083Y-121956958D01*
X156519144Y-121990561D01*
X156520253Y-121996850D01*
X156529146Y-122047287D01*
X156530415Y-122056432D01*
X156536235Y-122113727D01*
X156544380Y-122139717D01*
X156548230Y-122155512D01*
X156552958Y-122182327D01*
X156555308Y-122188262D01*
X156555309Y-122188266D01*
X156574159Y-122235875D01*
X156577236Y-122244562D01*
X156594465Y-122299541D01*
X156597558Y-122305120D01*
X156607670Y-122323363D01*
X156614620Y-122338066D01*
X156622289Y-122357437D01*
X156622291Y-122357442D01*
X156624641Y-122363376D01*
X156628140Y-122368723D01*
X156656174Y-122411563D01*
X156660942Y-122419467D01*
X156688870Y-122469850D01*
X156693021Y-122474693D01*
X156706591Y-122490526D01*
X156716352Y-122503527D01*
X156726606Y-122519195D01*
X156731264Y-122526314D01*
X156735547Y-122531071D01*
X156772682Y-122568206D01*
X156779255Y-122575304D01*
X156815591Y-122617698D01*
X156820628Y-122621605D01*
X156820630Y-122621607D01*
X156838679Y-122635607D01*
X156850547Y-122646071D01*
X164411224Y-130206748D01*
X164413678Y-130209270D01*
X164470466Y-130269322D01*
X164517672Y-130302376D01*
X164524998Y-130307916D01*
X164569643Y-130344328D01*
X164575300Y-130347285D01*
X164575301Y-130347286D01*
X164593770Y-130356941D01*
X164607668Y-130365391D01*
X164629975Y-130381011D01*
X164635831Y-130383545D01*
X164682828Y-130403883D01*
X164691162Y-130407858D01*
X164742208Y-130434544D01*
X164768394Y-130442052D01*
X164783688Y-130447528D01*
X164808684Y-130458345D01*
X164814929Y-130459650D01*
X164814930Y-130459650D01*
X164865065Y-130470124D01*
X164874015Y-130472339D01*
X164929389Y-130488216D01*
X164956544Y-130490305D01*
X164972633Y-130492595D01*
X164999293Y-130498165D01*
X165005685Y-130498500D01*
X165058197Y-130498500D01*
X165067864Y-130498871D01*
X165117179Y-130502666D01*
X165117183Y-130502666D01*
X165123539Y-130503155D01*
X165152520Y-130499494D01*
X165168311Y-130498500D01*
X176360246Y-130498500D01*
X176428367Y-130518502D01*
X176474860Y-130572158D01*
X176478228Y-130580270D01*
X176499385Y-130636705D01*
X176586739Y-130753261D01*
X176703295Y-130840615D01*
X176839684Y-130891745D01*
X176901866Y-130898500D01*
X178698134Y-130898500D01*
X178760316Y-130891745D01*
X178896705Y-130840615D01*
X179013261Y-130753261D01*
X179100615Y-130636705D01*
X179151745Y-130500316D01*
X179158500Y-130438134D01*
X179158500Y-128641866D01*
X179151745Y-128579684D01*
X179100615Y-128443295D01*
X179013261Y-128326739D01*
X178896705Y-128239385D01*
X178884132Y-128234672D01*
X178778203Y-128194960D01*
X178721439Y-128152318D01*
X178696739Y-128085756D01*
X178711947Y-128016408D01*
X178733493Y-127987727D01*
X178762822Y-127958500D01*
X178838096Y-127883489D01*
X178968453Y-127702077D01*
X179067430Y-127501811D01*
X179132370Y-127288069D01*
X179161529Y-127066590D01*
X179163156Y-127000000D01*
X179144852Y-126777361D01*
X179090431Y-126560702D01*
X179001354Y-126355840D01*
X178880014Y-126168277D01*
X178729670Y-126003051D01*
X178725619Y-125999852D01*
X178725615Y-125999848D01*
X178558414Y-125867800D01*
X178558410Y-125867798D01*
X178554359Y-125864598D01*
X178512569Y-125841529D01*
X178462598Y-125791097D01*
X178447826Y-125721654D01*
X178472942Y-125655248D01*
X178500294Y-125628641D01*
X178675328Y-125503792D01*
X178683200Y-125497139D01*
X178834052Y-125346812D01*
X178840730Y-125338965D01*
X178965003Y-125166020D01*
X178970313Y-125157183D01*
X179064670Y-124966267D01*
X179068469Y-124956672D01*
X179130377Y-124752910D01*
X179132555Y-124742837D01*
X179133986Y-124731962D01*
X179131775Y-124717778D01*
X179118617Y-124714000D01*
X176483225Y-124714000D01*
X176469694Y-124717973D01*
X176468257Y-124727966D01*
X176498565Y-124862446D01*
X176501645Y-124872275D01*
X176581770Y-125069603D01*
X176586413Y-125078794D01*
X176697694Y-125260388D01*
X176703777Y-125268699D01*
X176843213Y-125429667D01*
X176850580Y-125436883D01*
X177014434Y-125572916D01*
X177022881Y-125578831D01*
X177091969Y-125619203D01*
X177140693Y-125670842D01*
X177153764Y-125740625D01*
X177127033Y-125806396D01*
X177086584Y-125839752D01*
X177073607Y-125846507D01*
X177069474Y-125849610D01*
X177069471Y-125849612D01*
X177045247Y-125867800D01*
X176894965Y-125980635D01*
X176891394Y-125984372D01*
X176874023Y-126002550D01*
X176812499Y-126037981D01*
X176782928Y-126041500D01*
X165549214Y-126041500D01*
X165481093Y-126021498D01*
X165460119Y-126004595D01*
X161015405Y-121559881D01*
X160981379Y-121497569D01*
X160978500Y-121470786D01*
X160978500Y-119395535D01*
X160978549Y-119392016D01*
X160980678Y-119315821D01*
X160980678Y-119315818D01*
X160980856Y-119309439D01*
X160970854Y-119252713D01*
X160969585Y-119243568D01*
X160968387Y-119231780D01*
X160963765Y-119186273D01*
X160955620Y-119160283D01*
X160951770Y-119144488D01*
X160948151Y-119123960D01*
X160948150Y-119123956D01*
X160947042Y-119117673D01*
X160925839Y-119064120D01*
X160922758Y-119055418D01*
X160907444Y-119006549D01*
X160907442Y-119006545D01*
X160905535Y-119000459D01*
X160902444Y-118994883D01*
X160902442Y-118994878D01*
X160892329Y-118976634D01*
X160885381Y-118961935D01*
X160877711Y-118942564D01*
X160875359Y-118936623D01*
X160871862Y-118931280D01*
X160871860Y-118931275D01*
X160843824Y-118888433D01*
X160839054Y-118880526D01*
X160830119Y-118864406D01*
X160811130Y-118830150D01*
X160806983Y-118825311D01*
X160806979Y-118825306D01*
X160793410Y-118809476D01*
X160783644Y-118796469D01*
X160771385Y-118777734D01*
X160771382Y-118777730D01*
X160768735Y-118773685D01*
X160764452Y-118768929D01*
X160727324Y-118731801D01*
X160720751Y-118724703D01*
X160688568Y-118687154D01*
X160688566Y-118687152D01*
X160684409Y-118682302D01*
X160661314Y-118664387D01*
X160649452Y-118653929D01*
X160009118Y-118013595D01*
X159975092Y-117951283D01*
X159980157Y-117880468D01*
X160022704Y-117823632D01*
X160089224Y-117798821D01*
X160098213Y-117798500D01*
X176782168Y-117798500D01*
X176850289Y-117818502D01*
X176862653Y-117827556D01*
X176944619Y-117895605D01*
X177018126Y-117956632D01*
X177026416Y-117961476D01*
X177091445Y-117999476D01*
X177140169Y-118051114D01*
X177153240Y-118120897D01*
X177126509Y-118186669D01*
X177086055Y-118220027D01*
X177073607Y-118226507D01*
X177069474Y-118229610D01*
X177069471Y-118229612D01*
X176899100Y-118357530D01*
X176894965Y-118360635D01*
X176891394Y-118364372D01*
X176874023Y-118382550D01*
X176812499Y-118417981D01*
X176782928Y-118421500D01*
X162511337Y-118421500D01*
X162454188Y-118427305D01*
X162372622Y-118435590D01*
X162372621Y-118435590D01*
X162366273Y-118436235D01*
X162309939Y-118453889D01*
X162186549Y-118492556D01*
X162186544Y-118492558D01*
X162180459Y-118494465D01*
X162129447Y-118522742D01*
X162015729Y-118585777D01*
X162015726Y-118585779D01*
X162010150Y-118588870D01*
X162005309Y-118593019D01*
X162005305Y-118593022D01*
X161905706Y-118678389D01*
X161862302Y-118715591D01*
X161858391Y-118720633D01*
X161858390Y-118720634D01*
X161814099Y-118777734D01*
X161742954Y-118869453D01*
X161740138Y-118875176D01*
X161740136Y-118875179D01*
X161710231Y-118935954D01*
X161656982Y-119044171D01*
X161655373Y-119050349D01*
X161655372Y-119050351D01*
X161628806Y-119152342D01*
X161607898Y-119232607D01*
X161604201Y-119303150D01*
X161599544Y-119392016D01*
X161597707Y-119427064D01*
X161626825Y-119619599D01*
X161629028Y-119625585D01*
X161629029Y-119625591D01*
X161691860Y-119796360D01*
X161691862Y-119796365D01*
X161694063Y-119802346D01*
X161697425Y-119807768D01*
X161783740Y-119946979D01*
X161796674Y-119967840D01*
X161801055Y-119972473D01*
X161801056Y-119972474D01*
X161924220Y-120102717D01*
X161930466Y-120109322D01*
X162089975Y-120221011D01*
X162095838Y-120223548D01*
X162262825Y-120295810D01*
X162262829Y-120295811D01*
X162268684Y-120298345D01*
X162274931Y-120299650D01*
X162274934Y-120299651D01*
X162454557Y-120337176D01*
X162454562Y-120337177D01*
X162459293Y-120338165D01*
X162465685Y-120338500D01*
X176782168Y-120338500D01*
X176850289Y-120358502D01*
X176862653Y-120367556D01*
X177018126Y-120496632D01*
X177088595Y-120537811D01*
X177091445Y-120539476D01*
X177140169Y-120591114D01*
X177153240Y-120660897D01*
X177126509Y-120726669D01*
X177086055Y-120760027D01*
X177073607Y-120766507D01*
X177069474Y-120769610D01*
X177069471Y-120769612D01*
X176899100Y-120897530D01*
X176894965Y-120900635D01*
X176740629Y-121062138D01*
X176614743Y-121246680D01*
X176520688Y-121449305D01*
X176460989Y-121664570D01*
X176437251Y-121886695D01*
X176437548Y-121891848D01*
X176437548Y-121891851D01*
X176442872Y-121984179D01*
X176450110Y-122109715D01*
X176451247Y-122114761D01*
X176451248Y-122114767D01*
X176458622Y-122147487D01*
X176499222Y-122327639D01*
X176583266Y-122534616D01*
X176699987Y-122725088D01*
X176846250Y-122893938D01*
X177018126Y-123036632D01*
X177091955Y-123079774D01*
X177140679Y-123131412D01*
X177153750Y-123201195D01*
X177127019Y-123266967D01*
X177086562Y-123300327D01*
X177078457Y-123304546D01*
X177069738Y-123310036D01*
X176899433Y-123437905D01*
X176891726Y-123444748D01*
X176744590Y-123598717D01*
X176738104Y-123606727D01*
X176618098Y-123782649D01*
X176613000Y-123791623D01*
X176523338Y-123984783D01*
X176519775Y-123994470D01*
X176464389Y-124194183D01*
X176465912Y-124202607D01*
X176478292Y-124206000D01*
X179118344Y-124206000D01*
X179131875Y-124202027D01*
X179133180Y-124192947D01*
X179091214Y-124025875D01*
X179087894Y-124016124D01*
X179002972Y-123820814D01*
X178998105Y-123811739D01*
X178882426Y-123632926D01*
X178876136Y-123624757D01*
X178732806Y-123467240D01*
X178725273Y-123460215D01*
X178558139Y-123328222D01*
X178549556Y-123322520D01*
X178512602Y-123302120D01*
X178462631Y-123251687D01*
X178447859Y-123182245D01*
X178472975Y-123115839D01*
X178500327Y-123089232D01*
X178523797Y-123072491D01*
X178679860Y-122961173D01*
X178838096Y-122803489D01*
X178897594Y-122720689D01*
X178965435Y-122626277D01*
X178968453Y-122622077D01*
X178975019Y-122608793D01*
X179065136Y-122426453D01*
X179065137Y-122426451D01*
X179067430Y-122421811D01*
X179109469Y-122283444D01*
X179130865Y-122213023D01*
X179130865Y-122213021D01*
X179132370Y-122208069D01*
X179161529Y-121986590D01*
X179162371Y-121952136D01*
X179163074Y-121923365D01*
X179163074Y-121923361D01*
X179163156Y-121920000D01*
X179144852Y-121697361D01*
X179090431Y-121480702D01*
X179001354Y-121275840D01*
X178880014Y-121088277D01*
X178729670Y-120923051D01*
X178725619Y-120919852D01*
X178725615Y-120919848D01*
X178558414Y-120787800D01*
X178558410Y-120787798D01*
X178554359Y-120784598D01*
X178513053Y-120761796D01*
X178463084Y-120711364D01*
X178448312Y-120641921D01*
X178473428Y-120575516D01*
X178500780Y-120548909D01*
X178544603Y-120517650D01*
X178679860Y-120421173D01*
X178724128Y-120377060D01*
X178805662Y-120295810D01*
X178838096Y-120263489D01*
X178968453Y-120082077D01*
X178989021Y-120040462D01*
X179065136Y-119886453D01*
X179065137Y-119886451D01*
X179067430Y-119881811D01*
X179106270Y-119753973D01*
X179130865Y-119673023D01*
X179130865Y-119673021D01*
X179132370Y-119668069D01*
X179161529Y-119446590D01*
X179162162Y-119420683D01*
X179163074Y-119383365D01*
X179163074Y-119383361D01*
X179163156Y-119380000D01*
X179144852Y-119157361D01*
X179090431Y-118940702D01*
X179001354Y-118735840D01*
X178880014Y-118548277D01*
X178729670Y-118383051D01*
X178725619Y-118379852D01*
X178725615Y-118379848D01*
X178558414Y-118247800D01*
X178558410Y-118247798D01*
X178554359Y-118244598D01*
X178513053Y-118221796D01*
X178463084Y-118171364D01*
X178448312Y-118101921D01*
X178473428Y-118035516D01*
X178500780Y-118008909D01*
X178567279Y-117961476D01*
X178679860Y-117881173D01*
X178737603Y-117823632D01*
X178834435Y-117727137D01*
X178838096Y-117723489D01*
X178968453Y-117542077D01*
X179011574Y-117454829D01*
X179065136Y-117346453D01*
X179065137Y-117346451D01*
X179067430Y-117341811D01*
X179132370Y-117128069D01*
X179161529Y-116906590D01*
X179163156Y-116840000D01*
X179144852Y-116617361D01*
X179090431Y-116400702D01*
X179001354Y-116195840D01*
X178948363Y-116113929D01*
X178882822Y-116012617D01*
X178882820Y-116012614D01*
X178880014Y-116008277D01*
X178729670Y-115843051D01*
X178725619Y-115839852D01*
X178725615Y-115839848D01*
X178558414Y-115707800D01*
X178558410Y-115707798D01*
X178554359Y-115704598D01*
X178513053Y-115681796D01*
X178463084Y-115631364D01*
X178448312Y-115561921D01*
X178473428Y-115495516D01*
X178500780Y-115468909D01*
X178567060Y-115421632D01*
X178679860Y-115341173D01*
X178711788Y-115309357D01*
X178834435Y-115187137D01*
X178838096Y-115183489D01*
X178869498Y-115139789D01*
X178965435Y-115006277D01*
X178968453Y-115002077D01*
X178988628Y-114961257D01*
X179065136Y-114806453D01*
X179065137Y-114806451D01*
X179067430Y-114801811D01*
X179132370Y-114588069D01*
X179161529Y-114366590D01*
X179162600Y-114322749D01*
X179163074Y-114303365D01*
X179163074Y-114303361D01*
X179163156Y-114300000D01*
X179144852Y-114077361D01*
X179090431Y-113860702D01*
X179001354Y-113655840D01*
X178943894Y-113567021D01*
X178882822Y-113472617D01*
X178882820Y-113472614D01*
X178880014Y-113468277D01*
X178729670Y-113303051D01*
X178725619Y-113299852D01*
X178725615Y-113299848D01*
X178558414Y-113167800D01*
X178558410Y-113167798D01*
X178554359Y-113164598D01*
X178513053Y-113141796D01*
X178463084Y-113091364D01*
X178448312Y-113021921D01*
X178473428Y-112955516D01*
X178500780Y-112928909D01*
X178571693Y-112878327D01*
X178679860Y-112801173D01*
X178711788Y-112769357D01*
X178827002Y-112654544D01*
X178838096Y-112643489D01*
X178849330Y-112627856D01*
X178965435Y-112466277D01*
X178968453Y-112462077D01*
X178985286Y-112428019D01*
X179065136Y-112266453D01*
X179065137Y-112266451D01*
X179067430Y-112261811D01*
X179132370Y-112048069D01*
X179161529Y-111826590D01*
X179162162Y-111800683D01*
X179163074Y-111763365D01*
X179163074Y-111763361D01*
X179163156Y-111760000D01*
X179144852Y-111537361D01*
X179090431Y-111320702D01*
X179001354Y-111115840D01*
X178880014Y-110928277D01*
X178729670Y-110763051D01*
X178725619Y-110759852D01*
X178725615Y-110759848D01*
X178558414Y-110627800D01*
X178558410Y-110627798D01*
X178554359Y-110624598D01*
X178546304Y-110620151D01*
X178446230Y-110564908D01*
X178358789Y-110516638D01*
X178353920Y-110514914D01*
X178353916Y-110514912D01*
X178153087Y-110443795D01*
X178153083Y-110443794D01*
X178148212Y-110442069D01*
X178143119Y-110441162D01*
X178143116Y-110441161D01*
X177933373Y-110403800D01*
X177933367Y-110403799D01*
X177928284Y-110402894D01*
X177854452Y-110401992D01*
X177710081Y-110400228D01*
X177710079Y-110400228D01*
X177704911Y-110400165D01*
X177484091Y-110433955D01*
X177271756Y-110503357D01*
X177073607Y-110606507D01*
X177069474Y-110609610D01*
X177069471Y-110609612D01*
X176899100Y-110737530D01*
X176894965Y-110740635D01*
X176878659Y-110757699D01*
X176874023Y-110762550D01*
X176812499Y-110797981D01*
X176782928Y-110801500D01*
X165051337Y-110801500D01*
X165002113Y-110806500D01*
X164912622Y-110815590D01*
X164912621Y-110815590D01*
X164906273Y-110816235D01*
X164849939Y-110833889D01*
X164726549Y-110872556D01*
X164726544Y-110872558D01*
X164720459Y-110874465D01*
X164653100Y-110911803D01*
X164555729Y-110965777D01*
X164555726Y-110965779D01*
X164550150Y-110968870D01*
X164545309Y-110973019D01*
X164545305Y-110973022D01*
X164411857Y-111087401D01*
X164402302Y-111095591D01*
X164282954Y-111249453D01*
X164280138Y-111255176D01*
X164280136Y-111255179D01*
X164219460Y-111378489D01*
X164196982Y-111424171D01*
X164195373Y-111430349D01*
X164195372Y-111430351D01*
X164167027Y-111539171D01*
X164147898Y-111612607D01*
X164147564Y-111618986D01*
X164139887Y-111765475D01*
X164137707Y-111807064D01*
X164166825Y-111999599D01*
X164169028Y-112005585D01*
X164169029Y-112005591D01*
X164193637Y-112072472D01*
X164198387Y-112143310D01*
X164164086Y-112205470D01*
X164101623Y-112239218D01*
X164075387Y-112241980D01*
X156829694Y-112241980D01*
X156761573Y-112221978D01*
X156740598Y-112205075D01*
X156204119Y-111668595D01*
X156170094Y-111606283D01*
X156175159Y-111535467D01*
X156217706Y-111478632D01*
X156284226Y-111453821D01*
X156293215Y-111453500D01*
X161542168Y-111453500D01*
X161610289Y-111473502D01*
X161622653Y-111482556D01*
X161778126Y-111611632D01*
X161971000Y-111724338D01*
X162179692Y-111804030D01*
X162184760Y-111805061D01*
X162184763Y-111805062D01*
X162290577Y-111826590D01*
X162398597Y-111848567D01*
X162403772Y-111848757D01*
X162403774Y-111848757D01*
X162616673Y-111856564D01*
X162616677Y-111856564D01*
X162621837Y-111856753D01*
X162626957Y-111856097D01*
X162626959Y-111856097D01*
X162838288Y-111829025D01*
X162838289Y-111829025D01*
X162843416Y-111828368D01*
X162848366Y-111826883D01*
X163052429Y-111765661D01*
X163052434Y-111765659D01*
X163057384Y-111764174D01*
X163257994Y-111665896D01*
X163439860Y-111536173D01*
X163443705Y-111532342D01*
X163594435Y-111382137D01*
X163598096Y-111378489D01*
X163728453Y-111197077D01*
X163770752Y-111111492D01*
X163825136Y-111001453D01*
X163825137Y-111001451D01*
X163827430Y-110996811D01*
X163887645Y-110798621D01*
X163890865Y-110788023D01*
X163890865Y-110788021D01*
X163892370Y-110783069D01*
X163921529Y-110561590D01*
X163921611Y-110558240D01*
X163923074Y-110498365D01*
X163923074Y-110498361D01*
X163923156Y-110495000D01*
X163904852Y-110272361D01*
X163850431Y-110055702D01*
X163761354Y-109850840D01*
X163640014Y-109663277D01*
X163489670Y-109498051D01*
X163485619Y-109494852D01*
X163485615Y-109494848D01*
X163318414Y-109362800D01*
X163318410Y-109362798D01*
X163314359Y-109359598D01*
X163273053Y-109336796D01*
X163223084Y-109286364D01*
X163208312Y-109216921D01*
X163233428Y-109150516D01*
X163260780Y-109123909D01*
X163304603Y-109092650D01*
X163439860Y-108996173D01*
X163598096Y-108838489D01*
X163728453Y-108657077D01*
X163749099Y-108615304D01*
X163825136Y-108461453D01*
X163825137Y-108461451D01*
X163827430Y-108456811D01*
X163892370Y-108243069D01*
X163921529Y-108021590D01*
X163921611Y-108018240D01*
X163923074Y-107958365D01*
X163923074Y-107958361D01*
X163923156Y-107955000D01*
X163904852Y-107732361D01*
X163850431Y-107515702D01*
X163761354Y-107310840D01*
X163640014Y-107123277D01*
X163489670Y-106958051D01*
X163485619Y-106954852D01*
X163485615Y-106954848D01*
X163318414Y-106822800D01*
X163318410Y-106822798D01*
X163314359Y-106819598D01*
X163273053Y-106796796D01*
X163223084Y-106746364D01*
X163208312Y-106676921D01*
X163233428Y-106610516D01*
X163260780Y-106583909D01*
X163304603Y-106552650D01*
X163439860Y-106456173D01*
X163598096Y-106298489D01*
X163728453Y-106117077D01*
X163774825Y-106023251D01*
X163825136Y-105921453D01*
X163825137Y-105921451D01*
X163827430Y-105916811D01*
X163892370Y-105703069D01*
X163921529Y-105481590D01*
X163921611Y-105478240D01*
X163923074Y-105418365D01*
X163923074Y-105418361D01*
X163923156Y-105415000D01*
X163904852Y-105192361D01*
X163850431Y-104975702D01*
X163761354Y-104770840D01*
X163640014Y-104583277D01*
X163489670Y-104418051D01*
X163485619Y-104414852D01*
X163485615Y-104414848D01*
X163318414Y-104282800D01*
X163318410Y-104282798D01*
X163314359Y-104279598D01*
X163273053Y-104256796D01*
X163223084Y-104206364D01*
X163208312Y-104136921D01*
X163233428Y-104070516D01*
X163260780Y-104043909D01*
X163304603Y-104012650D01*
X163439860Y-103916173D01*
X163598096Y-103758489D01*
X163728453Y-103577077D01*
X163774825Y-103483251D01*
X163825136Y-103381453D01*
X163825137Y-103381451D01*
X163827430Y-103376811D01*
X163892370Y-103163069D01*
X163921529Y-102941590D01*
X163921611Y-102938240D01*
X163923074Y-102878365D01*
X163923074Y-102878361D01*
X163923156Y-102875000D01*
X163904852Y-102652361D01*
X163850431Y-102435702D01*
X163761354Y-102230840D01*
X163640014Y-102043277D01*
X163489670Y-101878051D01*
X163485619Y-101874852D01*
X163485615Y-101874848D01*
X163318414Y-101742800D01*
X163318410Y-101742798D01*
X163314359Y-101739598D01*
X163273053Y-101716796D01*
X163223084Y-101666364D01*
X163208312Y-101596921D01*
X163233428Y-101530516D01*
X163260780Y-101503909D01*
X163304603Y-101472650D01*
X163439860Y-101376173D01*
X163598096Y-101218489D01*
X163728453Y-101037077D01*
X163774825Y-100943251D01*
X163825136Y-100841453D01*
X163825137Y-100841451D01*
X163827430Y-100836811D01*
X163892370Y-100623069D01*
X163921529Y-100401590D01*
X163921611Y-100398240D01*
X163923074Y-100338365D01*
X163923074Y-100338361D01*
X163923156Y-100335000D01*
X163904852Y-100112361D01*
X163850431Y-99895702D01*
X163761354Y-99690840D01*
X163640014Y-99503277D01*
X163489670Y-99338051D01*
X163485619Y-99334852D01*
X163485615Y-99334848D01*
X163318414Y-99202800D01*
X163318410Y-99202798D01*
X163314359Y-99199598D01*
X163273053Y-99176796D01*
X163223084Y-99126364D01*
X163208312Y-99056921D01*
X163233428Y-98990516D01*
X163260780Y-98963909D01*
X163304603Y-98932650D01*
X163439860Y-98836173D01*
X163598096Y-98678489D01*
X163728453Y-98497077D01*
X163774825Y-98403251D01*
X163825136Y-98301453D01*
X163825137Y-98301451D01*
X163827430Y-98296811D01*
X163892370Y-98083069D01*
X163921529Y-97861590D01*
X163921611Y-97858240D01*
X163923074Y-97798365D01*
X163923074Y-97798361D01*
X163923156Y-97795000D01*
X163904852Y-97572361D01*
X163850431Y-97355702D01*
X163761354Y-97150840D01*
X163705349Y-97064270D01*
X163642822Y-96967617D01*
X163642820Y-96967614D01*
X163640014Y-96963277D01*
X163489670Y-96798051D01*
X163485619Y-96794852D01*
X163485615Y-96794848D01*
X163318414Y-96662800D01*
X163318410Y-96662798D01*
X163314359Y-96659598D01*
X163273053Y-96636796D01*
X163223084Y-96586364D01*
X163208312Y-96516921D01*
X163233428Y-96450516D01*
X163260780Y-96423909D01*
X163304603Y-96392650D01*
X163439860Y-96296173D01*
X163598096Y-96138489D01*
X163728453Y-95957077D01*
X163774825Y-95863251D01*
X163825136Y-95761453D01*
X163825137Y-95761451D01*
X163827430Y-95756811D01*
X163892370Y-95543069D01*
X163921529Y-95321590D01*
X163921611Y-95318240D01*
X163923074Y-95258365D01*
X163923074Y-95258361D01*
X163923156Y-95255000D01*
X163904852Y-95032361D01*
X163850431Y-94815702D01*
X163761354Y-94610840D01*
X163721906Y-94549862D01*
X163642822Y-94427617D01*
X163642820Y-94427614D01*
X163640014Y-94423277D01*
X163489670Y-94258051D01*
X163485619Y-94254852D01*
X163485615Y-94254848D01*
X163318414Y-94122800D01*
X163318410Y-94122798D01*
X163314359Y-94119598D01*
X163273053Y-94096796D01*
X163223084Y-94046364D01*
X163208312Y-93976921D01*
X163233428Y-93910516D01*
X163260780Y-93883909D01*
X163304603Y-93852650D01*
X163439860Y-93756173D01*
X163598096Y-93598489D01*
X163728453Y-93417077D01*
X163770752Y-93331492D01*
X163825136Y-93221453D01*
X163825137Y-93221451D01*
X163827430Y-93216811D01*
X163892370Y-93003069D01*
X163921529Y-92781590D01*
X163921611Y-92778240D01*
X163923074Y-92718365D01*
X163923074Y-92718361D01*
X163923156Y-92715000D01*
X163904852Y-92492361D01*
X163850431Y-92275702D01*
X163761354Y-92070840D01*
X163640014Y-91883277D01*
X163489670Y-91718051D01*
X163485619Y-91714852D01*
X163485615Y-91714848D01*
X163318414Y-91582800D01*
X163318410Y-91582798D01*
X163314359Y-91579598D01*
X163273053Y-91556796D01*
X163223084Y-91506364D01*
X163208312Y-91436921D01*
X163233428Y-91370516D01*
X163260780Y-91343909D01*
X163304603Y-91312650D01*
X163439860Y-91216173D01*
X163474664Y-91181491D01*
X163545949Y-91110454D01*
X163598096Y-91058489D01*
X163609876Y-91042096D01*
X163725435Y-90881277D01*
X163728453Y-90877077D01*
X163774825Y-90783251D01*
X163825136Y-90681453D01*
X163825137Y-90681451D01*
X163827430Y-90676811D01*
X163892370Y-90463069D01*
X163921529Y-90241590D01*
X163921611Y-90238240D01*
X163923074Y-90178365D01*
X163923074Y-90178361D01*
X163923156Y-90175000D01*
X163904852Y-89952361D01*
X163850431Y-89735702D01*
X163761354Y-89530840D01*
X163665052Y-89381980D01*
X163642822Y-89347617D01*
X163642820Y-89347614D01*
X163640014Y-89343277D01*
X163636540Y-89339459D01*
X163636533Y-89339450D01*
X163492435Y-89181088D01*
X163461383Y-89117242D01*
X163469779Y-89046744D01*
X163514956Y-88991976D01*
X163541400Y-88978307D01*
X163648052Y-88938325D01*
X163663649Y-88929786D01*
X163765724Y-88853285D01*
X163778285Y-88840724D01*
X163854786Y-88738649D01*
X163863324Y-88723054D01*
X163908478Y-88602606D01*
X163912105Y-88587351D01*
X163917631Y-88536486D01*
X163918000Y-88529672D01*
X163918000Y-87907115D01*
X163913525Y-87891876D01*
X163912135Y-87890671D01*
X163904452Y-87889000D01*
X161220116Y-87889000D01*
X161204877Y-87893475D01*
X161203672Y-87894865D01*
X161202001Y-87902548D01*
X161202001Y-88529669D01*
X161202371Y-88536490D01*
X161207895Y-88587352D01*
X161211521Y-88602604D01*
X161256676Y-88723054D01*
X161265214Y-88738649D01*
X161341715Y-88840724D01*
X161354276Y-88853285D01*
X161456351Y-88929786D01*
X161471946Y-88938324D01*
X161563158Y-88972518D01*
X161619922Y-89015160D01*
X161644622Y-89081721D01*
X161629415Y-89151070D01*
X161579129Y-89201188D01*
X161518928Y-89216500D01*
X149044214Y-89216500D01*
X148976093Y-89196498D01*
X148955118Y-89179595D01*
X148661897Y-88886373D01*
X148627872Y-88824061D01*
X148625472Y-88808260D01*
X148622984Y-88779826D01*
X148613543Y-88671913D01*
X148612119Y-88666598D01*
X148555707Y-88456067D01*
X148555706Y-88456065D01*
X148554284Y-88450757D01*
X148548940Y-88439297D01*
X148459849Y-88248238D01*
X148459846Y-88248233D01*
X148457523Y-88243251D01*
X148334090Y-88066971D01*
X148329357Y-88060211D01*
X148329355Y-88060208D01*
X148326198Y-88055700D01*
X148164300Y-87893802D01*
X148159792Y-87890645D01*
X148159789Y-87890643D01*
X148081611Y-87835902D01*
X147976749Y-87762477D01*
X147971767Y-87760154D01*
X147971762Y-87760151D01*
X147937543Y-87744195D01*
X147884258Y-87697278D01*
X147864797Y-87629001D01*
X147885339Y-87561041D01*
X147937543Y-87515805D01*
X147971762Y-87499849D01*
X147971767Y-87499846D01*
X147976749Y-87497523D01*
X148081611Y-87424098D01*
X148159789Y-87369357D01*
X148159792Y-87369355D01*
X148164300Y-87366198D01*
X148167613Y-87362885D01*
X161202000Y-87362885D01*
X161206475Y-87378124D01*
X161207865Y-87379329D01*
X161215548Y-87381000D01*
X162287885Y-87381000D01*
X162303124Y-87376525D01*
X162304329Y-87375135D01*
X162306000Y-87367452D01*
X162306000Y-87362885D01*
X162814000Y-87362885D01*
X162818475Y-87378124D01*
X162819865Y-87379329D01*
X162827548Y-87381000D01*
X163899884Y-87381000D01*
X163915123Y-87376525D01*
X163916328Y-87375135D01*
X163917999Y-87367452D01*
X163917999Y-86740331D01*
X163917629Y-86733510D01*
X163912105Y-86682648D01*
X163908479Y-86667396D01*
X163863324Y-86546946D01*
X163854786Y-86531351D01*
X163778285Y-86429276D01*
X163765724Y-86416715D01*
X163663649Y-86340214D01*
X163648054Y-86331676D01*
X163527606Y-86286522D01*
X163512351Y-86282895D01*
X163461486Y-86277369D01*
X163454672Y-86277000D01*
X162832115Y-86277000D01*
X162816876Y-86281475D01*
X162815671Y-86282865D01*
X162814000Y-86290548D01*
X162814000Y-87362885D01*
X162306000Y-87362885D01*
X162306000Y-86295116D01*
X162301525Y-86279877D01*
X162300135Y-86278672D01*
X162292452Y-86277001D01*
X161665331Y-86277001D01*
X161658510Y-86277371D01*
X161607648Y-86282895D01*
X161592396Y-86286521D01*
X161471946Y-86331676D01*
X161456351Y-86340214D01*
X161354276Y-86416715D01*
X161341715Y-86429276D01*
X161265214Y-86531351D01*
X161256676Y-86546946D01*
X161211522Y-86667394D01*
X161207895Y-86682649D01*
X161202369Y-86733514D01*
X161202000Y-86740328D01*
X161202000Y-87362885D01*
X148167613Y-87362885D01*
X148326198Y-87204300D01*
X148331065Y-87197350D01*
X148384098Y-87121611D01*
X148457523Y-87016749D01*
X148459846Y-87011767D01*
X148459849Y-87011762D01*
X148551961Y-86814225D01*
X148551961Y-86814224D01*
X148554284Y-86809243D01*
X148557448Y-86797437D01*
X148612119Y-86593402D01*
X148612119Y-86593400D01*
X148613543Y-86588087D01*
X148625472Y-86451739D01*
X148651336Y-86385621D01*
X148661898Y-86373626D01*
X157840119Y-77195405D01*
X157902431Y-77161379D01*
X157929214Y-77158500D01*
X159570786Y-77158500D01*
X159638907Y-77178502D01*
X159659881Y-77195405D01*
X165110434Y-82645958D01*
X165144460Y-82708270D01*
X165139395Y-82779085D01*
X165096848Y-82835921D01*
X165040187Y-82859635D01*
X165037221Y-82860084D01*
X165018384Y-82861500D01*
X163610857Y-82861500D01*
X163561633Y-82866500D01*
X163472142Y-82875590D01*
X163472141Y-82875590D01*
X163465793Y-82876235D01*
X163432922Y-82886536D01*
X163286069Y-82932556D01*
X163286064Y-82932558D01*
X163279979Y-82934465D01*
X163212620Y-82971803D01*
X163115249Y-83025777D01*
X163115246Y-83025779D01*
X163109670Y-83028870D01*
X163104829Y-83033019D01*
X163104825Y-83033022D01*
X162971377Y-83147401D01*
X162961822Y-83155591D01*
X162842474Y-83309453D01*
X162839658Y-83315176D01*
X162839656Y-83315179D01*
X162759320Y-83478444D01*
X162756502Y-83484171D01*
X162754893Y-83490349D01*
X162754892Y-83490351D01*
X162729822Y-83586598D01*
X162707418Y-83672607D01*
X162707084Y-83678986D01*
X162699165Y-83830093D01*
X162697227Y-83867064D01*
X162726345Y-84059599D01*
X162728548Y-84065585D01*
X162728549Y-84065591D01*
X162791380Y-84236360D01*
X162791382Y-84236365D01*
X162793583Y-84242346D01*
X162896194Y-84407840D01*
X162900575Y-84412473D01*
X162900576Y-84412474D01*
X162968564Y-84484370D01*
X163029986Y-84549322D01*
X163035216Y-84552984D01*
X163035217Y-84552985D01*
X163092519Y-84593108D01*
X163189495Y-84661011D01*
X163206101Y-84668197D01*
X163362345Y-84735810D01*
X163362349Y-84735811D01*
X163368204Y-84738345D01*
X163374451Y-84739650D01*
X163374454Y-84739651D01*
X163554077Y-84777176D01*
X163554082Y-84777177D01*
X163558813Y-84778165D01*
X163565205Y-84778500D01*
X164015500Y-84778500D01*
X164083621Y-84798502D01*
X164130114Y-84852158D01*
X164141500Y-84904500D01*
X164141500Y-86344451D01*
X164141451Y-86347969D01*
X164139829Y-86406055D01*
X164139144Y-86430561D01*
X164140253Y-86436850D01*
X164149146Y-86487287D01*
X164150415Y-86496432D01*
X164156235Y-86553727D01*
X164164380Y-86579717D01*
X164168230Y-86595512D01*
X164171490Y-86614000D01*
X164172958Y-86622327D01*
X164175308Y-86628262D01*
X164175309Y-86628266D01*
X164194159Y-86675875D01*
X164197236Y-86684562D01*
X164214465Y-86739541D01*
X164217558Y-86745120D01*
X164227670Y-86763363D01*
X164234620Y-86778066D01*
X164242289Y-86797437D01*
X164242291Y-86797442D01*
X164244641Y-86803376D01*
X164248140Y-86808723D01*
X164276174Y-86851563D01*
X164280942Y-86859467D01*
X164308870Y-86909850D01*
X164313021Y-86914693D01*
X164326591Y-86930526D01*
X164336352Y-86943527D01*
X164346606Y-86959195D01*
X164351264Y-86966314D01*
X164355547Y-86971071D01*
X164392682Y-87008206D01*
X164399255Y-87015304D01*
X164435591Y-87057698D01*
X164440628Y-87061605D01*
X164440630Y-87061607D01*
X164458679Y-87075607D01*
X164470547Y-87086071D01*
X165572312Y-88187835D01*
X166644595Y-89260118D01*
X166678620Y-89322430D01*
X166681500Y-89349213D01*
X166681500Y-90311876D01*
X166681327Y-90318470D01*
X166677707Y-90387544D01*
X166678662Y-90393857D01*
X166678662Y-90393862D01*
X166682998Y-90422530D01*
X166687092Y-90449595D01*
X166688303Y-90457604D01*
X166689074Y-90463706D01*
X166696235Y-90534207D01*
X166698143Y-90540297D01*
X166698145Y-90540305D01*
X166700396Y-90547488D01*
X166704742Y-90566313D01*
X166705869Y-90573760D01*
X166706825Y-90580079D01*
X166731300Y-90646601D01*
X166733272Y-90652395D01*
X166754465Y-90720021D01*
X166761213Y-90732194D01*
X166769260Y-90749772D01*
X166774063Y-90762826D01*
X166803602Y-90810466D01*
X166811404Y-90823050D01*
X166814516Y-90828354D01*
X166848870Y-90890330D01*
X166853021Y-90895173D01*
X166857922Y-90900891D01*
X166869341Y-90916493D01*
X166876674Y-90928320D01*
X166925381Y-90979826D01*
X166929481Y-90984380D01*
X166975591Y-91038178D01*
X166980637Y-91042092D01*
X166980641Y-91042096D01*
X166986585Y-91046707D01*
X167000897Y-91059684D01*
X167010466Y-91069802D01*
X167015691Y-91073460D01*
X167015695Y-91073464D01*
X167068524Y-91110454D01*
X167073481Y-91114109D01*
X167129453Y-91157526D01*
X167141938Y-91163669D01*
X167158569Y-91173504D01*
X167169975Y-91181491D01*
X167175833Y-91184026D01*
X167235008Y-91209633D01*
X167240596Y-91212215D01*
X167304171Y-91243498D01*
X167317640Y-91247007D01*
X167335910Y-91253297D01*
X167348684Y-91258825D01*
X167354934Y-91260131D01*
X167354935Y-91260131D01*
X167418027Y-91273312D01*
X167424020Y-91274717D01*
X167486436Y-91290975D01*
X167486440Y-91290976D01*
X167492607Y-91292582D01*
X167506500Y-91293310D01*
X167525674Y-91295800D01*
X167534558Y-91297656D01*
X167534560Y-91297656D01*
X167539293Y-91298645D01*
X167545685Y-91298980D01*
X167611396Y-91298980D01*
X167617990Y-91299153D01*
X167680683Y-91302439D01*
X167680687Y-91302439D01*
X167687064Y-91302773D01*
X167702774Y-91300397D01*
X167721616Y-91298980D01*
X179255500Y-91298980D01*
X179323621Y-91318982D01*
X179370114Y-91372638D01*
X179381500Y-91424980D01*
X179381500Y-92966059D01*
X179361498Y-93034180D01*
X179346595Y-93053109D01*
X179280629Y-93122138D01*
X179277720Y-93126403D01*
X179277714Y-93126411D01*
X179259627Y-93152926D01*
X179173204Y-93279618D01*
X179172898Y-93280066D01*
X179117987Y-93325069D01*
X179047462Y-93333240D01*
X178983715Y-93301986D01*
X178963018Y-93277502D01*
X178882426Y-93152926D01*
X178876136Y-93144757D01*
X178732806Y-92987240D01*
X178725273Y-92980215D01*
X178558139Y-92848222D01*
X178549552Y-92842517D01*
X178363117Y-92739599D01*
X178353705Y-92735369D01*
X178152959Y-92664280D01*
X178142988Y-92661646D01*
X178071837Y-92648972D01*
X178058540Y-92650432D01*
X178054000Y-92664989D01*
X178054000Y-94108000D01*
X178033998Y-94176121D01*
X177980342Y-94222614D01*
X177928000Y-94234000D01*
X177672000Y-94234000D01*
X177603879Y-94213998D01*
X177557386Y-94160342D01*
X177546000Y-94108000D01*
X177546000Y-92663102D01*
X177542082Y-92649758D01*
X177527806Y-92647771D01*
X177489324Y-92653660D01*
X177479288Y-92656051D01*
X177276868Y-92722212D01*
X177267359Y-92726209D01*
X177078463Y-92824542D01*
X177069738Y-92830036D01*
X176899433Y-92957905D01*
X176891726Y-92964748D01*
X176814478Y-93045584D01*
X176752954Y-93081014D01*
X176682042Y-93077557D01*
X176624255Y-93036311D01*
X176605402Y-93002763D01*
X176563767Y-92891703D01*
X176560615Y-92883295D01*
X176473261Y-92766739D01*
X176356705Y-92679385D01*
X176220316Y-92628255D01*
X176158134Y-92621500D01*
X174361866Y-92621500D01*
X174299684Y-92628255D01*
X174163295Y-92679385D01*
X174046739Y-92766739D01*
X173959385Y-92883295D01*
X173908255Y-93019684D01*
X173901500Y-93081866D01*
X173901500Y-94878134D01*
X173908255Y-94940316D01*
X173959385Y-95076705D01*
X174046739Y-95193261D01*
X174163295Y-95280615D01*
X174171703Y-95283767D01*
X174219730Y-95301772D01*
X174276495Y-95344414D01*
X174301194Y-95410976D01*
X174301500Y-95419754D01*
X174301500Y-96491396D01*
X174301327Y-96497990D01*
X174299887Y-96525475D01*
X174297707Y-96567064D01*
X174298662Y-96573377D01*
X174298662Y-96573382D01*
X174304601Y-96612650D01*
X174308254Y-96636797D01*
X174308303Y-96637124D01*
X174309074Y-96643226D01*
X174316235Y-96713727D01*
X174318143Y-96719817D01*
X174318145Y-96719825D01*
X174320396Y-96727008D01*
X174324742Y-96745833D01*
X174325869Y-96753280D01*
X174326825Y-96759599D01*
X174351300Y-96826121D01*
X174353272Y-96831915D01*
X174374465Y-96899541D01*
X174381213Y-96911714D01*
X174389260Y-96929292D01*
X174394063Y-96942346D01*
X174423626Y-96990025D01*
X174431404Y-97002570D01*
X174434516Y-97007874D01*
X174468870Y-97069850D01*
X174473021Y-97074693D01*
X174477922Y-97080411D01*
X174489341Y-97096013D01*
X174496674Y-97107840D01*
X174545381Y-97159346D01*
X174549481Y-97163900D01*
X174595591Y-97217698D01*
X174600637Y-97221612D01*
X174600641Y-97221616D01*
X174606585Y-97226227D01*
X174620897Y-97239204D01*
X174630466Y-97249322D01*
X174635691Y-97252980D01*
X174635695Y-97252984D01*
X174688524Y-97289974D01*
X174693481Y-97293629D01*
X174749453Y-97337046D01*
X174761938Y-97343189D01*
X174778569Y-97353024D01*
X174789975Y-97361011D01*
X174795833Y-97363546D01*
X174855008Y-97389153D01*
X174860596Y-97391735D01*
X174924171Y-97423018D01*
X174937640Y-97426527D01*
X174955910Y-97432817D01*
X174968684Y-97438345D01*
X174974934Y-97439651D01*
X174974935Y-97439651D01*
X175038027Y-97452832D01*
X175044020Y-97454237D01*
X175106436Y-97470495D01*
X175106440Y-97470496D01*
X175112607Y-97472102D01*
X175126500Y-97472830D01*
X175145674Y-97475320D01*
X175154558Y-97477176D01*
X175154560Y-97477176D01*
X175159293Y-97478165D01*
X175165685Y-97478500D01*
X175231396Y-97478500D01*
X175237990Y-97478673D01*
X175300683Y-97481959D01*
X175300687Y-97481959D01*
X175307064Y-97482293D01*
X175322774Y-97479917D01*
X175341616Y-97478500D01*
X185391396Y-97478500D01*
X185397990Y-97478673D01*
X185460683Y-97481959D01*
X185460687Y-97481959D01*
X185467064Y-97482293D01*
X185473377Y-97481338D01*
X185473382Y-97481338D01*
X185515072Y-97475032D01*
X185537135Y-97471696D01*
X185543226Y-97470926D01*
X185613727Y-97463765D01*
X185619817Y-97461857D01*
X185619825Y-97461855D01*
X185627008Y-97459604D01*
X185645833Y-97455258D01*
X185653280Y-97454131D01*
X185653282Y-97454130D01*
X185659599Y-97453175D01*
X185726121Y-97428700D01*
X185731915Y-97426728D01*
X185799541Y-97405535D01*
X185811714Y-97398787D01*
X185829292Y-97390740D01*
X185836357Y-97388141D01*
X185836361Y-97388139D01*
X185842346Y-97385937D01*
X185902577Y-97348592D01*
X185907881Y-97345480D01*
X185912022Y-97343185D01*
X185969850Y-97311130D01*
X185980411Y-97302078D01*
X185996013Y-97290659D01*
X185997118Y-97289974D01*
X186007840Y-97283326D01*
X186059346Y-97234619D01*
X186063909Y-97230511D01*
X186117698Y-97184409D01*
X186121612Y-97179363D01*
X186121616Y-97179359D01*
X186126227Y-97173415D01*
X186139204Y-97159103D01*
X186149322Y-97149534D01*
X186152980Y-97144309D01*
X186152984Y-97144305D01*
X186189974Y-97091476D01*
X186193629Y-97086519D01*
X186233134Y-97035590D01*
X186237046Y-97030547D01*
X186243189Y-97018062D01*
X186253024Y-97001431D01*
X186261011Y-96990025D01*
X186289154Y-96924989D01*
X186291736Y-96919402D01*
X186320199Y-96861558D01*
X186323018Y-96855829D01*
X186326527Y-96842360D01*
X186332817Y-96824090D01*
X186338345Y-96811316D01*
X186341221Y-96797550D01*
X186352832Y-96741973D01*
X186354237Y-96735980D01*
X186370495Y-96673564D01*
X186370496Y-96673560D01*
X186372102Y-96667393D01*
X186372830Y-96653500D01*
X186375320Y-96634326D01*
X186377176Y-96625442D01*
X186377176Y-96625440D01*
X186378165Y-96620707D01*
X186378500Y-96614315D01*
X186378500Y-96548604D01*
X186378673Y-96542010D01*
X186381959Y-96479317D01*
X186381959Y-96479313D01*
X186382293Y-96472936D01*
X186379917Y-96457225D01*
X186378500Y-96438384D01*
X186378500Y-88928604D01*
X186378673Y-88922010D01*
X186381959Y-88859317D01*
X186381959Y-88859313D01*
X186382293Y-88852936D01*
X186381338Y-88846623D01*
X186381338Y-88846618D01*
X186371697Y-88782876D01*
X186370925Y-88776766D01*
X186363765Y-88706273D01*
X186361857Y-88700183D01*
X186361855Y-88700175D01*
X186359604Y-88692992D01*
X186355258Y-88674167D01*
X186354131Y-88666720D01*
X186354130Y-88666718D01*
X186353175Y-88660401D01*
X186328700Y-88593879D01*
X186326724Y-88588074D01*
X186326498Y-88587352D01*
X186305535Y-88520459D01*
X186298787Y-88508286D01*
X186290740Y-88490708D01*
X186288141Y-88483643D01*
X186288139Y-88483639D01*
X186285937Y-88477654D01*
X186248592Y-88417423D01*
X186245480Y-88412119D01*
X186214223Y-88355730D01*
X186211130Y-88350150D01*
X186202078Y-88339589D01*
X186190659Y-88323987D01*
X186186688Y-88317583D01*
X186183326Y-88312160D01*
X186134619Y-88260654D01*
X186130511Y-88256091D01*
X186126834Y-88251801D01*
X186084409Y-88202302D01*
X186079363Y-88198388D01*
X186079359Y-88198384D01*
X186073415Y-88193773D01*
X186059103Y-88180796D01*
X186049534Y-88170678D01*
X186044309Y-88167020D01*
X186044305Y-88167016D01*
X185991476Y-88130026D01*
X185986519Y-88126371D01*
X185935590Y-88086866D01*
X185930547Y-88082954D01*
X185918062Y-88076811D01*
X185901431Y-88066976D01*
X185890025Y-88058989D01*
X185824989Y-88030846D01*
X185819402Y-88028264D01*
X185761558Y-87999801D01*
X185755829Y-87996982D01*
X185742360Y-87993473D01*
X185724090Y-87987183D01*
X185711316Y-87981655D01*
X185705065Y-87980349D01*
X185641973Y-87967168D01*
X185635980Y-87965763D01*
X185573564Y-87949505D01*
X185573560Y-87949504D01*
X185567393Y-87947898D01*
X185553500Y-87947170D01*
X185534326Y-87944680D01*
X185525442Y-87942824D01*
X185525440Y-87942824D01*
X185520707Y-87941835D01*
X185514315Y-87941500D01*
X185448604Y-87941500D01*
X185442010Y-87941327D01*
X185379317Y-87938041D01*
X185379313Y-87938041D01*
X185372936Y-87937707D01*
X185358821Y-87939842D01*
X185357225Y-87940083D01*
X185338384Y-87941500D01*
X173169213Y-87941500D01*
X173101092Y-87921498D01*
X173080118Y-87904595D01*
X166909749Y-81734225D01*
X160708776Y-75533252D01*
X160706322Y-75530730D01*
X160653916Y-75475312D01*
X160649534Y-75470678D01*
X160602328Y-75437624D01*
X160595002Y-75432084D01*
X160550357Y-75395672D01*
X160526230Y-75383059D01*
X160512332Y-75374609D01*
X160495253Y-75362650D01*
X160490025Y-75358989D01*
X160451434Y-75342289D01*
X160437172Y-75336117D01*
X160428838Y-75332142D01*
X160400941Y-75317558D01*
X160377792Y-75305456D01*
X160351606Y-75297948D01*
X160336312Y-75292472D01*
X160311316Y-75281655D01*
X160305071Y-75280350D01*
X160305070Y-75280350D01*
X160254935Y-75269876D01*
X160245985Y-75267661D01*
X160190611Y-75251784D01*
X160163456Y-75249695D01*
X160147367Y-75247405D01*
X160120707Y-75241835D01*
X160114315Y-75241500D01*
X160061803Y-75241500D01*
X160052136Y-75241129D01*
X160002821Y-75237334D01*
X160002817Y-75237334D01*
X159996461Y-75236845D01*
X159967481Y-75240506D01*
X159951689Y-75241500D01*
X158564500Y-75241500D01*
X158496379Y-75221498D01*
X158449886Y-75167842D01*
X158438500Y-75115500D01*
X158438500Y-66055549D01*
X158438549Y-66052031D01*
X158440678Y-65975821D01*
X158440678Y-65975818D01*
X158440856Y-65969439D01*
X158430853Y-65912709D01*
X158429584Y-65903562D01*
X158424410Y-65852627D01*
X158423765Y-65846273D01*
X158415623Y-65820293D01*
X158411772Y-65804494D01*
X158408152Y-65783963D01*
X158407043Y-65777673D01*
X158385841Y-65724124D01*
X158382760Y-65715422D01*
X158367446Y-65666554D01*
X158367442Y-65666545D01*
X158365535Y-65660459D01*
X158352333Y-65636642D01*
X158345383Y-65621940D01*
X158337709Y-65602557D01*
X158335360Y-65596624D01*
X158331864Y-65591281D01*
X158331861Y-65591276D01*
X158303819Y-65548424D01*
X158299048Y-65540515D01*
X158274225Y-65495733D01*
X158274224Y-65495731D01*
X158271130Y-65490150D01*
X158253409Y-65469474D01*
X158243646Y-65456471D01*
X158228736Y-65433686D01*
X158224453Y-65428929D01*
X158187318Y-65391794D01*
X158180745Y-65384696D01*
X158169847Y-65371981D01*
X158144409Y-65342302D01*
X158137644Y-65337054D01*
X158121321Y-65324393D01*
X158109453Y-65313929D01*
X153088776Y-60293252D01*
X153086322Y-60290730D01*
X153033916Y-60235312D01*
X153029534Y-60230678D01*
X152982328Y-60197624D01*
X152975002Y-60192084D01*
X152930357Y-60155672D01*
X152906230Y-60143059D01*
X152892332Y-60134609D01*
X152875253Y-60122650D01*
X152870025Y-60118989D01*
X152831434Y-60102289D01*
X152817172Y-60096117D01*
X152808838Y-60092142D01*
X152780941Y-60077558D01*
X152757792Y-60065456D01*
X152731606Y-60057948D01*
X152716312Y-60052472D01*
X152691316Y-60041655D01*
X152685071Y-60040350D01*
X152685070Y-60040350D01*
X152634935Y-60029876D01*
X152625985Y-60027661D01*
X152570611Y-60011784D01*
X152543456Y-60009695D01*
X152527367Y-60007405D01*
X152500707Y-60001835D01*
X152494315Y-60001500D01*
X152441803Y-60001500D01*
X152432136Y-60001129D01*
X152382821Y-59997334D01*
X152382817Y-59997334D01*
X152376461Y-59996845D01*
X152347481Y-60000506D01*
X152331689Y-60001500D01*
X139715549Y-60001500D01*
X139712031Y-60001451D01*
X139635821Y-59999322D01*
X139635818Y-59999322D01*
X139629439Y-59999144D01*
X139623149Y-60000253D01*
X139623150Y-60000253D01*
X139572713Y-60009146D01*
X139563568Y-60010415D01*
X139554906Y-60011295D01*
X139506273Y-60016235D01*
X139480283Y-60024380D01*
X139464488Y-60028230D01*
X139443960Y-60031849D01*
X139443956Y-60031850D01*
X139437673Y-60032958D01*
X139388394Y-60052469D01*
X139384123Y-60054160D01*
X139375418Y-60057242D01*
X139326549Y-60072556D01*
X139326545Y-60072558D01*
X139320459Y-60074465D01*
X139314883Y-60077556D01*
X139314878Y-60077558D01*
X139296634Y-60087671D01*
X139281935Y-60094619D01*
X139262563Y-60102289D01*
X139262561Y-60102290D01*
X139256623Y-60104641D01*
X139208407Y-60136192D01*
X139200543Y-60140936D01*
X139150150Y-60168870D01*
X139145305Y-60173023D01*
X139129476Y-60186590D01*
X139116472Y-60196353D01*
X139093686Y-60211264D01*
X139088929Y-60215547D01*
X139051794Y-60252682D01*
X139044696Y-60259255D01*
X139002302Y-60295591D01*
X138998395Y-60300628D01*
X138998393Y-60300630D01*
X138984393Y-60318679D01*
X138973929Y-60330547D01*
X137773252Y-61531224D01*
X137770730Y-61533678D01*
X137710678Y-61590466D01*
X137677624Y-61637672D01*
X137672084Y-61644998D01*
X137635672Y-61689643D01*
X137632715Y-61695300D01*
X137632714Y-61695301D01*
X137623059Y-61713770D01*
X137614609Y-61727668D01*
X137598989Y-61749975D01*
X137596455Y-61755831D01*
X137576117Y-61802828D01*
X137572142Y-61811162D01*
X137545456Y-61862208D01*
X137537948Y-61888394D01*
X137532472Y-61903688D01*
X137521655Y-61928684D01*
X137520350Y-61934929D01*
X137520350Y-61934930D01*
X137509876Y-61985065D01*
X137507661Y-61994015D01*
X137491784Y-62049389D01*
X137491295Y-62055750D01*
X137489695Y-62076541D01*
X137487405Y-62092633D01*
X137481835Y-62119293D01*
X137481500Y-62125685D01*
X137481500Y-62178197D01*
X137481129Y-62187863D01*
X137476845Y-62243539D01*
X137477645Y-62249871D01*
X137480506Y-62272519D01*
X137481500Y-62288311D01*
X137481500Y-64998928D01*
X137461498Y-65067049D01*
X137407842Y-65113542D01*
X137337568Y-65123646D01*
X137272988Y-65094152D01*
X137237518Y-65043158D01*
X137203324Y-64951946D01*
X137194786Y-64936351D01*
X137118285Y-64834276D01*
X137105724Y-64821715D01*
X137003649Y-64745214D01*
X136988054Y-64736676D01*
X136867606Y-64691522D01*
X136852351Y-64687895D01*
X136801486Y-64682369D01*
X136794672Y-64682000D01*
X136172115Y-64682000D01*
X136156876Y-64686475D01*
X136155671Y-64687865D01*
X136154000Y-64695548D01*
X136154000Y-67379884D01*
X136158475Y-67395123D01*
X136159865Y-67396328D01*
X136167548Y-67397999D01*
X136794669Y-67397999D01*
X136801490Y-67397629D01*
X136852352Y-67392105D01*
X136867604Y-67388479D01*
X136988054Y-67343324D01*
X137003649Y-67334786D01*
X137105724Y-67258285D01*
X137118285Y-67245724D01*
X137194786Y-67143649D01*
X137203324Y-67128054D01*
X137244225Y-67018952D01*
X137286867Y-66962188D01*
X137353428Y-66937488D01*
X137422777Y-66952696D01*
X137457444Y-66980684D01*
X137482865Y-67010031D01*
X137482869Y-67010035D01*
X137486250Y-67013938D01*
X137658126Y-67156632D01*
X137851000Y-67269338D01*
X138059692Y-67349030D01*
X138064760Y-67350061D01*
X138064763Y-67350062D01*
X138172017Y-67371883D01*
X138278597Y-67393567D01*
X138283772Y-67393757D01*
X138283774Y-67393757D01*
X138496673Y-67401564D01*
X138496677Y-67401564D01*
X138501837Y-67401753D01*
X138506957Y-67401097D01*
X138506959Y-67401097D01*
X138718288Y-67374025D01*
X138718289Y-67374025D01*
X138723416Y-67373368D01*
X138728366Y-67371883D01*
X138932429Y-67310661D01*
X138932434Y-67310659D01*
X138937384Y-67309174D01*
X139137994Y-67210896D01*
X139319860Y-67081173D01*
X139478096Y-66923489D01*
X139481116Y-66919287D01*
X139608453Y-66742077D01*
X139609776Y-66743028D01*
X139656645Y-66699857D01*
X139726580Y-66687625D01*
X139792026Y-66715144D01*
X139819875Y-66746994D01*
X139879987Y-66845088D01*
X139951062Y-66927138D01*
X139990737Y-66972940D01*
X140020220Y-67037525D01*
X140021500Y-67055438D01*
X140021500Y-107944451D01*
X140021451Y-107947969D01*
X140019395Y-108021590D01*
X140019144Y-108030561D01*
X140020253Y-108036850D01*
X140029146Y-108087287D01*
X140030415Y-108096432D01*
X140036235Y-108153727D01*
X140044380Y-108179717D01*
X140048230Y-108195512D01*
X140051455Y-108213802D01*
X140052958Y-108222327D01*
X140055308Y-108228262D01*
X140055309Y-108228266D01*
X140074159Y-108275875D01*
X140077236Y-108284562D01*
X140094465Y-108339541D01*
X140097558Y-108345120D01*
X140107670Y-108363363D01*
X140114620Y-108378066D01*
X140122289Y-108397437D01*
X140122291Y-108397442D01*
X140124641Y-108403376D01*
X140128140Y-108408723D01*
X140156174Y-108451563D01*
X140160942Y-108459467D01*
X140188870Y-108509850D01*
X140193021Y-108514693D01*
X140206591Y-108530526D01*
X140216352Y-108543527D01*
X140221688Y-108551680D01*
X140231264Y-108566314D01*
X140235547Y-108571071D01*
X140272682Y-108608206D01*
X140279255Y-108615304D01*
X140315591Y-108657698D01*
X140320628Y-108661605D01*
X140320630Y-108661607D01*
X140338679Y-108675607D01*
X140350547Y-108686071D01*
X144091224Y-112426748D01*
X144093678Y-112429270D01*
X144150466Y-112489322D01*
X144155691Y-112492981D01*
X144155695Y-112492984D01*
X144197645Y-112522357D01*
X144205009Y-112527926D01*
X144249643Y-112564329D01*
X144273778Y-112576946D01*
X144287668Y-112585392D01*
X144304745Y-112597350D01*
X144304753Y-112597355D01*
X144309975Y-112601011D01*
X144362823Y-112623880D01*
X144371159Y-112627856D01*
X144416550Y-112651586D01*
X144416554Y-112651587D01*
X144422209Y-112654544D01*
X144428340Y-112656302D01*
X144428350Y-112656306D01*
X144448392Y-112662053D01*
X144463696Y-112667532D01*
X144488684Y-112678345D01*
X144545087Y-112690128D01*
X144554017Y-112692338D01*
X144609390Y-112708216D01*
X144636545Y-112710306D01*
X144652635Y-112712596D01*
X144679293Y-112718165D01*
X144685685Y-112718500D01*
X144738197Y-112718500D01*
X144747864Y-112718871D01*
X144797179Y-112722666D01*
X144797183Y-112722666D01*
X144803539Y-112723155D01*
X144832520Y-112719494D01*
X144848311Y-112718500D01*
X146375812Y-112718500D01*
X146443933Y-112738502D01*
X146464907Y-112755405D01*
X146475700Y-112766198D01*
X146480208Y-112769355D01*
X146480211Y-112769357D01*
X146558389Y-112824098D01*
X146663251Y-112897523D01*
X146668233Y-112899846D01*
X146668238Y-112899849D01*
X146702457Y-112915805D01*
X146755742Y-112962722D01*
X146775203Y-113030999D01*
X146754661Y-113098959D01*
X146702457Y-113144195D01*
X146668238Y-113160151D01*
X146668233Y-113160154D01*
X146663251Y-113162477D01*
X146558389Y-113235902D01*
X146480211Y-113290643D01*
X146480208Y-113290645D01*
X146475700Y-113293802D01*
X146313802Y-113455700D01*
X146310645Y-113460208D01*
X146310643Y-113460211D01*
X146297289Y-113479283D01*
X146182477Y-113643251D01*
X146180154Y-113648233D01*
X146180151Y-113648238D01*
X146091060Y-113839297D01*
X146085716Y-113850757D01*
X146084294Y-113856065D01*
X146084293Y-113856067D01*
X146033779Y-114044588D01*
X146026457Y-114071913D01*
X146006502Y-114300000D01*
X146026457Y-114528087D01*
X146027881Y-114533400D01*
X146027881Y-114533402D01*
X146082553Y-114737437D01*
X146085716Y-114749243D01*
X146088039Y-114754224D01*
X146088039Y-114754225D01*
X146180151Y-114951762D01*
X146180154Y-114951767D01*
X146182477Y-114956749D01*
X146185634Y-114961257D01*
X146292579Y-115113990D01*
X146313802Y-115144300D01*
X146475700Y-115306198D01*
X146480208Y-115309355D01*
X146480211Y-115309357D01*
X146558389Y-115364098D01*
X146663251Y-115437523D01*
X146668233Y-115439846D01*
X146668238Y-115439849D01*
X146821068Y-115511114D01*
X146870757Y-115534284D01*
X146876065Y-115535706D01*
X146876067Y-115535707D01*
X147086598Y-115592119D01*
X147086600Y-115592119D01*
X147091913Y-115593543D01*
X147320000Y-115613498D01*
X147548087Y-115593543D01*
X147553400Y-115592119D01*
X147553402Y-115592119D01*
X147763933Y-115535707D01*
X147763935Y-115535706D01*
X147769243Y-115534284D01*
X147818932Y-115511114D01*
X147971762Y-115439849D01*
X147971767Y-115439846D01*
X147976749Y-115437523D01*
X148081611Y-115364098D01*
X148159789Y-115309357D01*
X148159792Y-115309355D01*
X148164300Y-115306198D01*
X148175093Y-115295405D01*
X148237405Y-115261379D01*
X148264188Y-115258500D01*
X149410786Y-115258500D01*
X149478907Y-115278502D01*
X149499881Y-115295405D01*
X151404595Y-117200118D01*
X151438620Y-117262430D01*
X151441500Y-117289213D01*
X151441500Y-121470787D01*
X151421498Y-121538908D01*
X151404595Y-121559882D01*
X149499881Y-123464595D01*
X149437569Y-123498621D01*
X149410786Y-123501500D01*
X114744213Y-123501500D01*
X114676092Y-123481498D01*
X114655118Y-123464595D01*
X108076532Y-116886008D01*
X108042506Y-116823696D01*
X108040051Y-116807237D01*
X108037469Y-116775821D01*
X108024852Y-116622361D01*
X107970431Y-116405702D01*
X107881354Y-116200840D01*
X107760014Y-116013277D01*
X107609670Y-115848051D01*
X107605619Y-115844852D01*
X107605615Y-115844848D01*
X107438414Y-115712800D01*
X107438410Y-115712798D01*
X107434359Y-115709598D01*
X107393053Y-115686796D01*
X107343084Y-115636364D01*
X107328312Y-115566921D01*
X107353428Y-115500516D01*
X107380780Y-115473909D01*
X107436217Y-115434366D01*
X107559860Y-115346173D01*
X107563515Y-115342531D01*
X107563523Y-115342524D01*
X107605946Y-115300249D01*
X107668317Y-115266333D01*
X107694885Y-115263500D01*
X131140812Y-115263500D01*
X131208933Y-115283502D01*
X131229907Y-115300405D01*
X131235700Y-115306198D01*
X131240208Y-115309355D01*
X131240211Y-115309357D01*
X131318389Y-115364098D01*
X131423251Y-115437523D01*
X131428233Y-115439846D01*
X131428238Y-115439849D01*
X131581068Y-115511114D01*
X131630757Y-115534284D01*
X131636065Y-115535706D01*
X131636067Y-115535707D01*
X131846598Y-115592119D01*
X131846600Y-115592119D01*
X131851913Y-115593543D01*
X132080000Y-115613498D01*
X132308087Y-115593543D01*
X132313400Y-115592119D01*
X132313402Y-115592119D01*
X132523933Y-115535707D01*
X132523935Y-115535706D01*
X132529243Y-115534284D01*
X132578932Y-115511114D01*
X132731762Y-115439849D01*
X132731767Y-115439846D01*
X132736749Y-115437523D01*
X132841611Y-115364098D01*
X132919789Y-115309357D01*
X132919792Y-115309355D01*
X132924300Y-115306198D01*
X133086198Y-115144300D01*
X133107422Y-115113990D01*
X133214366Y-114961257D01*
X133217523Y-114956749D01*
X133219846Y-114951767D01*
X133219849Y-114951762D01*
X133311961Y-114754225D01*
X133311961Y-114754224D01*
X133314284Y-114749243D01*
X133317448Y-114737437D01*
X133372119Y-114533402D01*
X133372119Y-114533400D01*
X133373543Y-114528087D01*
X133393498Y-114300000D01*
X133373543Y-114071913D01*
X133366221Y-114044588D01*
X133315707Y-113856067D01*
X133315706Y-113856065D01*
X133314284Y-113850757D01*
X133308940Y-113839297D01*
X133219849Y-113648238D01*
X133219846Y-113648233D01*
X133217523Y-113643251D01*
X133102711Y-113479283D01*
X133089357Y-113460211D01*
X133089355Y-113460208D01*
X133086198Y-113455700D01*
X132924300Y-113293802D01*
X132919792Y-113290645D01*
X132919789Y-113290643D01*
X132841611Y-113235902D01*
X132736749Y-113162477D01*
X132731767Y-113160154D01*
X132731762Y-113160151D01*
X132697543Y-113144195D01*
X132644258Y-113097278D01*
X132624797Y-113029001D01*
X132645339Y-112961041D01*
X132697543Y-112915805D01*
X132731762Y-112899849D01*
X132731767Y-112899846D01*
X132736749Y-112897523D01*
X132841611Y-112824098D01*
X132919789Y-112769357D01*
X132919792Y-112769355D01*
X132924300Y-112766198D01*
X133086198Y-112604300D01*
X133091065Y-112597350D01*
X133144098Y-112521611D01*
X133217523Y-112416749D01*
X133219846Y-112411767D01*
X133219849Y-112411762D01*
X133311961Y-112214225D01*
X133311961Y-112214224D01*
X133314284Y-112209243D01*
X133325444Y-112167596D01*
X133372119Y-111993402D01*
X133372119Y-111993400D01*
X133373543Y-111988087D01*
X133393498Y-111760000D01*
X133373543Y-111531913D01*
X133352532Y-111453500D01*
X133315707Y-111316067D01*
X133315706Y-111316065D01*
X133314284Y-111310757D01*
X133308940Y-111299297D01*
X133219849Y-111108238D01*
X133219846Y-111108233D01*
X133217523Y-111103251D01*
X133139524Y-110991857D01*
X133089357Y-110920211D01*
X133089355Y-110920208D01*
X133086198Y-110915700D01*
X132924300Y-110753802D01*
X132919792Y-110750645D01*
X132919789Y-110750643D01*
X132841611Y-110695902D01*
X132736749Y-110622477D01*
X132731767Y-110620154D01*
X132731762Y-110620151D01*
X132697543Y-110604195D01*
X132644258Y-110557278D01*
X132624797Y-110489001D01*
X132645339Y-110421041D01*
X132697543Y-110375805D01*
X132731762Y-110359849D01*
X132731767Y-110359846D01*
X132736749Y-110357523D01*
X132858373Y-110272361D01*
X132919789Y-110229357D01*
X132919792Y-110229355D01*
X132924300Y-110226198D01*
X133086198Y-110064300D01*
X133092219Y-110055702D01*
X133214366Y-109881257D01*
X133217523Y-109876749D01*
X133219846Y-109871767D01*
X133219849Y-109871762D01*
X133311961Y-109674225D01*
X133311961Y-109674224D01*
X133314284Y-109669243D01*
X133325444Y-109627596D01*
X133372119Y-109453402D01*
X133372119Y-109453400D01*
X133373543Y-109448087D01*
X133393498Y-109220000D01*
X133373543Y-108991913D01*
X133356669Y-108928938D01*
X133315707Y-108776067D01*
X133315706Y-108776065D01*
X133314284Y-108770757D01*
X133308940Y-108759297D01*
X133219849Y-108568238D01*
X133219846Y-108568233D01*
X133217523Y-108563251D01*
X133105577Y-108403376D01*
X133089357Y-108380211D01*
X133089355Y-108380208D01*
X133086198Y-108375700D01*
X132924300Y-108213802D01*
X132919792Y-108210645D01*
X132919789Y-108210643D01*
X132829443Y-108147382D01*
X132736749Y-108082477D01*
X132731767Y-108080154D01*
X132731762Y-108080151D01*
X132697543Y-108064195D01*
X132644258Y-108017278D01*
X132624797Y-107949001D01*
X132645339Y-107881041D01*
X132697543Y-107835805D01*
X132731762Y-107819849D01*
X132731767Y-107819846D01*
X132736749Y-107817523D01*
X132858373Y-107732361D01*
X132919789Y-107689357D01*
X132919792Y-107689355D01*
X132924300Y-107686198D01*
X133086198Y-107524300D01*
X133092219Y-107515702D01*
X133214366Y-107341257D01*
X133217523Y-107336749D01*
X133219846Y-107331767D01*
X133219849Y-107331762D01*
X133311961Y-107134225D01*
X133311961Y-107134224D01*
X133314284Y-107129243D01*
X133325444Y-107087596D01*
X133372119Y-106913402D01*
X133372119Y-106913400D01*
X133373543Y-106908087D01*
X133393498Y-106680000D01*
X133373543Y-106451913D01*
X133356669Y-106388938D01*
X133315707Y-106236067D01*
X133315706Y-106236065D01*
X133314284Y-106230757D01*
X133308940Y-106219297D01*
X133219849Y-106028238D01*
X133219846Y-106028233D01*
X133217523Y-106023251D01*
X133086198Y-105835700D01*
X132924300Y-105673802D01*
X132919792Y-105670645D01*
X132919789Y-105670643D01*
X132841611Y-105615902D01*
X132736749Y-105542477D01*
X132731767Y-105540154D01*
X132731762Y-105540151D01*
X132697543Y-105524195D01*
X132644258Y-105477278D01*
X132624797Y-105409001D01*
X132645339Y-105341041D01*
X132697543Y-105295805D01*
X132731762Y-105279849D01*
X132731767Y-105279846D01*
X132736749Y-105277523D01*
X132858373Y-105192361D01*
X132919789Y-105149357D01*
X132919792Y-105149355D01*
X132924300Y-105146198D01*
X133086198Y-104984300D01*
X133092219Y-104975702D01*
X133214366Y-104801257D01*
X133217523Y-104796749D01*
X133219846Y-104791767D01*
X133219849Y-104791762D01*
X133311961Y-104594225D01*
X133311961Y-104594224D01*
X133314284Y-104589243D01*
X133325444Y-104547596D01*
X133372119Y-104373402D01*
X133372119Y-104373400D01*
X133373543Y-104368087D01*
X133393498Y-104140000D01*
X133373543Y-103911913D01*
X133356669Y-103848938D01*
X133315707Y-103696067D01*
X133315706Y-103696065D01*
X133314284Y-103690757D01*
X133308940Y-103679297D01*
X133219849Y-103488238D01*
X133219846Y-103488233D01*
X133217523Y-103483251D01*
X133086198Y-103295700D01*
X132924300Y-103133802D01*
X132919792Y-103130645D01*
X132919789Y-103130643D01*
X132841611Y-103075902D01*
X132736749Y-103002477D01*
X132731767Y-103000154D01*
X132731762Y-103000151D01*
X132697543Y-102984195D01*
X132644258Y-102937278D01*
X132624797Y-102869001D01*
X132645339Y-102801041D01*
X132697543Y-102755805D01*
X132731762Y-102739849D01*
X132731767Y-102739846D01*
X132736749Y-102737523D01*
X132858373Y-102652361D01*
X132919789Y-102609357D01*
X132919792Y-102609355D01*
X132924300Y-102606198D01*
X133086198Y-102444300D01*
X133092219Y-102435702D01*
X133214366Y-102261257D01*
X133217523Y-102256749D01*
X133219846Y-102251767D01*
X133219849Y-102251762D01*
X133311961Y-102054225D01*
X133311961Y-102054224D01*
X133314284Y-102049243D01*
X133325444Y-102007596D01*
X133372119Y-101833402D01*
X133372119Y-101833400D01*
X133373543Y-101828087D01*
X133393498Y-101600000D01*
X133373543Y-101371913D01*
X133356669Y-101308938D01*
X133315707Y-101156067D01*
X133315706Y-101156065D01*
X133314284Y-101150757D01*
X133308940Y-101139297D01*
X133219849Y-100948238D01*
X133219846Y-100948233D01*
X133217523Y-100943251D01*
X133086198Y-100755700D01*
X132924300Y-100593802D01*
X132919792Y-100590645D01*
X132919789Y-100590643D01*
X132841611Y-100535902D01*
X132736749Y-100462477D01*
X132731767Y-100460154D01*
X132731762Y-100460151D01*
X132697543Y-100444195D01*
X132644258Y-100397278D01*
X132624797Y-100329001D01*
X132645339Y-100261041D01*
X132697543Y-100215805D01*
X132731762Y-100199849D01*
X132731767Y-100199846D01*
X132736749Y-100197523D01*
X132858373Y-100112361D01*
X132919789Y-100069357D01*
X132919792Y-100069355D01*
X132924300Y-100066198D01*
X133086198Y-99904300D01*
X133092219Y-99895702D01*
X133214366Y-99721257D01*
X133217523Y-99716749D01*
X133219846Y-99711767D01*
X133219849Y-99711762D01*
X133311961Y-99514225D01*
X133311961Y-99514224D01*
X133314284Y-99509243D01*
X133325444Y-99467596D01*
X133372119Y-99293402D01*
X133372119Y-99293400D01*
X133373543Y-99288087D01*
X133393498Y-99060000D01*
X133373543Y-98831913D01*
X133356669Y-98768938D01*
X133315707Y-98616067D01*
X133315706Y-98616065D01*
X133314284Y-98610757D01*
X133308940Y-98599297D01*
X133219849Y-98408238D01*
X133219846Y-98408233D01*
X133217523Y-98403251D01*
X133086198Y-98215700D01*
X132924300Y-98053802D01*
X132919792Y-98050645D01*
X132919789Y-98050643D01*
X132841611Y-97995902D01*
X132736749Y-97922477D01*
X132731767Y-97920154D01*
X132731762Y-97920151D01*
X132697543Y-97904195D01*
X132644258Y-97857278D01*
X132624797Y-97789001D01*
X132645339Y-97721041D01*
X132697543Y-97675805D01*
X132731762Y-97659849D01*
X132731767Y-97659846D01*
X132736749Y-97657523D01*
X132858373Y-97572361D01*
X132919789Y-97529357D01*
X132919792Y-97529355D01*
X132924300Y-97526198D01*
X133086198Y-97364300D01*
X133091063Y-97357353D01*
X133145965Y-97278944D01*
X133217523Y-97176749D01*
X133219846Y-97171767D01*
X133219849Y-97171762D01*
X133311961Y-96974225D01*
X133311961Y-96974224D01*
X133314284Y-96969243D01*
X133325444Y-96927596D01*
X133372119Y-96753402D01*
X133372119Y-96753400D01*
X133373543Y-96748087D01*
X133393498Y-96520000D01*
X133373543Y-96291913D01*
X133356669Y-96228938D01*
X133315707Y-96076067D01*
X133315706Y-96076065D01*
X133314284Y-96070757D01*
X133308940Y-96059297D01*
X133219849Y-95868238D01*
X133219846Y-95868233D01*
X133217523Y-95863251D01*
X133086198Y-95675700D01*
X132924300Y-95513802D01*
X132919792Y-95510645D01*
X132919789Y-95510643D01*
X132786864Y-95417568D01*
X132736749Y-95382477D01*
X132731767Y-95380154D01*
X132731762Y-95380151D01*
X132697543Y-95364195D01*
X132644258Y-95317278D01*
X132624797Y-95249001D01*
X132645339Y-95181041D01*
X132697543Y-95135805D01*
X132731762Y-95119849D01*
X132731767Y-95119846D01*
X132736749Y-95117523D01*
X132858373Y-95032361D01*
X132919789Y-94989357D01*
X132919792Y-94989355D01*
X132924300Y-94986198D01*
X133086198Y-94824300D01*
X133092219Y-94815702D01*
X133185784Y-94682077D01*
X133217523Y-94636749D01*
X133219846Y-94631767D01*
X133219849Y-94631762D01*
X133311961Y-94434225D01*
X133311961Y-94434224D01*
X133314284Y-94429243D01*
X133325444Y-94387596D01*
X133372119Y-94213402D01*
X133372119Y-94213400D01*
X133373543Y-94208087D01*
X133393498Y-93980000D01*
X133373543Y-93751913D01*
X133366221Y-93724588D01*
X133315707Y-93536067D01*
X133315706Y-93536065D01*
X133314284Y-93530757D01*
X133308940Y-93519297D01*
X133219849Y-93328238D01*
X133219846Y-93328233D01*
X133217523Y-93323251D01*
X133092540Y-93144757D01*
X133089357Y-93140211D01*
X133089355Y-93140208D01*
X133086198Y-93135700D01*
X132924300Y-92973802D01*
X132919792Y-92970645D01*
X132919789Y-92970643D01*
X132784780Y-92876109D01*
X132736749Y-92842477D01*
X132731767Y-92840154D01*
X132731762Y-92840151D01*
X132697543Y-92824195D01*
X132644258Y-92777278D01*
X132624797Y-92709001D01*
X132645339Y-92641041D01*
X132697543Y-92595805D01*
X132731762Y-92579849D01*
X132731767Y-92579846D01*
X132736749Y-92577523D01*
X132858373Y-92492361D01*
X132919789Y-92449357D01*
X132919792Y-92449355D01*
X132924300Y-92446198D01*
X133086198Y-92284300D01*
X133092219Y-92275702D01*
X133214366Y-92101257D01*
X133217523Y-92096749D01*
X133219846Y-92091767D01*
X133219849Y-92091762D01*
X133311961Y-91894225D01*
X133311961Y-91894224D01*
X133314284Y-91889243D01*
X133325444Y-91847596D01*
X133372119Y-91673402D01*
X133372119Y-91673400D01*
X133373543Y-91668087D01*
X133393498Y-91440000D01*
X133373543Y-91211913D01*
X133366071Y-91184026D01*
X133315707Y-90996067D01*
X133315706Y-90996065D01*
X133314284Y-90990757D01*
X133311315Y-90984389D01*
X133219849Y-90788238D01*
X133219846Y-90788233D01*
X133217523Y-90783251D01*
X133105282Y-90622954D01*
X133089357Y-90600211D01*
X133089355Y-90600208D01*
X133086198Y-90595700D01*
X132924300Y-90433802D01*
X132919792Y-90430645D01*
X132919789Y-90430643D01*
X132759589Y-90318470D01*
X132736749Y-90302477D01*
X132731767Y-90300154D01*
X132731762Y-90300151D01*
X132697543Y-90284195D01*
X132644258Y-90237278D01*
X132624797Y-90169001D01*
X132645339Y-90101041D01*
X132697543Y-90055805D01*
X132731762Y-90039849D01*
X132731767Y-90039846D01*
X132736749Y-90037523D01*
X132858373Y-89952361D01*
X132919789Y-89909357D01*
X132919792Y-89909355D01*
X132924300Y-89906198D01*
X133086198Y-89744300D01*
X133092219Y-89735702D01*
X133214366Y-89561257D01*
X133217523Y-89556749D01*
X133219846Y-89551767D01*
X133219849Y-89551762D01*
X133311961Y-89354225D01*
X133311961Y-89354224D01*
X133314284Y-89349243D01*
X133325444Y-89307596D01*
X133372119Y-89133402D01*
X133372119Y-89133400D01*
X133373543Y-89128087D01*
X133393498Y-88900000D01*
X133373543Y-88671913D01*
X133372119Y-88666598D01*
X133315707Y-88456067D01*
X133315706Y-88456065D01*
X133314284Y-88450757D01*
X133308940Y-88439297D01*
X133219849Y-88248238D01*
X133219846Y-88248233D01*
X133217523Y-88243251D01*
X133094090Y-88066971D01*
X133089357Y-88060211D01*
X133089355Y-88060208D01*
X133086198Y-88055700D01*
X132924300Y-87893802D01*
X132919792Y-87890645D01*
X132919789Y-87890643D01*
X132841611Y-87835902D01*
X132736749Y-87762477D01*
X132731767Y-87760154D01*
X132731762Y-87760151D01*
X132696951Y-87743919D01*
X132643666Y-87697002D01*
X132624205Y-87628725D01*
X132644747Y-87560765D01*
X132696951Y-87515529D01*
X132731511Y-87499414D01*
X132741007Y-87493931D01*
X132919467Y-87368972D01*
X132927875Y-87361916D01*
X133081916Y-87207875D01*
X133088972Y-87199467D01*
X133213931Y-87021007D01*
X133219414Y-87011511D01*
X133311490Y-86814053D01*
X133315236Y-86803761D01*
X133361394Y-86631497D01*
X133361058Y-86617401D01*
X133353116Y-86614000D01*
X130812033Y-86614000D01*
X130798502Y-86617973D01*
X130797273Y-86626522D01*
X130844764Y-86803761D01*
X130848510Y-86814053D01*
X130940586Y-87011511D01*
X130946069Y-87021007D01*
X131071028Y-87199467D01*
X131078084Y-87207875D01*
X131232125Y-87361916D01*
X131240533Y-87368972D01*
X131418993Y-87493931D01*
X131428489Y-87499414D01*
X131463049Y-87515529D01*
X131516334Y-87562446D01*
X131535795Y-87630723D01*
X131515253Y-87698683D01*
X131463049Y-87743919D01*
X131428238Y-87760151D01*
X131428233Y-87760154D01*
X131423251Y-87762477D01*
X131318389Y-87835902D01*
X131240211Y-87890643D01*
X131240208Y-87890645D01*
X131235700Y-87893802D01*
X131219907Y-87909595D01*
X131157595Y-87943621D01*
X131130812Y-87946500D01*
X107699913Y-87946500D01*
X107631792Y-87926498D01*
X107613981Y-87912651D01*
X107613154Y-87911880D01*
X107609670Y-87908051D01*
X107577355Y-87882530D01*
X107438414Y-87772800D01*
X107438410Y-87772798D01*
X107434359Y-87769598D01*
X107393053Y-87746796D01*
X107343084Y-87696364D01*
X107328312Y-87626921D01*
X107353428Y-87560516D01*
X107380780Y-87533909D01*
X107436827Y-87493931D01*
X107559860Y-87406173D01*
X107718096Y-87248489D01*
X107778572Y-87164328D01*
X107845435Y-87071277D01*
X107848453Y-87067077D01*
X107851157Y-87061607D01*
X107945136Y-86871453D01*
X107945137Y-86871451D01*
X107947430Y-86866811D01*
X108012370Y-86653069D01*
X108041529Y-86431590D01*
X108041710Y-86424179D01*
X108043074Y-86368365D01*
X108043074Y-86368361D01*
X108043156Y-86365000D01*
X108024852Y-86142361D01*
X107970431Y-85925702D01*
X107881354Y-85720840D01*
X107760014Y-85533277D01*
X107609670Y-85368051D01*
X107605619Y-85364852D01*
X107605615Y-85364848D01*
X107438414Y-85232800D01*
X107438410Y-85232798D01*
X107434359Y-85229598D01*
X107393053Y-85206796D01*
X107343084Y-85156364D01*
X107328312Y-85086921D01*
X107353428Y-85020516D01*
X107380780Y-84993909D01*
X107436217Y-84954366D01*
X107559860Y-84866173D01*
X107563515Y-84862531D01*
X107563523Y-84862524D01*
X107605946Y-84820249D01*
X107668317Y-84786333D01*
X107694885Y-84783500D01*
X126979451Y-84783500D01*
X126982969Y-84783549D01*
X127059179Y-84785678D01*
X127059182Y-84785678D01*
X127065561Y-84785856D01*
X127079200Y-84783451D01*
X127122287Y-84775854D01*
X127131432Y-84774585D01*
X127143220Y-84773387D01*
X127188727Y-84768765D01*
X127214717Y-84760620D01*
X127230512Y-84756770D01*
X127251040Y-84753151D01*
X127251044Y-84753150D01*
X127257327Y-84752042D01*
X127263262Y-84749692D01*
X127263266Y-84749691D01*
X127310875Y-84730841D01*
X127319562Y-84727764D01*
X127374541Y-84710535D01*
X127398364Y-84697330D01*
X127413066Y-84690380D01*
X127432437Y-84682711D01*
X127432442Y-84682709D01*
X127438376Y-84680359D01*
X127486566Y-84648824D01*
X127494470Y-84644056D01*
X127539270Y-84619223D01*
X127544850Y-84616130D01*
X127549983Y-84611730D01*
X127565526Y-84598409D01*
X127578527Y-84588648D01*
X127597261Y-84576388D01*
X127601314Y-84573736D01*
X127606071Y-84569453D01*
X127643206Y-84532318D01*
X127650304Y-84525745D01*
X127655132Y-84521607D01*
X127692698Y-84489409D01*
X127699022Y-84481257D01*
X127710607Y-84466321D01*
X127721071Y-84454453D01*
X129900119Y-82275405D01*
X129962431Y-82241379D01*
X129989214Y-82238500D01*
X131135812Y-82238500D01*
X131203933Y-82258502D01*
X131224907Y-82275405D01*
X131235700Y-82286198D01*
X131240208Y-82289355D01*
X131240211Y-82289357D01*
X131318389Y-82344098D01*
X131423251Y-82417523D01*
X131428233Y-82419846D01*
X131428238Y-82419849D01*
X131462457Y-82435805D01*
X131515742Y-82482722D01*
X131535203Y-82550999D01*
X131514661Y-82618959D01*
X131462457Y-82664195D01*
X131428238Y-82680151D01*
X131428233Y-82680154D01*
X131423251Y-82682477D01*
X131318389Y-82755902D01*
X131240211Y-82810643D01*
X131240208Y-82810645D01*
X131235700Y-82813802D01*
X131073802Y-82975700D01*
X131070645Y-82980208D01*
X131070643Y-82980211D01*
X131015902Y-83058389D01*
X130942477Y-83163251D01*
X130940154Y-83168233D01*
X130940151Y-83168238D01*
X130851060Y-83359297D01*
X130845716Y-83370757D01*
X130844294Y-83376065D01*
X130844293Y-83376067D01*
X130787881Y-83586598D01*
X130786457Y-83591913D01*
X130766502Y-83820000D01*
X130786457Y-84048087D01*
X130787881Y-84053400D01*
X130787881Y-84053402D01*
X130842553Y-84257437D01*
X130845716Y-84269243D01*
X130848039Y-84274224D01*
X130848039Y-84274225D01*
X130940151Y-84471762D01*
X130940154Y-84471767D01*
X130942477Y-84476749D01*
X130991017Y-84546071D01*
X131068933Y-84657346D01*
X131073802Y-84664300D01*
X131235700Y-84826198D01*
X131240208Y-84829355D01*
X131240211Y-84829357D01*
X131318389Y-84884098D01*
X131423251Y-84957523D01*
X131428233Y-84959846D01*
X131428238Y-84959849D01*
X131463049Y-84976081D01*
X131516334Y-85022998D01*
X131535795Y-85091275D01*
X131515253Y-85159235D01*
X131463049Y-85204471D01*
X131428489Y-85220586D01*
X131418993Y-85226069D01*
X131240533Y-85351028D01*
X131232125Y-85358084D01*
X131078084Y-85512125D01*
X131071028Y-85520533D01*
X130946069Y-85698993D01*
X130940586Y-85708489D01*
X130848510Y-85905947D01*
X130844764Y-85916239D01*
X130798606Y-86088503D01*
X130798942Y-86102599D01*
X130806884Y-86106000D01*
X133347967Y-86106000D01*
X133361498Y-86102027D01*
X133362727Y-86093478D01*
X133315236Y-85916239D01*
X133311490Y-85905947D01*
X133219414Y-85708489D01*
X133213931Y-85698993D01*
X133088972Y-85520533D01*
X133081916Y-85512125D01*
X132927875Y-85358084D01*
X132919467Y-85351028D01*
X132741007Y-85226069D01*
X132731511Y-85220586D01*
X132696951Y-85204471D01*
X132643666Y-85157554D01*
X132624205Y-85089277D01*
X132644747Y-85021317D01*
X132696951Y-84976081D01*
X132731762Y-84959849D01*
X132731767Y-84959846D01*
X132736749Y-84957523D01*
X132841611Y-84884098D01*
X132919789Y-84829357D01*
X132919792Y-84829355D01*
X132924300Y-84826198D01*
X133086198Y-84664300D01*
X133091068Y-84657346D01*
X133168983Y-84546071D01*
X133217523Y-84476749D01*
X133219846Y-84471767D01*
X133219849Y-84471762D01*
X133311961Y-84274225D01*
X133311961Y-84274224D01*
X133314284Y-84269243D01*
X133317448Y-84257437D01*
X133372119Y-84053402D01*
X133372119Y-84053400D01*
X133373543Y-84048087D01*
X133393498Y-83820000D01*
X133373543Y-83591913D01*
X133372119Y-83586598D01*
X133315707Y-83376067D01*
X133315706Y-83376065D01*
X133314284Y-83370757D01*
X133308940Y-83359297D01*
X133219849Y-83168238D01*
X133219846Y-83168233D01*
X133217523Y-83163251D01*
X133144098Y-83058389D01*
X133089357Y-82980211D01*
X133089355Y-82980208D01*
X133086198Y-82975700D01*
X132924300Y-82813802D01*
X132919792Y-82810645D01*
X132919789Y-82810643D01*
X132841611Y-82755902D01*
X132736749Y-82682477D01*
X132731767Y-82680154D01*
X132731762Y-82680151D01*
X132697543Y-82664195D01*
X132644258Y-82617278D01*
X132624797Y-82549001D01*
X132645339Y-82481041D01*
X132697543Y-82435805D01*
X132731762Y-82419849D01*
X132731767Y-82419846D01*
X132736749Y-82417523D01*
X132841611Y-82344098D01*
X132919789Y-82289357D01*
X132919792Y-82289355D01*
X132924300Y-82286198D01*
X133086198Y-82124300D01*
X133217523Y-81936749D01*
X133219846Y-81931767D01*
X133219849Y-81931762D01*
X133311961Y-81734225D01*
X133311961Y-81734224D01*
X133314284Y-81729243D01*
X133373543Y-81508087D01*
X133393498Y-81280000D01*
X133373543Y-81051913D01*
X133363244Y-81013478D01*
X133315707Y-80836067D01*
X133315706Y-80836065D01*
X133314284Y-80830757D01*
X133311961Y-80825775D01*
X133219849Y-80628238D01*
X133219846Y-80628233D01*
X133217523Y-80623251D01*
X133086198Y-80435700D01*
X132924300Y-80273802D01*
X132919789Y-80270643D01*
X132915576Y-80267108D01*
X132916527Y-80265974D01*
X132876529Y-80215929D01*
X132869224Y-80145310D01*
X132901258Y-80081951D01*
X132962462Y-80045970D01*
X132979517Y-80042918D01*
X132990316Y-80041745D01*
X133126705Y-79990615D01*
X133243261Y-79903261D01*
X133330615Y-79786705D01*
X133381745Y-79650316D01*
X133388500Y-79588134D01*
X133388500Y-77891866D01*
X133381745Y-77829684D01*
X133330615Y-77693295D01*
X133243261Y-77576739D01*
X133126705Y-77489385D01*
X132990316Y-77438255D01*
X132928134Y-77431500D01*
X131231866Y-77431500D01*
X131169684Y-77438255D01*
X131033295Y-77489385D01*
X130916739Y-77576739D01*
X130829385Y-77693295D01*
X130826233Y-77701703D01*
X130821923Y-77709575D01*
X130820259Y-77708664D01*
X130784337Y-77756490D01*
X130717776Y-77781193D01*
X130708991Y-77781500D01*
X114749213Y-77781500D01*
X114681092Y-77761498D01*
X114660118Y-77744595D01*
X112448776Y-75533252D01*
X112446322Y-75530730D01*
X112393916Y-75475312D01*
X112389534Y-75470678D01*
X112342328Y-75437624D01*
X112335002Y-75432084D01*
X112290357Y-75395672D01*
X112266230Y-75383059D01*
X112252332Y-75374609D01*
X112235253Y-75362650D01*
X112230025Y-75358989D01*
X112191434Y-75342289D01*
X112177172Y-75336117D01*
X112168838Y-75332142D01*
X112140941Y-75317558D01*
X112117792Y-75305456D01*
X112091606Y-75297948D01*
X112076312Y-75292472D01*
X112051316Y-75281655D01*
X112045071Y-75280350D01*
X112045070Y-75280350D01*
X111994935Y-75269876D01*
X111985985Y-75267661D01*
X111930611Y-75251784D01*
X111903456Y-75249695D01*
X111887367Y-75247405D01*
X111860707Y-75241835D01*
X111854315Y-75241500D01*
X111801803Y-75241500D01*
X111792136Y-75241129D01*
X111742821Y-75237334D01*
X111742817Y-75237334D01*
X111736461Y-75236845D01*
X111707481Y-75240506D01*
X111691689Y-75241500D01*
X101615535Y-75241500D01*
X101612016Y-75241451D01*
X101535821Y-75239322D01*
X101535818Y-75239322D01*
X101529439Y-75239144D01*
X101523149Y-75240253D01*
X101523150Y-75240253D01*
X101472713Y-75249146D01*
X101463568Y-75250415D01*
X101454906Y-75251295D01*
X101406273Y-75256235D01*
X101380283Y-75264380D01*
X101364488Y-75268230D01*
X101343960Y-75271849D01*
X101343956Y-75271850D01*
X101337673Y-75272958D01*
X101288394Y-75292469D01*
X101284123Y-75294160D01*
X101275418Y-75297242D01*
X101226549Y-75312556D01*
X101226545Y-75312558D01*
X101220459Y-75314465D01*
X101214883Y-75317556D01*
X101214878Y-75317558D01*
X101196634Y-75327671D01*
X101181935Y-75334619D01*
X101178152Y-75336117D01*
X101156623Y-75344641D01*
X101151280Y-75348138D01*
X101151275Y-75348140D01*
X101116988Y-75370578D01*
X101110828Y-75374609D01*
X101108433Y-75376176D01*
X101100529Y-75380944D01*
X101050150Y-75408870D01*
X101045311Y-75413017D01*
X101045306Y-75413021D01*
X101029476Y-75426590D01*
X101016469Y-75436356D01*
X100997734Y-75448615D01*
X100997730Y-75448618D01*
X100993685Y-75451265D01*
X100988929Y-75455548D01*
X100951801Y-75492676D01*
X100944703Y-75499249D01*
X100902302Y-75535591D01*
X100884387Y-75558686D01*
X100873929Y-75570548D01*
X98393252Y-78051224D01*
X98390730Y-78053678D01*
X98330678Y-78110466D01*
X98297624Y-78157672D01*
X98292084Y-78164998D01*
X98255672Y-78209643D01*
X98252715Y-78215300D01*
X98252714Y-78215301D01*
X98243059Y-78233770D01*
X98234609Y-78247668D01*
X98218989Y-78269975D01*
X98216455Y-78275831D01*
X98196117Y-78322828D01*
X98192142Y-78331162D01*
X98165456Y-78382208D01*
X98157948Y-78408394D01*
X98152472Y-78423688D01*
X98141655Y-78448684D01*
X98140350Y-78454929D01*
X98140350Y-78454930D01*
X98129876Y-78505065D01*
X98127661Y-78514015D01*
X98111784Y-78569389D01*
X98111295Y-78575750D01*
X98109695Y-78596541D01*
X98107405Y-78612633D01*
X98101835Y-78639293D01*
X98101500Y-78645685D01*
X98101500Y-78698197D01*
X98101129Y-78707864D01*
X98097608Y-78753626D01*
X98096845Y-78763539D01*
X81788000Y-78763539D01*
X81788000Y-66934669D01*
X134542001Y-66934669D01*
X134542371Y-66941490D01*
X134547895Y-66992352D01*
X134551521Y-67007604D01*
X134596676Y-67128054D01*
X134605214Y-67143649D01*
X134681715Y-67245724D01*
X134694276Y-67258285D01*
X134796351Y-67334786D01*
X134811946Y-67343324D01*
X134932394Y-67388478D01*
X134947649Y-67392105D01*
X134998514Y-67397631D01*
X135005328Y-67398000D01*
X135627885Y-67398000D01*
X135643124Y-67393525D01*
X135644329Y-67392135D01*
X135646000Y-67384452D01*
X135646000Y-66312115D01*
X135641525Y-66296876D01*
X135640135Y-66295671D01*
X135632452Y-66294000D01*
X134560116Y-66294000D01*
X134544877Y-66298475D01*
X134543672Y-66299865D01*
X134542001Y-66307548D01*
X134542001Y-66934669D01*
X81788000Y-66934669D01*
X81788000Y-65767885D01*
X134542000Y-65767885D01*
X134546475Y-65783124D01*
X134547865Y-65784329D01*
X134555548Y-65786000D01*
X135627885Y-65786000D01*
X135643124Y-65781525D01*
X135644329Y-65780135D01*
X135646000Y-65772452D01*
X135646000Y-64700116D01*
X135641525Y-64684877D01*
X135640135Y-64683672D01*
X135632452Y-64682001D01*
X135005331Y-64682001D01*
X134998510Y-64682371D01*
X134947648Y-64687895D01*
X134932396Y-64691521D01*
X134811946Y-64736676D01*
X134796351Y-64745214D01*
X134694276Y-64821715D01*
X134681715Y-64834276D01*
X134605214Y-64936351D01*
X134596676Y-64951946D01*
X134551522Y-65072394D01*
X134547895Y-65087649D01*
X134542369Y-65138514D01*
X134542000Y-65145328D01*
X134542000Y-65767885D01*
X81788000Y-65767885D01*
X81788000Y-56514000D01*
X81808002Y-56445879D01*
X81861658Y-56399386D01*
X81914000Y-56388000D01*
X185157390Y-56388000D01*
X185225511Y-56408002D01*
G37*
%TD.AperFunction*%
%TA.AperFunction,Conductor*%
G36*
X152018907Y-61938502D02*
G01*
X152039881Y-61955405D01*
X156484595Y-66400119D01*
X156518621Y-66462431D01*
X156521500Y-66489214D01*
X156521500Y-75750786D01*
X156501498Y-75818907D01*
X156484595Y-75839881D01*
X148793013Y-83531463D01*
X148730701Y-83565489D01*
X148659886Y-83560424D01*
X148603050Y-83517877D01*
X148582212Y-83474980D01*
X148555710Y-83376075D01*
X148555706Y-83376064D01*
X148554284Y-83370757D01*
X148548940Y-83359297D01*
X148459849Y-83168238D01*
X148459846Y-83168233D01*
X148457523Y-83163251D01*
X148384098Y-83058389D01*
X148329357Y-82980211D01*
X148329355Y-82980208D01*
X148326198Y-82975700D01*
X148164300Y-82813802D01*
X148159792Y-82810645D01*
X148159789Y-82810643D01*
X148081611Y-82755902D01*
X147976749Y-82682477D01*
X147971767Y-82680154D01*
X147971762Y-82680151D01*
X147936951Y-82663919D01*
X147883666Y-82617002D01*
X147864205Y-82548725D01*
X147884747Y-82480765D01*
X147936951Y-82435529D01*
X147971511Y-82419414D01*
X147981007Y-82413931D01*
X148159467Y-82288972D01*
X148167875Y-82281916D01*
X148321916Y-82127875D01*
X148328972Y-82119467D01*
X148453931Y-81941007D01*
X148459414Y-81931511D01*
X148551490Y-81734053D01*
X148555236Y-81723761D01*
X148601394Y-81551497D01*
X148601058Y-81537401D01*
X148593116Y-81534000D01*
X146052033Y-81534000D01*
X146038502Y-81537973D01*
X146037273Y-81546522D01*
X146084764Y-81723761D01*
X146088510Y-81734053D01*
X146180586Y-81931511D01*
X146186069Y-81941007D01*
X146311028Y-82119467D01*
X146318084Y-82127875D01*
X146472125Y-82281916D01*
X146480533Y-82288972D01*
X146658993Y-82413931D01*
X146668489Y-82419414D01*
X146703049Y-82435529D01*
X146756334Y-82482446D01*
X146775795Y-82550723D01*
X146755253Y-82618683D01*
X146703049Y-82663919D01*
X146668238Y-82680151D01*
X146668233Y-82680154D01*
X146663251Y-82682477D01*
X146558389Y-82755902D01*
X146480211Y-82810643D01*
X146480208Y-82810645D01*
X146475700Y-82813802D01*
X146313802Y-82975700D01*
X146310645Y-82980208D01*
X146310643Y-82980211D01*
X146255902Y-83058389D01*
X146182477Y-83163251D01*
X146180154Y-83168233D01*
X146180151Y-83168238D01*
X146091060Y-83359297D01*
X146085716Y-83370757D01*
X146084294Y-83376065D01*
X146084293Y-83376067D01*
X146027881Y-83586598D01*
X146026457Y-83591913D01*
X146006502Y-83820000D01*
X146026457Y-84048087D01*
X146027881Y-84053400D01*
X146027881Y-84053402D01*
X146082553Y-84257437D01*
X146085716Y-84269243D01*
X146088039Y-84274224D01*
X146088039Y-84274225D01*
X146180151Y-84471762D01*
X146180154Y-84471767D01*
X146182477Y-84476749D01*
X146231017Y-84546071D01*
X146308933Y-84657346D01*
X146313802Y-84664300D01*
X146475700Y-84826198D01*
X146480208Y-84829355D01*
X146480211Y-84829357D01*
X146558389Y-84884098D01*
X146663251Y-84957523D01*
X146668233Y-84959846D01*
X146668238Y-84959849D01*
X146702457Y-84975805D01*
X146755742Y-85022722D01*
X146775203Y-85090999D01*
X146754661Y-85158959D01*
X146702457Y-85204195D01*
X146668238Y-85220151D01*
X146668233Y-85220154D01*
X146663251Y-85222477D01*
X146558389Y-85295902D01*
X146480211Y-85350643D01*
X146480208Y-85350645D01*
X146475700Y-85353802D01*
X146313802Y-85515700D01*
X146310645Y-85520208D01*
X146310643Y-85520211D01*
X146255902Y-85598389D01*
X146182477Y-85703251D01*
X146180154Y-85708233D01*
X146180151Y-85708238D01*
X146174275Y-85720840D01*
X146085716Y-85910757D01*
X146026457Y-86131913D01*
X146006502Y-86360000D01*
X146026457Y-86588087D01*
X146027881Y-86593400D01*
X146027881Y-86593402D01*
X146082553Y-86797437D01*
X146085716Y-86809243D01*
X146088039Y-86814224D01*
X146088039Y-86814225D01*
X146180151Y-87011762D01*
X146180154Y-87011767D01*
X146182477Y-87016749D01*
X146255902Y-87121611D01*
X146308936Y-87197350D01*
X146313802Y-87204300D01*
X146475700Y-87366198D01*
X146480208Y-87369355D01*
X146480211Y-87369357D01*
X146558389Y-87424098D01*
X146663251Y-87497523D01*
X146668233Y-87499846D01*
X146668238Y-87499849D01*
X146702457Y-87515805D01*
X146755742Y-87562722D01*
X146775203Y-87630999D01*
X146754661Y-87698959D01*
X146702457Y-87744195D01*
X146668238Y-87760151D01*
X146668233Y-87760154D01*
X146663251Y-87762477D01*
X146558389Y-87835902D01*
X146480211Y-87890643D01*
X146480208Y-87890645D01*
X146475700Y-87893802D01*
X146313802Y-88055700D01*
X146310645Y-88060208D01*
X146310643Y-88060211D01*
X146305910Y-88066971D01*
X146182477Y-88243251D01*
X146180154Y-88248233D01*
X146180151Y-88248238D01*
X146091060Y-88439297D01*
X146085716Y-88450757D01*
X146084294Y-88456065D01*
X146084293Y-88456067D01*
X146027881Y-88666598D01*
X146026457Y-88671913D01*
X146006502Y-88900000D01*
X146026457Y-89128087D01*
X146027881Y-89133400D01*
X146027881Y-89133402D01*
X146074557Y-89307596D01*
X146085716Y-89349243D01*
X146088039Y-89354224D01*
X146088039Y-89354225D01*
X146180151Y-89551762D01*
X146180154Y-89551767D01*
X146182477Y-89556749D01*
X146185634Y-89561257D01*
X146307782Y-89735702D01*
X146313802Y-89744300D01*
X146475700Y-89906198D01*
X146480208Y-89909355D01*
X146480211Y-89909357D01*
X146541627Y-89952361D01*
X146663251Y-90037523D01*
X146668233Y-90039846D01*
X146668238Y-90039849D01*
X146702457Y-90055805D01*
X146755742Y-90102722D01*
X146775203Y-90170999D01*
X146754661Y-90238959D01*
X146702457Y-90284195D01*
X146668238Y-90300151D01*
X146668233Y-90300154D01*
X146663251Y-90302477D01*
X146640411Y-90318470D01*
X146480211Y-90430643D01*
X146480208Y-90430645D01*
X146475700Y-90433802D01*
X146313802Y-90595700D01*
X146310645Y-90600208D01*
X146310643Y-90600211D01*
X146294718Y-90622954D01*
X146182477Y-90783251D01*
X146180154Y-90788233D01*
X146180151Y-90788238D01*
X146088685Y-90984389D01*
X146085716Y-90990757D01*
X146084294Y-90996065D01*
X146084293Y-90996067D01*
X146033929Y-91184026D01*
X146026457Y-91211913D01*
X146006502Y-91440000D01*
X146026457Y-91668087D01*
X146027881Y-91673400D01*
X146027881Y-91673402D01*
X146074557Y-91847596D01*
X146085716Y-91889243D01*
X146088039Y-91894224D01*
X146088039Y-91894225D01*
X146180151Y-92091762D01*
X146180154Y-92091767D01*
X146182477Y-92096749D01*
X146185634Y-92101257D01*
X146307782Y-92275702D01*
X146313802Y-92284300D01*
X146475700Y-92446198D01*
X146480208Y-92449355D01*
X146480211Y-92449357D01*
X146541627Y-92492361D01*
X146663251Y-92577523D01*
X146668233Y-92579846D01*
X146668238Y-92579849D01*
X146702457Y-92595805D01*
X146755742Y-92642722D01*
X146775203Y-92710999D01*
X146754661Y-92778959D01*
X146702457Y-92824195D01*
X146668238Y-92840151D01*
X146668233Y-92840154D01*
X146663251Y-92842477D01*
X146615220Y-92876109D01*
X146480211Y-92970643D01*
X146480208Y-92970645D01*
X146475700Y-92973802D01*
X146313802Y-93135700D01*
X146310645Y-93140208D01*
X146310643Y-93140211D01*
X146307460Y-93144757D01*
X146182477Y-93323251D01*
X146180154Y-93328233D01*
X146180151Y-93328238D01*
X146091060Y-93519297D01*
X146085716Y-93530757D01*
X146084294Y-93536065D01*
X146084293Y-93536067D01*
X146033779Y-93724588D01*
X146026457Y-93751913D01*
X146006502Y-93980000D01*
X146026457Y-94208087D01*
X146027881Y-94213400D01*
X146027881Y-94213402D01*
X146074557Y-94387596D01*
X146085716Y-94429243D01*
X146088039Y-94434224D01*
X146088039Y-94434225D01*
X146180151Y-94631762D01*
X146180154Y-94631767D01*
X146182477Y-94636749D01*
X146214216Y-94682077D01*
X146307782Y-94815702D01*
X146313802Y-94824300D01*
X146475700Y-94986198D01*
X146480208Y-94989355D01*
X146480211Y-94989357D01*
X146541627Y-95032361D01*
X146663251Y-95117523D01*
X146668233Y-95119846D01*
X146668238Y-95119849D01*
X146702457Y-95135805D01*
X146755742Y-95182722D01*
X146775203Y-95250999D01*
X146754661Y-95318959D01*
X146702457Y-95364195D01*
X146668238Y-95380151D01*
X146668233Y-95380154D01*
X146663251Y-95382477D01*
X146613136Y-95417568D01*
X146480211Y-95510643D01*
X146480208Y-95510645D01*
X146475700Y-95513802D01*
X146313802Y-95675700D01*
X146182477Y-95863251D01*
X146180154Y-95868233D01*
X146180151Y-95868238D01*
X146091060Y-96059297D01*
X146085716Y-96070757D01*
X146084294Y-96076065D01*
X146084293Y-96076067D01*
X146043331Y-96228938D01*
X146026457Y-96291913D01*
X146006502Y-96520000D01*
X146026457Y-96748087D01*
X146027881Y-96753400D01*
X146027881Y-96753402D01*
X146074557Y-96927596D01*
X146085716Y-96969243D01*
X146088039Y-96974224D01*
X146088039Y-96974225D01*
X146180151Y-97171762D01*
X146180154Y-97171767D01*
X146182477Y-97176749D01*
X146254035Y-97278944D01*
X146308938Y-97357353D01*
X146313802Y-97364300D01*
X146475700Y-97526198D01*
X146480208Y-97529355D01*
X146480211Y-97529357D01*
X146541627Y-97572361D01*
X146663251Y-97657523D01*
X146668233Y-97659846D01*
X146668238Y-97659849D01*
X146702457Y-97675805D01*
X146755742Y-97722722D01*
X146775203Y-97790999D01*
X146754661Y-97858959D01*
X146702457Y-97904195D01*
X146668238Y-97920151D01*
X146668233Y-97920154D01*
X146663251Y-97922477D01*
X146558389Y-97995902D01*
X146480211Y-98050643D01*
X146480208Y-98050645D01*
X146475700Y-98053802D01*
X146313802Y-98215700D01*
X146182477Y-98403251D01*
X146180154Y-98408233D01*
X146180151Y-98408238D01*
X146091060Y-98599297D01*
X146085716Y-98610757D01*
X146084294Y-98616065D01*
X146084293Y-98616067D01*
X146043331Y-98768938D01*
X146026457Y-98831913D01*
X146006502Y-99060000D01*
X146026457Y-99288087D01*
X146027881Y-99293400D01*
X146027881Y-99293402D01*
X146074557Y-99467596D01*
X146085716Y-99509243D01*
X146088039Y-99514224D01*
X146088039Y-99514225D01*
X146180151Y-99711762D01*
X146180154Y-99711767D01*
X146182477Y-99716749D01*
X146185634Y-99721257D01*
X146307782Y-99895702D01*
X146313802Y-99904300D01*
X146475700Y-100066198D01*
X146480208Y-100069355D01*
X146480211Y-100069357D01*
X146541627Y-100112361D01*
X146663251Y-100197523D01*
X146668233Y-100199846D01*
X146668238Y-100199849D01*
X146702457Y-100215805D01*
X146755742Y-100262722D01*
X146775203Y-100330999D01*
X146754661Y-100398959D01*
X146702457Y-100444195D01*
X146668238Y-100460151D01*
X146668233Y-100460154D01*
X146663251Y-100462477D01*
X146558389Y-100535902D01*
X146480211Y-100590643D01*
X146480208Y-100590645D01*
X146475700Y-100593802D01*
X146313802Y-100755700D01*
X146182477Y-100943251D01*
X146180154Y-100948233D01*
X146180151Y-100948238D01*
X146091060Y-101139297D01*
X146085716Y-101150757D01*
X146084294Y-101156065D01*
X146084293Y-101156067D01*
X146043331Y-101308938D01*
X146026457Y-101371913D01*
X146006502Y-101600000D01*
X146026457Y-101828087D01*
X146027881Y-101833400D01*
X146027881Y-101833402D01*
X146074557Y-102007596D01*
X146085716Y-102049243D01*
X146088039Y-102054224D01*
X146088039Y-102054225D01*
X146180151Y-102251762D01*
X146180154Y-102251767D01*
X146182477Y-102256749D01*
X146185634Y-102261257D01*
X146307782Y-102435702D01*
X146313802Y-102444300D01*
X146475700Y-102606198D01*
X146480208Y-102609355D01*
X146480211Y-102609357D01*
X146541627Y-102652361D01*
X146663251Y-102737523D01*
X146668233Y-102739846D01*
X146668238Y-102739849D01*
X146702457Y-102755805D01*
X146755742Y-102802722D01*
X146775203Y-102870999D01*
X146754661Y-102938959D01*
X146702457Y-102984195D01*
X146668238Y-103000151D01*
X146668233Y-103000154D01*
X146663251Y-103002477D01*
X146558389Y-103075902D01*
X146480211Y-103130643D01*
X146480208Y-103130645D01*
X146475700Y-103133802D01*
X146313802Y-103295700D01*
X146182477Y-103483251D01*
X146180154Y-103488233D01*
X146180151Y-103488238D01*
X146091060Y-103679297D01*
X146085716Y-103690757D01*
X146084294Y-103696065D01*
X146084293Y-103696067D01*
X146043331Y-103848938D01*
X146026457Y-103911913D01*
X146006502Y-104140000D01*
X146026457Y-104368087D01*
X146027881Y-104373400D01*
X146027881Y-104373402D01*
X146074557Y-104547596D01*
X146085716Y-104589243D01*
X146088039Y-104594224D01*
X146088039Y-104594225D01*
X146180151Y-104791762D01*
X146180154Y-104791767D01*
X146182477Y-104796749D01*
X146185634Y-104801257D01*
X146307782Y-104975702D01*
X146313802Y-104984300D01*
X146475700Y-105146198D01*
X146480208Y-105149355D01*
X146480211Y-105149357D01*
X146541627Y-105192361D01*
X146663251Y-105277523D01*
X146668233Y-105279846D01*
X146668238Y-105279849D01*
X146702457Y-105295805D01*
X146755742Y-105342722D01*
X146775203Y-105410999D01*
X146754661Y-105478959D01*
X146702457Y-105524195D01*
X146668238Y-105540151D01*
X146668233Y-105540154D01*
X146663251Y-105542477D01*
X146558389Y-105615902D01*
X146480211Y-105670643D01*
X146480208Y-105670645D01*
X146475700Y-105673802D01*
X146313802Y-105835700D01*
X146182477Y-106023251D01*
X146180154Y-106028233D01*
X146180151Y-106028238D01*
X146091060Y-106219297D01*
X146085716Y-106230757D01*
X146084294Y-106236065D01*
X146084293Y-106236067D01*
X146043331Y-106388938D01*
X146026457Y-106451913D01*
X146006502Y-106680000D01*
X146026457Y-106908087D01*
X146027881Y-106913400D01*
X146027881Y-106913402D01*
X146074557Y-107087596D01*
X146085716Y-107129243D01*
X146088039Y-107134224D01*
X146088039Y-107134225D01*
X146180151Y-107331762D01*
X146180154Y-107331767D01*
X146182477Y-107336749D01*
X146185634Y-107341257D01*
X146307782Y-107515702D01*
X146313802Y-107524300D01*
X146475700Y-107686198D01*
X146480208Y-107689355D01*
X146480211Y-107689357D01*
X146541627Y-107732361D01*
X146663251Y-107817523D01*
X146668233Y-107819846D01*
X146668238Y-107819849D01*
X146702457Y-107835805D01*
X146755742Y-107882722D01*
X146775203Y-107950999D01*
X146754661Y-108018959D01*
X146702457Y-108064195D01*
X146668238Y-108080151D01*
X146668233Y-108080154D01*
X146663251Y-108082477D01*
X146570557Y-108147382D01*
X146480211Y-108210643D01*
X146480208Y-108210645D01*
X146475700Y-108213802D01*
X146313802Y-108375700D01*
X146310645Y-108380208D01*
X146310643Y-108380211D01*
X146294423Y-108403376D01*
X146182477Y-108563251D01*
X146180154Y-108568233D01*
X146180151Y-108568238D01*
X146091060Y-108759297D01*
X146085716Y-108770757D01*
X146084294Y-108776065D01*
X146084293Y-108776067D01*
X146043331Y-108928938D01*
X146026457Y-108991913D01*
X146006502Y-109220000D01*
X146026457Y-109448087D01*
X146027881Y-109453400D01*
X146027881Y-109453402D01*
X146074557Y-109627596D01*
X146085716Y-109669243D01*
X146088039Y-109674224D01*
X146088039Y-109674225D01*
X146180151Y-109871762D01*
X146180154Y-109871767D01*
X146182477Y-109876749D01*
X146185634Y-109881257D01*
X146307782Y-110055702D01*
X146313802Y-110064300D01*
X146475700Y-110226198D01*
X146480208Y-110229355D01*
X146480211Y-110229357D01*
X146541627Y-110272361D01*
X146663251Y-110357523D01*
X146668233Y-110359846D01*
X146668238Y-110359849D01*
X146702457Y-110375805D01*
X146755742Y-110422722D01*
X146775203Y-110490999D01*
X146754661Y-110558959D01*
X146702457Y-110604195D01*
X146668238Y-110620151D01*
X146668233Y-110620154D01*
X146663251Y-110622477D01*
X146558389Y-110695902D01*
X146480211Y-110750643D01*
X146480208Y-110750645D01*
X146475700Y-110753802D01*
X146464907Y-110764595D01*
X146402595Y-110798621D01*
X146375812Y-110801500D01*
X145229214Y-110801500D01*
X145161093Y-110781498D01*
X145140119Y-110764595D01*
X141975405Y-107599881D01*
X141941379Y-107537569D01*
X141938500Y-107510786D01*
X141938500Y-67055126D01*
X141958502Y-66987005D01*
X141975555Y-66965881D01*
X142018096Y-66923489D01*
X142021112Y-66919291D01*
X142021116Y-66919287D01*
X142148453Y-66742077D01*
X142149776Y-66743028D01*
X142196645Y-66699857D01*
X142266580Y-66687625D01*
X142332026Y-66715144D01*
X142359875Y-66746994D01*
X142419987Y-66845088D01*
X142566250Y-67013938D01*
X142738126Y-67156632D01*
X142931000Y-67269338D01*
X143139692Y-67349030D01*
X143144760Y-67350061D01*
X143144763Y-67350062D01*
X143252017Y-67371883D01*
X143358597Y-67393567D01*
X143363772Y-67393757D01*
X143363774Y-67393757D01*
X143576673Y-67401564D01*
X143576677Y-67401564D01*
X143581837Y-67401753D01*
X143586957Y-67401097D01*
X143586959Y-67401097D01*
X143798288Y-67374025D01*
X143798289Y-67374025D01*
X143803416Y-67373368D01*
X143808366Y-67371883D01*
X144012429Y-67310661D01*
X144012434Y-67310659D01*
X144017384Y-67309174D01*
X144217994Y-67210896D01*
X144351421Y-67115724D01*
X144418494Y-67092450D01*
X144487503Y-67109134D01*
X144513684Y-67129208D01*
X150955381Y-73570905D01*
X150989407Y-73633217D01*
X150984342Y-73704032D01*
X150955381Y-73749095D01*
X147306374Y-77398102D01*
X147244062Y-77432128D01*
X147228263Y-77434528D01*
X147091913Y-77446457D01*
X147086600Y-77447881D01*
X147086598Y-77447881D01*
X146876067Y-77504293D01*
X146876065Y-77504294D01*
X146870757Y-77505716D01*
X146865776Y-77508039D01*
X146865775Y-77508039D01*
X146668238Y-77600151D01*
X146668233Y-77600154D01*
X146663251Y-77602477D01*
X146558389Y-77675902D01*
X146480211Y-77730643D01*
X146480208Y-77730645D01*
X146475700Y-77733802D01*
X146313802Y-77895700D01*
X146182477Y-78083251D01*
X146180154Y-78088233D01*
X146180151Y-78088238D01*
X146095407Y-78269975D01*
X146085716Y-78290757D01*
X146084294Y-78296065D01*
X146084293Y-78296067D01*
X146028292Y-78505065D01*
X146026457Y-78511913D01*
X146006502Y-78740000D01*
X146026457Y-78968087D01*
X146085716Y-79189243D01*
X146088039Y-79194224D01*
X146088039Y-79194225D01*
X146180151Y-79391762D01*
X146180154Y-79391767D01*
X146182477Y-79396749D01*
X146255902Y-79501611D01*
X146308936Y-79577350D01*
X146313802Y-79584300D01*
X146475700Y-79746198D01*
X146480208Y-79749355D01*
X146480211Y-79749357D01*
X146520681Y-79777694D01*
X146663251Y-79877523D01*
X146668233Y-79879846D01*
X146668238Y-79879849D01*
X146703049Y-79896081D01*
X146756334Y-79942998D01*
X146775795Y-80011275D01*
X146755253Y-80079235D01*
X146703049Y-80124471D01*
X146668489Y-80140586D01*
X146658993Y-80146069D01*
X146480533Y-80271028D01*
X146472125Y-80278084D01*
X146318084Y-80432125D01*
X146311028Y-80440533D01*
X146186069Y-80618993D01*
X146180586Y-80628489D01*
X146088510Y-80825947D01*
X146084764Y-80836239D01*
X146038606Y-81008503D01*
X146038942Y-81022599D01*
X146046884Y-81026000D01*
X148587967Y-81026000D01*
X148601498Y-81022027D01*
X148602727Y-81013478D01*
X148555236Y-80836239D01*
X148551490Y-80825947D01*
X148459414Y-80628489D01*
X148453931Y-80618993D01*
X148328972Y-80440533D01*
X148321916Y-80432125D01*
X148167875Y-80278084D01*
X148159467Y-80271028D01*
X147981007Y-80146069D01*
X147971511Y-80140586D01*
X147936951Y-80124471D01*
X147883666Y-80077554D01*
X147864205Y-80009277D01*
X147884747Y-79941317D01*
X147936951Y-79896081D01*
X147971762Y-79879849D01*
X147971767Y-79879846D01*
X147976749Y-79877523D01*
X148119319Y-79777694D01*
X148159789Y-79749357D01*
X148159792Y-79749355D01*
X148164300Y-79746198D01*
X148326198Y-79584300D01*
X148331065Y-79577350D01*
X148384098Y-79501611D01*
X148457523Y-79396749D01*
X148459846Y-79391767D01*
X148459849Y-79391762D01*
X148551961Y-79194225D01*
X148551961Y-79194224D01*
X148554284Y-79189243D01*
X148613543Y-78968087D01*
X148625472Y-78831739D01*
X148651336Y-78765621D01*
X148661898Y-78753626D01*
X153057530Y-74357994D01*
X153062314Y-74353453D01*
X153113723Y-74307164D01*
X153155769Y-74250135D01*
X153159526Y-74245290D01*
X153204328Y-74190357D01*
X153210774Y-74178027D01*
X153221019Y-74161632D01*
X153225483Y-74155578D01*
X153225487Y-74155570D01*
X153229276Y-74150432D01*
X153258994Y-74086116D01*
X153261713Y-74080591D01*
X153291588Y-74023446D01*
X153294544Y-74017792D01*
X153296302Y-74011660D01*
X153296305Y-74011653D01*
X153298384Y-74004404D01*
X153305121Y-73986288D01*
X153308276Y-73979460D01*
X153308277Y-73979458D01*
X153310953Y-73973666D01*
X153327137Y-73904667D01*
X153328677Y-73898755D01*
X153348216Y-73830611D01*
X153349284Y-73816730D01*
X153352242Y-73797626D01*
X153353960Y-73790301D01*
X153355418Y-73784087D01*
X153357397Y-73713258D01*
X153357719Y-73707111D01*
X153362666Y-73642817D01*
X153362666Y-73642816D01*
X153363155Y-73636461D01*
X153362356Y-73630136D01*
X153362356Y-73630130D01*
X153361412Y-73622655D01*
X153360468Y-73603357D01*
X153360678Y-73595825D01*
X153360678Y-73595822D01*
X153360856Y-73589439D01*
X153348549Y-73519640D01*
X153347629Y-73513554D01*
X153345038Y-73493047D01*
X153338750Y-73443272D01*
X153336694Y-73437231D01*
X153336692Y-73437224D01*
X153334265Y-73430095D01*
X153329460Y-73411382D01*
X153327042Y-73397673D01*
X153321427Y-73383490D01*
X153300962Y-73331801D01*
X153298837Y-73326025D01*
X153278056Y-73264983D01*
X153278053Y-73264977D01*
X153275997Y-73258937D01*
X153268956Y-73246937D01*
X153260481Y-73229560D01*
X153257711Y-73222563D01*
X153257710Y-73222561D01*
X153255359Y-73216623D01*
X153216560Y-73157332D01*
X153213320Y-73152107D01*
X153180686Y-73096484D01*
X153177460Y-73090985D01*
X153173197Y-73086251D01*
X153173191Y-73086242D01*
X153168144Y-73080637D01*
X153156355Y-73065329D01*
X153148735Y-73053685D01*
X153144452Y-73048929D01*
X153098000Y-73002477D01*
X153093459Y-72997692D01*
X153047165Y-72946277D01*
X153034360Y-72936836D01*
X153020045Y-72924522D01*
X145468776Y-65373252D01*
X145466322Y-65370730D01*
X145434476Y-65337054D01*
X145409534Y-65310678D01*
X145362328Y-65277624D01*
X145355002Y-65272084D01*
X145310357Y-65235672D01*
X145286230Y-65223059D01*
X145272332Y-65214609D01*
X145250025Y-65198989D01*
X145211085Y-65182138D01*
X145197172Y-65176117D01*
X145188838Y-65172142D01*
X145143444Y-65148411D01*
X145137792Y-65145456D01*
X145111606Y-65137948D01*
X145096312Y-65132472D01*
X145071316Y-65121655D01*
X145065071Y-65120350D01*
X145065070Y-65120350D01*
X145014935Y-65109876D01*
X145005985Y-65107661D01*
X144950611Y-65091784D01*
X144923456Y-65089695D01*
X144907367Y-65087405D01*
X144880707Y-65081835D01*
X144874315Y-65081500D01*
X144821803Y-65081500D01*
X144812136Y-65081129D01*
X144762821Y-65077334D01*
X144762817Y-65077334D01*
X144756461Y-65076845D01*
X144727481Y-65080506D01*
X144711689Y-65081500D01*
X144539913Y-65081500D01*
X144471792Y-65061498D01*
X144453981Y-65047651D01*
X144453154Y-65046880D01*
X144449670Y-65043051D01*
X144334312Y-64951946D01*
X144278414Y-64907800D01*
X144278410Y-64907798D01*
X144274359Y-64904598D01*
X144078789Y-64796638D01*
X144073920Y-64794914D01*
X144073916Y-64794912D01*
X143873087Y-64723795D01*
X143873083Y-64723794D01*
X143868212Y-64722069D01*
X143863119Y-64721162D01*
X143863116Y-64721161D01*
X143653373Y-64683800D01*
X143653367Y-64683799D01*
X143648284Y-64682894D01*
X143574452Y-64681992D01*
X143430081Y-64680228D01*
X143430079Y-64680228D01*
X143424911Y-64680165D01*
X143204091Y-64713955D01*
X142991756Y-64783357D01*
X142793607Y-64886507D01*
X142789474Y-64889610D01*
X142789471Y-64889612D01*
X142706450Y-64951946D01*
X142614965Y-65020635D01*
X142460629Y-65182138D01*
X142353201Y-65339621D01*
X142298293Y-65384621D01*
X142227768Y-65392792D01*
X142164021Y-65361538D01*
X142143324Y-65337054D01*
X142062822Y-65212617D01*
X142062820Y-65212614D01*
X142060014Y-65208277D01*
X141909670Y-65043051D01*
X141905619Y-65039852D01*
X141905615Y-65039848D01*
X141738414Y-64907800D01*
X141738410Y-64907798D01*
X141734359Y-64904598D01*
X141538789Y-64796638D01*
X141533920Y-64794914D01*
X141533916Y-64794912D01*
X141333087Y-64723795D01*
X141333083Y-64723794D01*
X141328212Y-64722069D01*
X141323119Y-64721162D01*
X141323116Y-64721161D01*
X141113373Y-64683800D01*
X141113367Y-64683799D01*
X141108284Y-64682894D01*
X141034452Y-64681992D01*
X140890081Y-64680228D01*
X140890079Y-64680228D01*
X140884911Y-64680165D01*
X140664091Y-64713955D01*
X140451756Y-64783357D01*
X140253607Y-64886507D01*
X140249474Y-64889610D01*
X140249471Y-64889612D01*
X140166450Y-64951946D01*
X140074965Y-65020635D01*
X139920629Y-65182138D01*
X139813201Y-65339621D01*
X139758293Y-65384621D01*
X139687768Y-65392792D01*
X139624021Y-65361538D01*
X139603324Y-65337054D01*
X139522824Y-65212620D01*
X139522822Y-65212617D01*
X139520014Y-65208277D01*
X139459871Y-65142181D01*
X139431306Y-65110788D01*
X139400254Y-65046943D01*
X139398500Y-65025989D01*
X139398500Y-62669214D01*
X139418502Y-62601093D01*
X139435405Y-62580119D01*
X140060119Y-61955405D01*
X140122431Y-61921379D01*
X140149214Y-61918500D01*
X151950786Y-61918500D01*
X152018907Y-61938502D01*
G37*
%TD.AperFunction*%
%TA.AperFunction,Conductor*%
G36*
X111378907Y-77178502D02*
G01*
X111399881Y-77195405D01*
X113611207Y-79406730D01*
X113613661Y-79409252D01*
X113670466Y-79469322D01*
X113675692Y-79472981D01*
X113717660Y-79502368D01*
X113725024Y-79507938D01*
X113769643Y-79544328D01*
X113775300Y-79547285D01*
X113775301Y-79547286D01*
X113793770Y-79556941D01*
X113807668Y-79565391D01*
X113829975Y-79581011D01*
X113838539Y-79584717D01*
X113882828Y-79603883D01*
X113891162Y-79607858D01*
X113942208Y-79634544D01*
X113968394Y-79642052D01*
X113983688Y-79647528D01*
X114008684Y-79658345D01*
X114014929Y-79659650D01*
X114014930Y-79659650D01*
X114065065Y-79670124D01*
X114074015Y-79672339D01*
X114129389Y-79688216D01*
X114156544Y-79690305D01*
X114172633Y-79692595D01*
X114199293Y-79698165D01*
X114205685Y-79698500D01*
X114258197Y-79698500D01*
X114267864Y-79698871D01*
X114317179Y-79702666D01*
X114317183Y-79702666D01*
X114323539Y-79703155D01*
X114352520Y-79699494D01*
X114368311Y-79698500D01*
X130708991Y-79698500D01*
X130777112Y-79718502D01*
X130823605Y-79772158D01*
X130825903Y-79777694D01*
X130826232Y-79778296D01*
X130829385Y-79786705D01*
X130916739Y-79903261D01*
X131033295Y-79990615D01*
X131169684Y-80041745D01*
X131180474Y-80042917D01*
X131182606Y-80043803D01*
X131185222Y-80044425D01*
X131185121Y-80044848D01*
X131246035Y-80070155D01*
X131286463Y-80128517D01*
X131288922Y-80199471D01*
X131252629Y-80260490D01*
X131243969Y-80267489D01*
X131240207Y-80270646D01*
X131235700Y-80273802D01*
X131224907Y-80284595D01*
X131162595Y-80318621D01*
X131135812Y-80321500D01*
X129555572Y-80321500D01*
X129552053Y-80321451D01*
X129475822Y-80319321D01*
X129475819Y-80319321D01*
X129469440Y-80319143D01*
X129463150Y-80320252D01*
X129463151Y-80320252D01*
X129412702Y-80329147D01*
X129403557Y-80330416D01*
X129352619Y-80335590D01*
X129352615Y-80335591D01*
X129346273Y-80336235D01*
X129320293Y-80344377D01*
X129304494Y-80348228D01*
X129283962Y-80351848D01*
X129283959Y-80351849D01*
X129277674Y-80352957D01*
X129271739Y-80355307D01*
X129271735Y-80355308D01*
X129224124Y-80374159D01*
X129215425Y-80377240D01*
X129160459Y-80394465D01*
X129154878Y-80397559D01*
X129154875Y-80397560D01*
X129136642Y-80407667D01*
X129121941Y-80414616D01*
X129096624Y-80424640D01*
X129091281Y-80428136D01*
X129091276Y-80428139D01*
X129048424Y-80456181D01*
X129040515Y-80460952D01*
X128995733Y-80485775D01*
X128995731Y-80485776D01*
X128990150Y-80488870D01*
X128985307Y-80493021D01*
X128969476Y-80506590D01*
X128956472Y-80516353D01*
X128933686Y-80531264D01*
X128928929Y-80535547D01*
X128891794Y-80572682D01*
X128884696Y-80579255D01*
X128842302Y-80615591D01*
X128838395Y-80620628D01*
X128838393Y-80620630D01*
X128824393Y-80638679D01*
X128813929Y-80650547D01*
X126634881Y-82829595D01*
X126572569Y-82863621D01*
X126545786Y-82866500D01*
X107721072Y-82866500D01*
X107652951Y-82846498D01*
X107606458Y-82792842D01*
X107596354Y-82722568D01*
X107625848Y-82657988D01*
X107676842Y-82622518D01*
X107768054Y-82588324D01*
X107783649Y-82579786D01*
X107885724Y-82503285D01*
X107898285Y-82490724D01*
X107974786Y-82388649D01*
X107983324Y-82373054D01*
X108028478Y-82252606D01*
X108032105Y-82237351D01*
X108037631Y-82186486D01*
X108038000Y-82179672D01*
X108038000Y-81557115D01*
X108033525Y-81541876D01*
X108032135Y-81540671D01*
X108024452Y-81539000D01*
X105340116Y-81539000D01*
X105324877Y-81543475D01*
X105323672Y-81544865D01*
X105322001Y-81552548D01*
X105322001Y-82179669D01*
X105322371Y-82186490D01*
X105327895Y-82237352D01*
X105331521Y-82252604D01*
X105376676Y-82373054D01*
X105385214Y-82388649D01*
X105461715Y-82490724D01*
X105474276Y-82503285D01*
X105576351Y-82579786D01*
X105591946Y-82588324D01*
X105700827Y-82629142D01*
X105757591Y-82671784D01*
X105782291Y-82738345D01*
X105767083Y-82807694D01*
X105747691Y-82834175D01*
X105697654Y-82886536D01*
X105620629Y-82967138D01*
X105494743Y-83151680D01*
X105490587Y-83160634D01*
X105418850Y-83315179D01*
X105400688Y-83354305D01*
X105340989Y-83569570D01*
X105317251Y-83791695D01*
X105317548Y-83796848D01*
X105317548Y-83796851D01*
X105321961Y-83873382D01*
X105330110Y-84014715D01*
X105331247Y-84019761D01*
X105331248Y-84019767D01*
X105355304Y-84126508D01*
X105379222Y-84232639D01*
X105412840Y-84315431D01*
X105459318Y-84429892D01*
X105463266Y-84439616D01*
X105508146Y-84512853D01*
X105571434Y-84616130D01*
X105579987Y-84630088D01*
X105583367Y-84633990D01*
X105594026Y-84646295D01*
X105726250Y-84798938D01*
X105898126Y-84941632D01*
X105929301Y-84959849D01*
X105971445Y-84984476D01*
X106020169Y-85036114D01*
X106033240Y-85105897D01*
X106006509Y-85171669D01*
X105966055Y-85205027D01*
X105953607Y-85211507D01*
X105949474Y-85214610D01*
X105949471Y-85214612D01*
X105925247Y-85232800D01*
X105774965Y-85345635D01*
X105756847Y-85364595D01*
X105754023Y-85367550D01*
X105692499Y-85402981D01*
X105662928Y-85406500D01*
X104276057Y-85406500D01*
X104250290Y-85403837D01*
X104250275Y-85403834D01*
X104240707Y-85401835D01*
X104234315Y-85401500D01*
X104181803Y-85401500D01*
X104172136Y-85401129D01*
X104122821Y-85397334D01*
X104122817Y-85397334D01*
X104116461Y-85396845D01*
X104087481Y-85400506D01*
X104071689Y-85401500D01*
X102049213Y-85401500D01*
X101981092Y-85381498D01*
X101960118Y-85364595D01*
X100055405Y-83459881D01*
X100021379Y-83397569D01*
X100018500Y-83370786D01*
X100018500Y-81012885D01*
X105322000Y-81012885D01*
X105326475Y-81028124D01*
X105327865Y-81029329D01*
X105335548Y-81031000D01*
X106407885Y-81031000D01*
X106423124Y-81026525D01*
X106424329Y-81025135D01*
X106426000Y-81017452D01*
X106426000Y-81012885D01*
X106934000Y-81012885D01*
X106938475Y-81028124D01*
X106939865Y-81029329D01*
X106947548Y-81031000D01*
X108019884Y-81031000D01*
X108035123Y-81026525D01*
X108036328Y-81025135D01*
X108037999Y-81017452D01*
X108037999Y-80390331D01*
X108037629Y-80383510D01*
X108032105Y-80332648D01*
X108028479Y-80317396D01*
X107983324Y-80196946D01*
X107974786Y-80181351D01*
X107898285Y-80079276D01*
X107885724Y-80066715D01*
X107783649Y-79990214D01*
X107768054Y-79981676D01*
X107647606Y-79936522D01*
X107632351Y-79932895D01*
X107581486Y-79927369D01*
X107574672Y-79927000D01*
X106952115Y-79927000D01*
X106936876Y-79931475D01*
X106935671Y-79932865D01*
X106934000Y-79940548D01*
X106934000Y-81012885D01*
X106426000Y-81012885D01*
X106426000Y-79945116D01*
X106421525Y-79929877D01*
X106420135Y-79928672D01*
X106412452Y-79927001D01*
X105785331Y-79927001D01*
X105778510Y-79927371D01*
X105727648Y-79932895D01*
X105712396Y-79936521D01*
X105591946Y-79981676D01*
X105576351Y-79990214D01*
X105474276Y-80066715D01*
X105461715Y-80079276D01*
X105385214Y-80181351D01*
X105376676Y-80196946D01*
X105331522Y-80317394D01*
X105327895Y-80332649D01*
X105322369Y-80383514D01*
X105322000Y-80390328D01*
X105322000Y-81012885D01*
X100018500Y-81012885D01*
X100018500Y-79189214D01*
X100038502Y-79121093D01*
X100055405Y-79100119D01*
X101960118Y-77195405D01*
X102022430Y-77161380D01*
X102049213Y-77158500D01*
X111310786Y-77158500D01*
X111378907Y-77178502D01*
G37*
%TD.AperFunction*%
%TD*%
M02*
